<?xml version="1.0" encoding="iso-8859-1"?>
<!-- Generator: Adobe Illustrator 19.1.0, SVG Export Plug-In . SVG Version: 6.00 Build 0)  -->
<svg version="1.1" id="Capa_1" xmlns="http://www.w3.org/2000/svg" xmlns:xlink="http://www.w3.org/1999/xlink" x="0px" y="0px"
	 viewBox="0 0 455.8 455.8" style="enable-background:new 0 0 455.8 455.8;" xml:space="preserve">
<g>
	<path d="M370.4,248.96v37.89c0,4.14-3.36,7.5-7.5,7.5h-96.87v58.2l18.85,18.85c2.49-1.11,5.24-1.75,8.14-1.75
		c11.03,0,20,8.98,20,20c0,11.03-8.97,20-20,20s-20-8.97-20-20c0-2.63,0.53-5.14,1.45-7.44l-21.25-21.25
		c-1.4-1.41-2.19-3.31-2.19-5.3v-61.31H235.4v122.92c7.32,2.98,12.5,10.16,12.5,18.53c0,11.03-8.97,20-20,20s-20-8.97-20-20
		c0-8.37,5.18-15.55,12.5-18.53V294.35h-15.63v34.96c0,1.98-0.79,3.89-2.2,5.3l-21.25,21.25c0.93,2.31,1.45,4.81,1.45,7.45
		c0,11.03-8.97,20-20,20s-20-8.97-20-20s8.97-20,20-20c2.9,0,5.65,0.63,8.14,1.75l18.86-18.86v-31.85H92.9c-4.15,0-7.5-3.36-7.5-7.5
		v-37.89c0-13.02,10.59-23.61,23.61-23.61h6.18V112.7C115.19,50.56,165.75,0,227.9,0c62.14,0,112.7,50.56,112.7,112.7v112.65h6.18
		C359.8,225.35,370.4,235.94,370.4,248.96z M355.4,279.35v-30.39c0-4.75-3.87-8.61-8.62-8.61H109.01c-4.75,0-8.61,3.86-8.61,8.61
		v30.39H355.4z M325.6,225.35V112.7c0-53.87-43.83-97.7-97.7-97.7c-53.88,0-97.71,43.83-97.71,97.7v112.65H325.6z M298.02,389.65
		c0-2.75-2.24-5-5-5c-2.75,0-5,2.25-5,5c0,2.76,2.25,5,5,5C295.78,394.65,298.02,392.41,298.02,389.65z M232.9,435.8
		c0-2.76-2.25-5-5-5c-2.76,0-5,2.24-5,5c0,2.76,2.24,5,5,5C230.65,440.8,232.9,438.56,232.9,435.8z M167.77,363.31
		c0-2.76-2.24-5-5-5c-2.76,0-5,2.24-5,5c0,2.75,2.24,5,5,5C165.53,368.31,167.77,366.06,167.77,363.31z"/>
	<path style="fill:#F48C6C;" d="M325.6,112.7v112.65H130.19V112.7c0-53.87,43.83-97.7,97.71-97.7C281.77,15,325.6,58.83,325.6,112.7
		z M310.6,202.85v-12.67c0-4.14-3.36-7.5-7.5-7.5c-4.14,0-7.5,3.36-7.5,7.5v12.67c0,4.14,3.36,7.5,7.5,7.5
		C307.24,210.35,310.6,206.99,310.6,202.85z M310.6,164.85v-52.14C310.6,67.1,273.5,30,227.9,30c-4.15,0-7.5,3.36-7.5,7.5
		s3.35,7.5,7.5,7.5c37.33,0,67.7,30.37,67.7,67.71v52.14c0,4.14,3.36,7.5,7.5,7.5C307.24,172.35,310.6,168.99,310.6,164.85z
		 M160.19,202.85v-51.34c0-4.14-3.35-7.5-7.5-7.5c-4.14,0-7.5,3.36-7.5,7.5v51.34c0,4.14,3.36,7.5,7.5,7.5
		C156.84,210.35,160.19,206.99,160.19,202.85z M160.19,126.85v-14.14c0-4.15-3.35-7.5-7.5-7.5c-4.14,0-7.5,3.35-7.5,7.5v14.14
		c0,4.14,3.36,7.5,7.5,7.5C156.84,134.35,160.19,130.99,160.19,126.85z"/>
	<path d="M310.6,190.18v12.67c0,4.14-3.36,7.5-7.5,7.5c-4.14,0-7.5-3.36-7.5-7.5v-12.67c0-4.14,3.36-7.5,7.5-7.5
		C307.24,182.68,310.6,186.04,310.6,190.18z"/>
	<path d="M310.6,112.71v52.14c0,4.14-3.36,7.5-7.5,7.5c-4.14,0-7.5-3.36-7.5-7.5v-52.14c0-37.34-30.37-67.71-67.7-67.71
		c-4.15,0-7.5-3.36-7.5-7.5s3.35-7.5,7.5-7.5C273.5,30,310.6,67.1,310.6,112.71z"/>
	<path style="fill:#3DD0F2;" d="M293.02,384.65c2.76,0,5,2.25,5,5c0,2.76-2.24,5-5,5c-2.75,0-5-2.24-5-5
		C288.02,386.9,290.27,384.65,293.02,384.65z"/>
	<path style="fill:#3DD0F2;" d="M227.9,430.8c2.75,0,5,2.24,5,5c0,2.76-2.25,5-5,5c-2.76,0-5-2.24-5-5
		C222.9,433.04,225.14,430.8,227.9,430.8z"/>
	<path style="fill:#3DD0F2;" d="M162.77,358.31c2.76,0,5,2.24,5,5c0,2.75-2.24,5-5,5c-2.76,0-5-2.25-5-5
		C157.77,360.55,160.01,358.31,162.77,358.31z"/>
	<path d="M160.19,151.51v51.34c0,4.14-3.35,7.5-7.5,7.5c-4.14,0-7.5-3.36-7.5-7.5v-51.34c0-4.14,3.36-7.5,7.5-7.5
		C156.84,144.01,160.19,147.37,160.19,151.51z"/>
	<path d="M160.19,112.71v14.14c0,4.14-3.35,7.5-7.5,7.5c-4.14,0-7.5-3.36-7.5-7.5v-14.14c0-4.15,3.36-7.5,7.5-7.5
		C156.84,105.21,160.19,108.56,160.19,112.71z"/>
</g>
<g>
</g>
<g>
</g>
<g>
</g>
<g>
</g>
<g>
</g>
<g>
</g>
<g>
</g>
<g>
</g>
<g>
</g>
<g>
</g>
<g>
</g>
<g>
</g>
<g>
</g>
<g>
</g>
<g>
</g>
</svg>
