<?xml version="1.0" encoding="iso-8859-1"?>
<!-- Generator: Adobe Illustrator 19.1.0, SVG Export Plug-In . SVG Version: 6.00 Build 0)  -->
<svg version="1.1" id="Capa_1" xmlns="http://www.w3.org/2000/svg" xmlns:xlink="http://www.w3.org/1999/xlink" x="0px" y="0px"
	 viewBox="0 0 478.95 478.95" style="enable-background:new 0 0 478.95 478.95;" xml:space="preserve">
<g>
	<path d="M455.87,220.885c0,4.14-3.36,7.5-7.5,7.5c-4.14,0-7.5-3.36-7.5-7.5c0-30.98-18.18-59.41-46.31-72.42
		c-3.76-1.74-5.4-6.2-3.66-9.96c1.74-3.75,6.19-5.39,9.95-3.65C434.27,150.305,455.87,184.075,455.87,220.885z"/>
	<path d="M361.12,103.055c64.97,0,117.83,52.86,117.83,117.83s-52.86,117.83-117.83,117.83s-117.82-52.86-117.82-117.83
		S296.15,103.055,361.12,103.055z M463.95,220.885c0-56.7-46.13-102.83-102.83-102.83s-102.82,46.13-102.82,102.83
		s46.12,102.83,102.82,102.83S463.95,277.585,463.95,220.885z"/>
	<path style="fill:#F48C6C;" d="M361.12,118.055c56.7,0,102.83,46.13,102.83,102.83s-46.13,102.83-102.83,102.83
		s-102.82-46.13-102.82-102.83S304.42,118.055,361.12,118.055z M448.37,228.385c4.14,0,7.5-3.36,7.5-7.5
		c0-36.81-21.6-70.58-55.02-86.03c-3.76-1.74-8.21-0.1-9.95,3.65c-1.74,3.76-0.1,8.22,3.66,9.96
		c28.13,13.01,46.31,41.44,46.31,72.42C440.87,225.025,444.23,228.385,448.37,228.385z M394.94,220.885
		c0-18.65-15.17-33.82-33.82-33.82c-18.64,0-33.81,15.17-33.81,33.82s15.17,33.82,33.81,33.82
		C379.77,254.705,394.94,239.535,394.94,220.885z M382.3,135.895c0.65-4.09-2.14-7.93-6.23-8.58c-4.91-0.78-9.94-1.17-14.95-1.17
		c-4.14,0-7.5,3.35-7.5,7.5c0,4.14,3.36,7.5,7.5,7.5c4.23,0,8.46,0.33,12.6,0.98c0.39,0.07,0.79,0.1,1.18,0.1
		C378.52,142.225,381.71,139.585,382.3,135.895z M368.62,308.125c0-4.14-3.35-7.5-7.5-7.5c-3.14,0-6.3-0.18-9.4-0.54
		c-4.11-0.49-7.84,2.46-8.33,6.57c-0.48,4.11,2.47,7.84,6.58,8.32c3.68,0.44,7.43,0.65,11.15,0.65
		C365.27,315.625,368.62,312.275,368.62,308.125z M334.18,304.235c1.61-3.82-0.18-8.22-4-9.83c-29.64-12.49-48.8-41.35-48.8-73.52
		c0-4.14-3.36-7.5-7.5-7.5c-4.14,0-7.5,3.36-7.5,7.5c0,38.22,22.76,72.5,57.98,87.35c0.95,0.4,1.94,0.59,2.91,0.59
		C330.19,308.825,332.98,307.095,334.18,304.235z"/>
	<path d="M361.12,187.065c18.65,0,33.82,15.17,33.82,33.82s-15.17,33.82-33.82,33.82c-18.64,0-33.81-15.17-33.81-33.82
		S342.48,187.065,361.12,187.065z M379.94,220.885c0-10.38-8.44-18.82-18.82-18.82c-10.37,0-18.81,8.44-18.81,18.82
		c0,10.38,8.44,18.82,18.81,18.82C371.5,239.705,379.94,231.265,379.94,220.885z"/>
	<path d="M376.07,127.315c4.09,0.65,6.88,4.49,6.23,8.58c-0.59,3.69-3.78,6.33-7.4,6.33c-0.39,0-0.79-0.03-1.18-0.1
		c-4.14-0.65-8.37-0.98-12.6-0.98c-4.14,0-7.5-3.36-7.5-7.5c0-4.15,3.36-7.5,7.5-7.5C366.13,126.145,371.16,126.535,376.07,127.315z
		"/>
	<path d="M361.12,300.625c4.15,0,7.5,3.36,7.5,7.5c0,4.15-3.35,7.5-7.5,7.5c-3.72,0-7.47-0.21-11.15-0.65
		c-4.11-0.48-7.06-4.21-6.58-8.32c0.49-4.11,4.22-7.06,8.33-6.57C354.82,300.445,357.98,300.625,361.12,300.625z"/>
	<path d="M330.18,294.405c3.82,1.61,5.61,6.01,4,9.83c-1.2,2.86-3.99,4.59-6.91,4.59c-0.97,0-1.96-0.19-2.91-0.59
		c-35.22-14.85-57.98-49.13-57.98-87.35c0-4.14,3.36-7.5,7.5-7.5c4.14,0,7.5,3.36,7.5,7.5
		C281.38,253.055,300.54,281.915,330.18,294.405z"/>
	<path d="M309.43,335.895c11.03,0,20,8.97,20,20s-8.97,20-20,20c-10.93,0-19.83-8.82-19.99-19.71l-25.97-12.43
		c-5.08,7.89-13.93,13.14-23.99,13.14c-10.07,0-18.92-5.25-23.99-13.14l-25.98,12.43c-0.16,10.89-9.06,19.71-19.99,19.71
		c-11.03,0-20-8.97-20-20s8.97-20,20-20c5.72,0,10.87,2.42,14.52,6.28l26.96-12.91c-0.01-0.29-0.02-0.58-0.02-0.87
		c0-15.72,12.78-28.5,28.5-28.5c15.71,0,28.5,12.78,28.5,28.5c0,0.29-0.02,0.58-0.03,0.87l26.97,12.91
		C298.57,338.315,303.72,335.895,309.43,335.895z M314.43,355.895c0-2.76-2.24-5-5-5c-2.76,0-5,2.24-5,5c0,2.76,2.24,5,5,5
		C312.19,360.895,314.43,358.655,314.43,355.895z M252.98,328.395c0-7.44-6.06-13.5-13.5-13.5c-7.45,0-13.5,6.06-13.5,13.5
		s6.05,13.5,13.5,13.5C246.92,341.895,252.98,335.835,252.98,328.395z M174.52,355.895c0-2.76-2.24-5-5-5c-2.75,0-5,2.24-5,5
		c0,2.76,2.25,5,5,5C172.28,360.895,174.52,358.655,174.52,355.895z"/>
	<circle style="fill:#3DD0F2;" cx="309.43" cy="355.895" r="5"/>
	<path d="M212.57,220.885c0,4.14-3.35,7.5-7.5,7.5c-4.14,0-7.5-3.36-7.5-7.5c0-30.98-18.17-59.41-46.31-72.42
		c-3.76-1.74-5.39-6.2-3.66-9.96c1.74-3.75,6.2-5.39,9.96-3.65C190.98,150.305,212.57,184.075,212.57,220.885z"/>
	<path d="M117.83,103.055c64.97,0,117.83,52.86,117.83,117.83s-52.86,117.83-117.83,117.83S0,285.855,0,220.885
		S52.86,103.055,117.83,103.055z M220.66,220.885c0-56.7-46.13-102.83-102.83-102.83S15,164.185,15,220.885
		s46.13,102.83,102.83,102.83S220.66,277.585,220.66,220.885z"/>
	<path style="fill:#F48C6C;" d="M117.83,118.055c56.7,0,102.83,46.13,102.83,102.83s-46.13,102.83-102.83,102.83
		S15,277.585,15,220.885S61.13,118.055,117.83,118.055z M205.07,228.385c4.15,0,7.5-3.36,7.5-7.5c0-36.81-21.59-70.58-55.01-86.03
		c-3.76-1.74-8.22-0.1-9.96,3.65c-1.73,3.76-0.1,8.22,3.66,9.96c28.14,13.01,46.31,41.44,46.31,72.42
		C197.57,225.025,200.93,228.385,205.07,228.385z M151.65,220.885c0-18.65-15.17-33.82-33.82-33.82s-33.82,15.17-33.82,33.82
		s15.17,33.82,33.82,33.82S151.65,239.535,151.65,220.885z M139,135.895c0.65-4.09-2.14-7.93-6.23-8.58
		c-4.91-0.78-9.93-1.17-14.94-1.17c-4.14,0-7.5,3.35-7.5,7.5c0,4.14,3.36,7.5,7.5,7.5c4.22,0,8.46,0.33,12.59,0.98
		c0.4,0.07,0.8,0.1,1.19,0.1C135.23,142.225,138.42,139.585,139,135.895z M125.33,308.125c0-4.14-3.36-7.5-7.5-7.5
		c-3.14,0-6.31-0.18-9.41-0.54c-4.11-0.49-7.84,2.46-8.32,6.57c-0.48,4.12,2.46,7.84,6.58,8.32c3.67,0.44,7.43,0.65,11.15,0.65
		C121.97,315.625,125.33,312.275,125.33,308.125z M90.89,304.235c1.61-3.82-0.18-8.22-4-9.83c-29.65-12.49-48.8-41.35-48.8-73.52
		c0-4.14-3.36-7.5-7.5-7.5c-4.15,0-7.5,3.36-7.5,7.5c0,38.22,22.75,72.5,57.98,87.35c0.95,0.4,1.93,0.59,2.91,0.59
		C86.9,308.825,89.68,307.095,90.89,304.235z"/>
	<path style="fill:#3DD0F2;" d="M169.52,350.895c2.76,0,5,2.24,5,5c0,2.76-2.24,5-5,5c-2.75,0-5-2.24-5-5
		C164.52,353.135,166.77,350.895,169.52,350.895z"/>
	<path d="M117.83,187.065c18.65,0,33.82,15.17,33.82,33.82s-15.17,33.82-33.82,33.82s-33.82-15.17-33.82-33.82
		S99.18,187.065,117.83,187.065z M136.65,220.885c0-10.38-8.44-18.82-18.82-18.82s-18.82,8.44-18.82,18.82
		c0,10.38,8.44,18.82,18.82,18.82S136.65,231.265,136.65,220.885z"/>
	<path d="M132.77,127.315c4.09,0.65,6.88,4.49,6.23,8.58c-0.58,3.69-3.77,6.33-7.39,6.33c-0.39,0-0.79-0.03-1.19-0.1
		c-4.13-0.65-8.37-0.98-12.59-0.98c-4.14,0-7.5-3.36-7.5-7.5c0-4.15,3.36-7.5,7.5-7.5C122.84,126.145,127.86,126.535,132.77,127.315
		z"/>
	<path d="M117.83,300.625c4.14,0,7.5,3.36,7.5,7.5c0,4.15-3.36,7.5-7.5,7.5c-3.72,0-7.48-0.21-11.15-0.65
		c-4.12-0.48-7.06-4.2-6.58-8.32c0.48-4.11,4.21-7.06,8.32-6.57C111.52,300.445,114.69,300.625,117.83,300.625z"/>
	<path d="M86.89,294.405c3.82,1.61,5.61,6.01,4,9.83c-1.21,2.86-3.99,4.59-6.91,4.59c-0.98,0-1.96-0.19-2.91-0.59
		c-35.23-14.85-57.98-49.13-57.98-87.35c0-4.14,3.35-7.5,7.5-7.5c4.14,0,7.5,3.36,7.5,7.5
		C38.09,253.055,57.24,281.915,86.89,294.405z"/>
</g>
<g>
</g>
<g>
</g>
<g>
</g>
<g>
</g>
<g>
</g>
<g>
</g>
<g>
</g>
<g>
</g>
<g>
</g>
<g>
</g>
<g>
</g>
<g>
</g>
<g>
</g>
<g>
</g>
<g>
</g>
</svg>
