<?xml version="1.0" encoding="iso-8859-1"?>
<!-- Generator: Adobe Illustrator 19.1.0, SVG Export Plug-In . SVG Version: 6.00 Build 0)  -->
<svg version="1.1" id="Capa_1" xmlns="http://www.w3.org/2000/svg" xmlns:xlink="http://www.w3.org/1999/xlink" x="0px" y="0px"
	 viewBox="0 0 459.08 459.08" style="enable-background:new 0 0 459.08 459.08;" xml:space="preserve">
<g>
	<g>
		<path d="M417.31,123.98c0,9.07-5.72,16.8-13.74,19.84v79.82c0,12.88-5.02,25-14.12,34.1l-52.85,52.85v113
			c0,19.57-15.92,35.49-35.49,35.49H114.79c-19.56,0-35.48-15.92-35.48-35.49V271.28c-23.45-28.66-37.54-65.26-37.54-105.09
			C41.77,74.56,116.32,0,207.95,0c91.64,0,166.19,74.56,166.19,166.19c0,39.83-14.09,76.43-37.54,105.09v18.1l42.24-42.24
			c6.27-6.28,9.73-14.62,9.73-23.5v-79.82c-8.01-3.04-13.74-10.77-13.74-19.84c0-11.71,9.53-21.24,21.24-21.24
			C407.78,102.74,417.31,112.27,417.31,123.98z M402.31,123.98c0-3.44-2.8-6.24-6.24-6.24s-6.24,2.8-6.24,6.24
			c0,3.44,2.8,6.24,6.24,6.24S402.31,127.42,402.31,123.98z M321.6,423.59V287.33c-21.45,20.13-48.22,34.64-77.95,41.17v46.85
			l17.56,17.56c2.35-1.01,4.93-1.58,7.64-1.58c10.67,0,19.35,8.68,19.35,19.35c0,10.67-8.68,19.35-19.35,19.35
			c-10.67,0-19.35-8.68-19.35-19.35c0-2.45,0.48-4.79,1.32-6.95l-19.97-19.97c-1.41-1.41-2.2-3.31-2.2-5.3v-47.37
			c-4.35,0.54-8.75,0.91-13.19,1.11v71.47c6.95,2.94,11.84,9.83,11.84,17.84c0,10.66-8.68,19.34-19.35,19.34
			c-10.66,0-19.34-8.68-19.34-19.34c0-8.02,4.89-14.9,11.85-17.84V332.2c-4.45-0.2-8.85-0.57-13.2-1.11v28.09
			c0,1.99-0.79,3.9-2.2,5.31l-19.97,19.97c0.84,2.16,1.31,4.5,1.31,6.95c0,10.67-8.68,19.35-19.34,19.35
			c-10.67,0-19.35-8.68-19.35-19.35c0-10.67,8.68-19.35,19.35-19.35c2.71,0,5.29,0.57,7.63,1.58l17.57-17.56v-27.57
			c-29.73-6.54-56.51-21.05-77.95-41.18v136.26c0,11.3,9.19,20.49,20.48,20.49h186.32C312.41,444.08,321.6,434.89,321.6,423.59z
			 M359.14,166.19C359.14,82.83,291.32,15,207.95,15C124.59,15,56.77,82.83,56.77,166.19c0,83.37,67.82,151.19,151.18,151.19
			C291.32,317.38,359.14,249.56,359.14,166.19z M273.2,410.68c0-2.4-1.95-4.35-4.35-4.35s-4.35,1.95-4.35,4.35s1.95,4.35,4.35,4.35
			S273.2,413.08,273.2,410.68z M212.3,421.51c0-2.4-1.95-4.35-4.35-4.35c-2.39,0-4.34,1.95-4.34,4.35c0,2.39,1.95,4.34,4.34,4.34
			C210.35,425.85,212.3,423.9,212.3,421.51z M151.4,391.41c0-2.4-1.95-4.35-4.34-4.35c-2.4,0-4.35,1.95-4.35,4.35
			s1.95,4.35,4.35,4.35C149.45,395.76,151.4,393.81,151.4,391.41z"/>
		<path style="fill:#3DD0F2;" d="M396.07,117.74c3.44,0,6.24,2.8,6.24,6.24c0,3.44-2.8,6.24-6.24,6.24s-6.24-2.8-6.24-6.24
			C389.83,120.54,392.63,117.74,396.07,117.74z"/>
		<path d="M346.65,166.19c0,4.14-3.35,7.5-7.5,7.5c-4.14,0-7.5-3.36-7.5-7.5c0-52.78-33.56-99.8-83.52-117
			c-3.91-1.35-5.99-5.62-4.64-9.53c1.34-3.92,5.61-6,9.53-4.65C309.02,54.3,346.65,107.02,346.65,166.19z"/>
		<path style="fill:#F48C6C;" d="M207.95,15c83.37,0,151.19,67.83,151.19,151.19c0,83.37-67.82,151.19-151.19,151.19
			c-83.36,0-151.18-67.82-151.18-151.19C56.77,82.83,124.59,15,207.95,15z M339.15,173.69c4.15,0,7.5-3.36,7.5-7.5
			c0-59.17-37.63-111.89-93.63-131.18c-3.92-1.35-8.19,0.73-9.53,4.65c-1.35,3.91,0.73,8.18,4.64,9.53
			c49.96,17.2,83.52,64.22,83.52,117C331.65,170.33,335.01,173.69,339.15,173.69z M250.37,166.19c0-23.39-19.03-42.41-42.42-42.41
			c-23.38,0-42.41,19.02-42.41,42.41s19.03,42.41,42.41,42.41C231.34,208.6,250.37,189.58,250.37,166.19z M235.92,37.77
			c0.64-4.09-2.15-7.93-6.24-8.58c-7.14-1.13-14.45-1.7-21.73-1.7c-4.14,0-7.5,3.36-7.5,7.5s3.36,7.5,7.5,7.5
			c6.5,0,13.02,0.51,19.39,1.52c0.39,0.06,0.79,0.09,1.18,0.09C232.14,44.1,235.33,41.47,235.92,37.77z M215.45,297.39
			c0-4.14-3.35-7.5-7.5-7.5c-5.97,0-11.97-0.43-17.83-1.28c-4.1-0.6-7.91,2.25-8.5,6.35c-0.6,4.09,2.24,7.9,6.34,8.49
			c6.58,0.96,13.31,1.44,19.99,1.44C212.1,304.89,215.45,301.53,215.45,297.39z M166.81,291.01c1.53-3.85-0.36-8.21-4.21-9.73
			c-35.19-13.92-62.59-43.85-73.3-80.06c-1.17-3.97-5.34-6.24-9.32-5.06c-3.97,1.17-6.24,5.34-5.06,9.32
			c12.01,40.6,42.72,74.15,82.16,89.75c0.91,0.36,1.84,0.53,2.76,0.53C162.82,295.76,165.65,293.96,166.81,291.01z M78.5,188.86
			c4.11-0.48,7.06-4.2,6.58-8.32c-0.55-4.73-0.83-9.56-0.83-14.35c0-4.14-3.35-7.5-7.5-7.5c-4.14,0-7.5,3.36-7.5,7.5
			c0,5.37,0.32,10.78,0.93,16.08c0.44,3.82,3.69,6.64,7.44,6.64C77.91,188.91,78.2,188.89,78.5,188.86z"/>
		<circle style="fill:#3DD0F2;" cx="268.85" cy="410.68" r="4.35"/>
		<path d="M207.95,123.78c23.39,0,42.42,19.02,42.42,42.41s-19.03,42.41-42.42,42.41c-23.38,0-42.41-19.02-42.41-42.41
			S184.57,123.78,207.95,123.78z M235.37,166.19c0-15.11-12.3-27.41-27.42-27.41c-15.11,0-27.41,12.3-27.41,27.41
			c0,15.12,12.3,27.41,27.41,27.41C223.07,193.6,235.37,181.31,235.37,166.19z"/>
		<path d="M207.95,289.89c4.15,0,7.5,3.36,7.5,7.5c0,4.14-3.35,7.5-7.5,7.5c-6.68,0-13.41-0.48-19.99-1.44
			c-4.1-0.59-6.94-4.4-6.34-8.49c0.59-4.1,4.4-6.95,8.5-6.35C195.98,289.46,201.98,289.89,207.95,289.89z"/>
		<path style="fill:#3DD0F2;" d="M207.95,417.16c2.4,0,4.35,1.95,4.35,4.35c0,2.39-1.95,4.34-4.35,4.34c-2.39,0-4.34-1.95-4.34-4.34
			C203.61,419.11,205.56,417.16,207.95,417.16z"/>
		<path d="M162.6,281.28c3.85,1.52,5.74,5.88,4.21,9.73c-1.16,2.95-3.99,4.75-6.97,4.75c-0.92,0-1.85-0.17-2.76-0.53
			c-39.44-15.6-70.15-49.15-82.16-89.75c-1.18-3.98,1.09-8.15,5.06-9.32c3.98-1.18,8.15,1.09,9.32,5.06
			C100.01,237.43,127.41,267.36,162.6,281.28z"/>
		<path style="fill:#3DD0F2;" d="M147.06,387.06c2.39,0,4.34,1.95,4.34,4.35s-1.95,4.35-4.34,4.35c-2.4,0-4.35-1.95-4.35-4.35
			S144.66,387.06,147.06,387.06z"/>
		<path d="M85.08,180.54c0.48,4.12-2.47,7.84-6.58,8.32c-0.3,0.03-0.59,0.05-0.88,0.05c-3.75,0-7-2.82-7.44-6.64
			c-0.61-5.3-0.93-10.71-0.93-16.08c0-4.14,3.36-7.5,7.5-7.5c4.15,0,7.5,3.36,7.5,7.5C84.25,170.98,84.53,175.81,85.08,180.54z"/>
	</g>
	<path d="M229.68,29.19c4.09,0.65,6.88,4.49,6.24,8.58c-0.59,3.7-3.78,6.33-7.4,6.33c-0.39,0-0.79-0.03-1.18-0.09
		c-6.37-1.01-12.89-1.52-19.39-1.52c-4.14,0-7.5-3.36-7.5-7.5s3.36-7.5,7.5-7.5C215.23,27.49,222.54,28.06,229.68,29.19z"/>
</g>
<g>
</g>
<g>
</g>
<g>
</g>
<g>
</g>
<g>
</g>
<g>
</g>
<g>
</g>
<g>
</g>
<g>
</g>
<g>
</g>
<g>
</g>
<g>
</g>
<g>
</g>
<g>
</g>
<g>
</g>
</svg>
