<?xml version="1.0" encoding="iso-8859-1"?>
<!-- Generator: Adobe Illustrator 19.1.0, SVG Export Plug-In . SVG Version: 6.00 Build 0)  -->
<svg version="1.1" id="Capa_1" xmlns="http://www.w3.org/2000/svg" xmlns:xlink="http://www.w3.org/1999/xlink" x="0px" y="0px"
	 viewBox="0 0 386.815 386.815" style="enable-background:new 0 0 386.815 386.815;" xml:space="preserve">
<g>
	<path d="M364.282,115.285v142.46c0,35.03-18.08,67.85-47.46,86.68v34.89c0,4.14-3.36,7.5-7.5,7.5h-153.83c-4.14,0-7.5-3.36-7.5-7.5
		v-34.89c-21.88-14.02-37.48-35.8-44.03-60.47h-3.97c-42.71,0-77.46-34.75-77.46-77.46v-30.21c0-17.92,14.58-32.5,32.5-32.5h45.5
		v-28.5c0-4.14,3.36-7.5,7.5-7.5h248.75C360.922,107.785,364.282,111.145,364.282,115.285z M349.282,257.745v-134.96h-233.75v134.96
		c0,31.17,16.76,60.29,43.74,76c2.3,1.34,3.72,3.81,3.72,6.48v31.59h31.29v-101.77l-18.86-18.86c-2.49,1.12-5.24,1.76-8.14,1.76
		c-11.03,0-20-8.98-20-20c0-11.03,8.97-20,20-20s20,8.97,20,20c0,2.63-0.52,5.13-1.45,7.44l21.25,21.25c1.41,1.4,2.2,3.31,2.2,5.3
		v104.88h15.63v-171.5c-7.32-2.98-12.5-10.15-12.5-18.53c0-11.03,8.97-20,20-20s20,8.97,20,20c0,8.38-5.18,15.55-12.5,18.53v171.5
		h15.63v-78.53c0-1.99,0.79-3.9,2.19-5.3l21.25-21.25c-0.92-2.31-1.45-4.82-1.45-7.45c0-11.03,8.97-20,20-20c11.03,0,20,8.97,20,20
		s-8.97,20-20,20c-2.9,0-5.65-0.63-8.14-1.75l-18.85,18.86v75.42h31.28v-31.59c0-2.67,1.42-5.14,3.73-6.48
		C332.522,318.035,349.282,288.915,349.282,257.745z M302.532,259.285c0-2.75-2.24-5-5-5c-2.75,0-5,2.25-5,5c0,2.76,2.25,5,5,5
		C300.292,264.285,302.532,262.045,302.532,259.285z M237.412,181.785c0-2.76-2.25-5-5-5c-2.76,0-5,2.24-5,5c0,2.76,2.24,5,5,5
		C235.162,186.785,237.412,184.545,237.412,181.785z M172.282,232.945c0-2.76-2.24-5-5-5s-5,2.24-5,5c0,2.75,2.24,5,5,5
		S172.282,235.695,172.282,232.945z M99.992,268.955h1.17c-0.41-3.7-0.63-7.44-0.63-11.21v-98.96h-45.5c-9.65,0-17.5,7.85-17.5,17.5
		v30.21C37.532,240.935,65.552,268.955,99.992,268.955z"/>
	<path style="fill:#3DD0F2;" d="M349.282,122.785v134.96c0,31.17-16.76,60.29-43.73,76c-2.31,1.34-3.73,3.81-3.73,6.48v31.59h-31.28
		v-75.42l18.85-18.86c2.49,1.12,5.24,1.75,8.14,1.75c11.03,0,20-8.97,20-20s-8.97-20-20-20c-11.03,0-20,8.97-20,20
		c0,2.63,0.53,5.14,1.45,7.45l-21.25,21.25c-1.4,1.4-2.19,3.31-2.19,5.3v78.53h-15.63v-171.5c7.32-2.98,12.5-10.15,12.5-18.53
		c0-11.03-8.97-20-20-20s-20,8.97-20,20c0,8.38,5.18,15.55,12.5,18.53v171.5h-15.63v-104.88c0-1.99-0.79-3.9-2.2-5.3l-21.25-21.25
		c0.93-2.31,1.45-4.81,1.45-7.44c0-11.03-8.97-20-20-20s-20,8.97-20,20c0,11.02,8.97,20,20,20c2.9,0,5.65-0.64,8.14-1.76
		l18.86,18.86v101.77h-31.29v-31.59c0-2.67-1.42-5.14-3.72-6.48c-26.98-15.71-43.74-44.83-43.74-76v-134.96H349.282z"/>
	<path d="M312.712,33.225c2.68,3.83,6.36,9.07,6.36,18.56s-3.68,14.73-6.36,18.56c-1,1.41-1.86,2.64-2.47,3.95
		c-1.28,2.72-3.98,4.31-6.8,4.31c-1.06,0-2.15-0.22-3.18-0.71c-3.75-1.76-5.36-6.23-3.6-9.98c1.17-2.48,2.55-4.45,3.77-6.19
		c2.27-3.23,3.64-5.18,3.64-9.94c0-4.75-1.37-6.71-3.64-9.94c-2.69-3.83-6.36-9.06-6.36-18.56c0-9.49,3.67-14.73,6.36-18.55
		c0.33-0.47,0.66-0.94,0.98-1.42c2.32-3.44,6.98-4.35,10.41-2.03c3.44,2.31,4.35,6.97,2.03,10.41c-0.38,0.56-0.76,1.1-1.15,1.65
		c-2.26,3.24-3.63,5.19-3.63,9.94C309.072,28.045,310.442,29.995,312.712,33.225z"/>
	<path d="M238.552,33.225c2.68,3.83,6.36,9.07,6.36,18.56c0,9.5-3.68,14.73-6.36,18.56c-1,1.42-1.86,2.64-2.47,3.95
		c-1.28,2.72-3.98,4.31-6.8,4.31c-1.06,0-2.15-0.22-3.18-0.71c-3.75-1.76-5.36-6.23-3.6-9.98c1.17-2.48,2.55-4.45,3.77-6.19
		c2.27-3.23,3.64-5.18,3.64-9.94c0-4.75-1.37-6.71-3.64-9.94c-2.69-3.83-6.36-9.06-6.36-18.56c0-9.49,3.67-14.73,6.36-18.55
		c0.33-0.48,0.66-0.95,0.98-1.42c2.32-3.44,6.98-4.35,10.41-2.03c3.44,2.31,4.35,6.97,2.03,10.41c-0.38,0.56-0.76,1.1-1.14,1.65
		c-2.27,3.24-3.64,5.19-3.64,9.94C234.912,28.045,236.282,29.995,238.552,33.225z"/>
	<path d="M164.392,33.225c2.68,3.83,6.36,9.07,6.36,18.56s-3.68,14.73-6.36,18.56c-1,1.42-1.86,2.64-2.47,3.95
		c-1.28,2.72-3.98,4.31-6.8,4.31c-1.06,0-2.15-0.22-3.18-0.71c-3.75-1.76-5.36-6.23-3.6-9.98c1.17-2.48,2.55-4.45,3.77-6.19
		c2.27-3.23,3.64-5.18,3.64-9.94c0-4.75-1.37-6.71-3.64-9.94c-2.69-3.83-6.36-9.06-6.36-18.56c0-9.49,3.67-14.73,6.36-18.56
		c0.33-0.47,0.66-0.94,0.98-1.42c2.32-3.43,6.98-4.34,10.41-2.02c3.44,2.31,4.35,6.97,2.03,10.41c-0.37,0.56-0.76,1.1-1.14,1.65
		c-2.27,3.23-3.64,5.19-3.64,9.94C160.752,28.045,162.122,29.995,164.392,33.225z"/>
</g>
<g>
</g>
<g>
</g>
<g>
</g>
<g>
</g>
<g>
</g>
<g>
</g>
<g>
</g>
<g>
</g>
<g>
</g>
<g>
</g>
<g>
</g>
<g>
</g>
<g>
</g>
<g>
</g>
<g>
</g>
</svg>
