<?xml version="1.0" encoding="iso-8859-1"?>
<!-- Generator: Adobe Illustrator 19.1.0, SVG Export Plug-In . SVG Version: 6.00 Build 0)  -->
<svg version="1.1" id="Capa_1" xmlns="http://www.w3.org/2000/svg" xmlns:xlink="http://www.w3.org/1999/xlink" x="0px" y="0px"
	 viewBox="0 0 428 428" style="enable-background:new 0 0 428 428;" xml:space="preserve">
<g>
	<path d="M413.223,180.38c2.28,2.1,3.04,5.37,1.92,8.25c-1.13,2.88-3.9,4.78-6.99,4.78h-45.01V420.5c0,4.14-3.36,7.5-7.5,7.5H72.353
		c-4.14,0-7.5-3.36-7.5-7.5V193.41h-45c-3.1,0-5.87-1.9-6.99-4.78c-1.13-2.88-0.37-6.15,1.91-8.25l194.15-178.4
		c2.87-2.64,7.28-2.64,10.15,0L413.223,180.38z M355.643,178.41h33.26l-174.9-160.72L39.093,178.41h33.26c4.14,0,7.5,3.35,7.5,7.5
		V413h268.29V185.91C348.143,181.76,351.503,178.41,355.643,178.41z"/>
	<path d="M294.483,123.67V390.5c0,4.14-3.35,7.5-7.5,7.5h-145.97c-4.14,0-7.5-3.36-7.5-7.5V123.67c0-4.14,3.36-7.5,7.5-7.5h28.61
		V95.02c0-4.15,3.36-7.5,7.5-7.5h73.75c4.15,0,7.5,3.35,7.5,7.5v21.15h28.61C291.133,116.17,294.483,119.53,294.483,123.67z
		 M279.483,383V131.17h-130.97V383H279.483z M243.373,116.17v-13.65h-58.75v13.65H243.373z"/>
	<path d="M268.323,149.83v214.51c0,4.14-3.36,7.5-7.5,7.5h-93.65c-4.14,0-7.5-3.36-7.5-7.5V149.83c0-4.14,3.36-7.5,7.5-7.5h93.65
		C264.963,142.33,268.323,145.69,268.323,149.83z M253.323,356.84V157.33h-78.65v199.51H253.323z"/>
	<path style="fill:#F48C6C;" d="M253.323,157.33v199.51h-78.65V157.33H253.323z M229.153,261.86c0.58-2.24,0.09-4.63-1.33-6.47
		c-1.42-1.83-3.61-2.91-5.93-2.91h-7.66l11.38-43.62c1.04-4.01-1.36-8.11-5.36-9.15c-4.01-1.05-8.11,1.36-9.16,5.36l-13.82,53.02
		c-0.59,2.25-0.1,4.64,1.32,6.48c1.42,1.83,3.61,2.91,5.93,2.91h7.68l-9.82,37.84c-1.04,4.01,1.37,8.11,5.38,9.15
		c0.63,0.16,1.26,0.24,1.89,0.24c3.33,0,6.38-2.24,7.25-5.62L229.153,261.86z"/>
	<rect x="184.623" y="102.52" style="fill:#F48C6C;" width="58.75" height="13.65"/>
	<path d="M227.823,255.39c1.42,1.84,1.91,4.23,1.33,6.47l-12.25,47.23c-0.87,3.38-3.92,5.62-7.25,5.62c-0.63,0-1.26-0.08-1.89-0.24
		c-4.01-1.04-6.42-5.14-5.38-9.15l9.82-37.84h-7.68c-2.32,0-4.51-1.08-5.93-2.91c-1.42-1.84-1.91-4.23-1.32-6.48l13.82-53.02
		c1.05-4,5.15-6.41,9.16-5.36c4,1.04,6.4,5.14,5.36,9.15l-11.38,43.62h7.66C224.213,252.48,226.403,253.56,227.823,255.39z"/>
</g>
<g>
</g>
<g>
</g>
<g>
</g>
<g>
</g>
<g>
</g>
<g>
</g>
<g>
</g>
<g>
</g>
<g>
</g>
<g>
</g>
<g>
</g>
<g>
</g>
<g>
</g>
<g>
</g>
<g>
</g>
</svg>
