<?xml version="1.0" encoding="iso-8859-1"?>
<!-- Generator: Adobe Illustrator 19.1.0, SVG Export Plug-In . SVG Version: 6.00 Build 0)  -->
<svg version="1.1" id="Capa_1" xmlns="http://www.w3.org/2000/svg" xmlns:xlink="http://www.w3.org/1999/xlink" x="0px" y="0px"
	 viewBox="0 0 421 421" style="enable-background:new 0 0 421 421;" xml:space="preserve">
<g>
	<path d="M342.325,182.52V413.5c0,4.14-3.36,7.5-7.5,7.5H86.175c-4.14,0-7.5-3.36-7.5-7.5V182.52c0-4.15,3.36-7.5,7.5-7.5h19.62
		v-70.31C105.795,46.97,152.765,0,210.505,0c57.73,0,104.71,46.97,104.71,104.71v70.31h19.61
		C338.965,175.02,342.325,178.37,342.325,182.52z M327.325,406V190.02H93.675V406h60.23v-52.89l-20.41-20.4
		c-2.2,0.83-4.57,1.31-7.06,1.31c-11.03,0-20-8.97-20-20s8.97-20,20-20s20,8.97,20,20c0,3.04-0.7,5.91-1.92,8.49l22.19,22.19
		c1.41,1.4,2.2,3.31,2.2,5.3v56h17.5V266.9l-13.66-13.67c-2.06,0.72-4.26,1.13-6.56,1.13c-11.02,0-20-8.97-20-20s8.98-20,20-20
		c11.03,0,20,8.97,20,20c0,3.22-0.78,6.26-2.14,8.96l15.16,15.17c1.41,1.41,2.2,3.31,2.2,5.3V406h18.2V304c0-1.99,0.79-3.9,2.19-5.3
		l16.26-16.26c-0.93-2.3-1.45-4.81-1.45-7.44c0-11.03,8.97-20,20-20c11.02,0,20,8.97,20,20s-8.98,20-20,20
		c-2.9,0-5.66-0.63-8.15-1.75l-13.85,13.86V406h17.5v-16c0-1.99,0.79-3.9,2.19-5.3l22.19-22.19c-1.22-2.58-1.92-5.45-1.92-8.49
		c0-11.03,8.97-20,20-20s20,8.97,20,20s-8.97,20-20,20c-2.49,0-4.86-0.48-7.06-1.31l-20.4,20.4V406H327.325z M300.215,175.02v-70.31
		c0-49.47-40.25-89.71-89.71-89.71c-49.47,0-89.71,40.24-89.71,89.71v70.31h24v-70.31c0-36.23,29.47-65.71,65.71-65.71
		c36.23,0,65.71,29.48,65.71,65.71v70.31H300.215z M299.565,354.02c0-2.76-2.24-5-5-5s-5,2.24-5,5c0,2.75,2.24,5,5,5
		S299.565,356.77,299.565,354.02z M261.215,175.02v-70.31c0-27.96-22.75-50.71-50.71-50.71s-50.71,22.75-50.71,50.71v70.31H261.215z
		 M261.605,275c0-2.76-2.25-5-5-5c-2.76,0-5,2.24-5,5s2.24,5,5,5C259.355,280,261.605,277.76,261.605,275z M171.185,234.36
		c0-2.76-2.24-5-5-5c-2.75,0-5,2.24-5,5s2.25,5,5,5C168.945,239.36,171.185,237.12,171.185,234.36z M131.435,314.02
		c0-2.76-2.24-5-5-5c-2.75,0-5,2.24-5,5c0,2.75,2.25,5,5,5C129.195,319.02,131.435,316.77,131.435,314.02z"/>
	<path style="fill:#F48C6C;" d="M327.325,190.02V406h-60.22v-12.89l20.4-20.4c2.2,0.83,4.57,1.31,7.06,1.31c11.03,0,20-8.97,20-20
		s-8.97-20-20-20s-20,8.97-20,20c0,3.04,0.7,5.91,1.92,8.49l-22.19,22.19c-1.4,1.4-2.19,3.31-2.19,5.3v16h-17.5v-98.89l13.85-13.86
		c2.49,1.12,5.25,1.75,8.15,1.75c11.02,0,20-8.97,20-20s-8.98-20-20-20c-11.03,0-20,8.97-20,20c0,2.63,0.52,5.14,1.45,7.44
		l-16.26,16.26c-1.4,1.4-2.19,3.31-2.19,5.3v102h-18.2V263.79c0-1.99-0.79-3.89-2.2-5.3l-15.16-15.17c1.36-2.7,2.14-5.74,2.14-8.96
		c0-11.03-8.97-20-20-20c-11.02,0-20,8.97-20,20s8.98,20,20,20c2.3,0,4.5-0.41,6.56-1.13l13.66,13.67V406h-17.5v-56
		c0-1.99-0.79-3.9-2.2-5.3l-22.19-22.19c1.22-2.58,1.92-5.45,1.92-8.49c0-11.03-8.97-20-20-20s-20,8.97-20,20s8.97,20,20,20
		c2.49,0,4.86-0.48,7.06-1.31l20.41,20.4V406h-60.23V190.02H327.325z"/>
</g>
<g>
</g>
<g>
</g>
<g>
</g>
<g>
</g>
<g>
</g>
<g>
</g>
<g>
</g>
<g>
</g>
<g>
</g>
<g>
</g>
<g>
</g>
<g>
</g>
<g>
</g>
<g>
</g>
<g>
</g>
</svg>
