<?xml version="1.0" encoding="iso-8859-1"?>
<!-- Generator: Adobe Illustrator 19.1.0, SVG Export Plug-In . SVG Version: 6.00 Build 0)  -->
<svg version="1.1" id="Capa_1" xmlns="http://www.w3.org/2000/svg" xmlns:xlink="http://www.w3.org/1999/xlink" x="0px" y="0px"
	 viewBox="0 0 415.03 415.03" style="enable-background:new 0 0 415.03 415.03;" xml:space="preserve">
<g>
	<path d="M407.53,132.775c4.14,0,7.5,3.36,7.5,7.5s-3.36,7.5-7.5,7.5h-33.22v202.71c0,18.99-15.44,34.43-34.43,34.43H75.15
		c-18.98,0-34.43-15.44-34.43-34.43v-202.71H7.5c-4.14,0-7.5-3.36-7.5-7.5s3.36-7.5,7.5-7.5h33.22v-38.01c0-4.15,3.36-7.5,7.5-7.5
		h318.59c4.14,0,7.5,3.35,7.5,7.5v38.01H407.53z M359.31,350.485v-248.22H55.72v95.69h95.69l18.85-18.85
		c-1.11-2.49-1.75-5.24-1.75-8.14c0-11.03,8.98-20,20-20c11.03,0,20,8.97,20,20c0,11.02-8.97,20-20,20c-2.63,0-5.14-0.53-7.44-1.45
		l-21.25,21.25c-1.41,1.4-3.31,2.19-5.3,2.19h-98.8v15.63h169.27c2.97-7.32,10.15-12.5,18.52-12.5c11.03,0,20,8.97,20,20
		c0,11.03-8.97,20-20,20c-8.37,0-15.55-5.18-18.52-12.5H55.72v15.63h30.15c1.99,0,3.9,0.79,5.31,2.2l21.25,21.25
		c2.3-0.93,4.81-1.45,7.44-1.45c11.03,0,20,8.97,20,20s-8.97,20-20,20c-11.02,0-20-8.97-20-20c0-2.9,0.64-5.65,1.75-8.14
		l-18.85-18.86H55.72v76.27c0,10.72,8.72,19.43,19.43,19.43h264.73C350.59,369.915,359.31,361.205,359.31,350.485z M248.51,236.085
		c0-2.75-2.24-5-5-5c-2.75,0-5,2.25-5,5c0,2.76,2.25,5,5,5C246.27,241.085,248.51,238.845,248.51,236.085z M193.51,170.965
		c0-2.76-2.24-5-5-5c-2.75,0-5,2.24-5,5c0,2.75,2.25,5,5,5C191.27,175.965,193.51,173.715,193.51,170.965z M124.87,301.215
		c0-2.76-2.24-5-5-5c-2.75,0-5,2.24-5,5s2.25,5,5,5C122.63,306.215,124.87,303.975,124.87,301.215z"/>
	<path d="M366.81,61.255c4.14,0,7.5,3.36,7.5,7.5s-3.36,7.5-7.5,7.5H48.22c-4.14,0-7.5-3.36-7.5-7.5s3.36-7.5,7.5-7.5h151.8v-23.64
		c0-4.14,3.35-7.5,7.5-7.5c4.14,0,7.5,3.36,7.5,7.5v23.64H366.81z"/>
	<path style="fill:#F48C6C;" d="M359.31,102.265v248.22c0,10.72-8.72,19.43-19.43,19.43H75.15c-10.71,0-19.43-8.71-19.43-19.43
		v-76.27h27.05l18.85,18.86c-1.11,2.49-1.75,5.24-1.75,8.14c0,11.03,8.98,20,20,20c11.03,0,20-8.97,20-20s-8.97-20-20-20
		c-2.63,0-5.14,0.52-7.44,1.45l-21.25-21.25c-1.41-1.41-3.32-2.2-5.31-2.2H55.72v-15.63h169.27c2.97,7.32,10.15,12.5,18.52,12.5
		c11.03,0,20-8.97,20-20c0-11.03-8.97-20-20-20c-8.37,0-15.55,5.18-18.52,12.5H55.72v-15.63h98.8c1.99,0,3.89-0.79,5.3-2.19
		l21.25-21.25c2.3,0.92,4.81,1.45,7.44,1.45c11.03,0,20-8.98,20-20c0-11.03-8.97-20-20-20c-11.02,0-20,8.97-20,20
		c0,2.9,0.64,5.65,1.75,8.14l-18.85,18.85H55.72v-95.69H359.31z M342.89,342.665v-142.09c0-4.14-3.35-7.5-7.5-7.5
		c-4.14,0-7.5,3.36-7.5,7.5v142.09c0,4.14,3.36,7.5,7.5,7.5C339.54,350.165,342.89,346.805,342.89,342.665z M342.89,163.415v-37.16
		c0-4.14-3.35-7.5-7.5-7.5c-4.14,0-7.5,3.36-7.5,7.5v37.16c0,4.14,3.36,7.5,7.5,7.5C339.54,170.915,342.89,167.555,342.89,163.415z"
		/>
	<path d="M342.89,200.575v142.09c0,4.14-3.35,7.5-7.5,7.5c-4.14,0-7.5-3.36-7.5-7.5v-142.09c0-4.14,3.36-7.5,7.5-7.5
		C339.54,193.075,342.89,196.435,342.89,200.575z"/>
	<path d="M342.89,126.255v37.16c0,4.14-3.35,7.5-7.5,7.5c-4.14,0-7.5-3.36-7.5-7.5v-37.16c0-4.14,3.36-7.5,7.5-7.5
		C339.54,118.755,342.89,122.115,342.89,126.255z"/>
</g>
<g>
</g>
<g>
</g>
<g>
</g>
<g>
</g>
<g>
</g>
<g>
</g>
<g>
</g>
<g>
</g>
<g>
</g>
<g>
</g>
<g>
</g>
<g>
</g>
<g>
</g>
<g>
</g>
<g>
</g>
</svg>
