<?xml version="1.0" encoding="iso-8859-1"?>
<!-- Generator: Adobe Illustrator 19.1.0, SVG Export Plug-In . SVG Version: 6.00 Build 0)  -->
<svg version="1.1" id="Capa_1" xmlns="http://www.w3.org/2000/svg" xmlns:xlink="http://www.w3.org/1999/xlink" x="0px" y="0px"
	 viewBox="0 0 469.21 469.21" style="enable-background:new 0 0 469.21 469.21;" xml:space="preserve">
<g>
	<path d="M469.21,125.635v217.94c0,19.68-16.01,35.69-35.69,35.69H35.7c-19.69,0-35.7-16.01-35.7-35.69v-217.94
		c0-19.68,16.01-35.69,35.7-35.69h397.82C453.2,89.945,469.21,105.955,469.21,125.635z M454.21,343.575v-217.94
		c0-11.41-9.28-20.69-20.69-20.69H35.7c-11.42,0-20.7,9.28-20.7,20.69v217.94c0,11.41,9.28,20.69,20.7,20.69h397.82
		C444.93,364.265,454.21,354.985,454.21,343.575z"/>
	<path d="M432.02,278.775v36.97c0,4.15-3.36,7.5-7.5,7.5h-36.98c-4.14,0-7.5-3.35-7.5-7.5v-36.97c0-4.14,3.36-7.5,7.5-7.5h36.98
		C428.66,271.275,432.02,274.635,432.02,278.775z M417.02,308.245v-21.97h-21.98v21.97H417.02z"/>
	<path d="M432.02,216.115v36.98c0,4.14-3.36,7.5-7.5,7.5h-36.98c-4.14,0-7.5-3.36-7.5-7.5v-36.98c0-4.14,3.36-7.5,7.5-7.5h36.98
		C428.66,208.615,432.02,211.975,432.02,216.115z M417.02,245.595v-21.98h-21.98v21.98H417.02z"/>
	<path d="M432.02,153.465v36.97c0,4.15-3.36,7.5-7.5,7.5h-36.98c-4.14,0-7.5-3.35-7.5-7.5v-36.97c0-4.14,3.36-7.5,7.5-7.5h36.98
		C428.66,145.965,432.02,149.325,432.02,153.465z M417.02,182.935v-21.97h-21.98v21.97H417.02z"/>
	<rect x="395.04" y="286.275" style="fill:#3DD0F2;" width="21.98" height="21.97"/>
	<rect x="395.04" y="160.965" style="fill:#F48C6C;" width="21.98" height="21.97"/>
	<path d="M369.36,278.775v36.97c0,4.15-3.35,7.5-7.5,7.5h-36.97c-4.15,0-7.5-3.35-7.5-7.5v-36.97c0-4.14,3.35-7.5,7.5-7.5h36.97
		C366.01,271.275,369.36,274.635,369.36,278.775z M354.36,308.245v-21.97h-21.97v21.97H354.36z"/>
	<path d="M369.36,216.115v36.98c0,4.14-3.35,7.5-7.5,7.5h-36.97c-4.15,0-7.5-3.36-7.5-7.5v-36.98c0-4.14,3.35-7.5,7.5-7.5h36.97
		C366.01,208.615,369.36,211.975,369.36,216.115z M354.36,245.595v-21.98h-21.97v21.98H354.36z"/>
	<path d="M369.36,153.465v36.97c0,4.15-3.35,7.5-7.5,7.5h-36.97c-4.15,0-7.5-3.35-7.5-7.5v-36.97c0-4.14,3.35-7.5,7.5-7.5h36.97
		C366.01,145.965,369.36,149.325,369.36,153.465z M354.36,182.935v-21.97h-21.97v21.97H354.36z"/>
	<path d="M306.71,278.775v36.97c0,4.15-3.36,7.5-7.5,7.5h-36.98c-4.14,0-7.5-3.35-7.5-7.5v-36.97c0-4.14,3.36-7.5,7.5-7.5h36.98
		C303.35,271.275,306.71,274.635,306.71,278.775z M291.71,308.245v-21.97h-21.98v21.97H291.71z"/>
	<path d="M306.71,216.115v36.98c0,4.14-3.36,7.5-7.5,7.5h-36.98c-4.14,0-7.5-3.36-7.5-7.5v-36.98c0-4.14,3.36-7.5,7.5-7.5h36.98
		C303.35,208.615,306.71,211.975,306.71,216.115z M291.71,245.595v-21.98h-21.98v21.98H291.71z"/>
	<path d="M306.71,153.465v36.97c0,4.15-3.36,7.5-7.5,7.5h-36.98c-4.14,0-7.5-3.35-7.5-7.5v-36.97c0-4.14,3.36-7.5,7.5-7.5h36.98
		C303.35,145.965,306.71,149.325,306.71,153.465z M291.71,182.935v-21.97h-21.98v21.97H291.71z"/>
	<rect x="269.73" y="160.965" style="fill:#F48C6C;" width="21.98" height="21.97"/>
	<path d="M238.11,161.975v145.26c0,20.96-17.05,38.01-38,38.01H73.99c-20.96,0-38.01-17.05-38.01-38.01v-145.26
		c0-20.96,17.05-38.01,38.01-38.01h126.12C221.06,123.965,238.11,141.015,238.11,161.975z M223.11,307.235v-145.26
		c0-12.68-10.32-23.01-23-23.01H73.99c-12.69,0-23.01,10.33-23.01,23.01v145.26c0,12.69,10.32,23.01,23.01,23.01h126.12
		C212.79,330.245,223.11,319.925,223.11,307.235z"/>
	<path style="fill:#F48C6C;" d="M223.11,161.975v145.26c0,12.69-10.32,23.01-23,23.01H73.99c-12.69,0-23.01-10.32-23.01-23.01
		v-145.26c0-12.68,10.32-23.01,23.01-23.01h126.12C212.79,138.965,223.11,149.295,223.11,161.975z M212.59,305.715v-142.22
		c0-7.72-6.28-14.01-14-14.01H75.5c-7.72,0-14,6.29-14,14.01v142.22c0,7.73,6.28,14.01,14,14.01h123.09
		C206.31,319.725,212.59,313.445,212.59,305.715z"/>
	<path d="M212.59,163.495v142.22c0,7.73-6.28,14.01-14,14.01H75.5c-7.72,0-14-6.28-14-14.01v-142.22c0-7.72,6.28-14.01,14-14.01
		h123.09C206.31,149.485,212.59,155.775,212.59,163.495z M197.59,304.725v-140.24H76.5v140.24H197.59z"/>
	<path style="fill:#3DD0F2;" d="M197.59,164.485v140.24H76.5v-140.24H197.59z M182.42,231.775c1.12-2.88,0.36-6.15-1.92-8.25
		l-38.38-35.27c-2.87-2.63-7.28-2.63-10.15,0l-38.38,35.27c-2.28,2.1-3.04,5.37-1.92,8.25c1.13,2.88,3.9,4.78,6.99,4.78h2.88v38.88
		c0,4.14,3.36,7.5,7.5,7.5h56.01c4.14,0,7.5-3.36,7.5-7.5v-38.88h2.88C178.52,236.555,181.3,234.655,182.42,231.775z"/>
	<path d="M180.5,223.525c2.28,2.1,3.04,5.37,1.92,8.25c-1.12,2.88-3.9,4.78-6.99,4.78h-2.88v38.88c0,4.14-3.36,7.5-7.5,7.5h-56.01
		c-4.14,0-7.5-3.36-7.5-7.5v-38.88h-2.88c-3.09,0-5.86-1.9-6.99-4.78c-1.12-2.88-0.36-6.15,1.92-8.25l38.38-35.27
		c2.87-2.63,7.28-2.63,10.15,0L180.5,223.525z M157.55,267.935v-31.38h-41.01v31.38H157.55z M117.91,221.555h38.27l-19.13-17.59
		L117.91,221.555z"/>
</g>
<g>
</g>
<g>
</g>
<g>
</g>
<g>
</g>
<g>
</g>
<g>
</g>
<g>
</g>
<g>
</g>
<g>
</g>
<g>
</g>
<g>
</g>
<g>
</g>
<g>
</g>
<g>
</g>
<g>
</g>
</svg>
