<?xml version="1.0" encoding="iso-8859-1"?>
<!-- Generator: Adobe Illustrator 19.1.0, SVG Export Plug-In . SVG Version: 6.00 Build 0)  -->
<svg version="1.1" id="Capa_1" xmlns="http://www.w3.org/2000/svg" xmlns:xlink="http://www.w3.org/1999/xlink" x="0px" y="0px"
	 viewBox="0 0 429.8 429.8" style="enable-background:new 0 0 429.8 429.8;" xml:space="preserve">
<g>
	<path d="M429.8,121.912l-0.06,40.68c0,1.99-0.8,3.89-2.21,5.3c-1.29,1.29-3,2.05-4.81,2.16v24.05c0,4.14-3.36,7.5-7.5,7.5h-40.67
		c-4.15,0-7.5-3.36-7.5-7.5v-24.1l-245.56-0.35v48.53l18.86,18.86c2.49-1.12,5.25-1.75,8.15-1.75c11.03,0,20,8.97,20,20
		c0,11.03-8.97,20-20,20s-20-8.97-20-20c0-2.63,0.52-5.14,1.45-7.44l-21.26-21.26c-1.41-1.41-2.2-3.32-2.2-5.3v-51.64H91.74v206.1
		c7.33,2.97,12.51,10.15,12.51,18.52c0,11.03-8.97,20-20,20s-20-8.97-20-20c0-8.37,5.18-15.55,12.49-18.52v-206.1H61.99v118.13
		c0,1.99-0.79,3.9-2.19,5.31l-21.25,21.25c0.92,2.3,1.45,4.81,1.45,7.44c0,11.03-8.97,20-20,20s-20-8.97-20-20s8.97-20,20-20
		c2.9,0,5.65,0.64,8.14,1.75l18.85-18.85v-115.03h-3.73c-4.15,0-7.5-3.36-7.5-7.5v-90.42c0-3.07,1.89-5.96,4.95-7.06l134.96-48.7
		c3.9-1.4,8.2,0.62,9.6,4.51c1.41,3.9-0.61,8.2-4.51,9.6l-48.02,17.33v66.58l289.57,0.41
		C426.45,114.412,429.8,117.772,429.8,121.912z M414.75,154.822l0.04-25.43l-282.01-0.4l-0.03,25.68L414.75,154.822z
		 M407.72,186.602v-16.54l-25.67-0.04v16.58H407.72z M153.5,255.292c0-2.76-2.25-5-5-5c-2.76,0-5,2.24-5,5c0,2.75,2.24,5,5,5
		C151.25,260.292,153.5,258.042,153.5,255.292z M117.74,154.652V52.822l-66.98,24.17v77.66H117.74z M89.25,394.272
		c0-2.75-2.25-5-5-5c-2.76,0-5,2.25-5,5c0,2.76,2.24,5,5,5C87,399.272,89.25,397.032,89.25,394.272z M25,321.782c0-2.76-2.25-5-5-5
		c-2.76,0-5,2.24-5,5c0,2.76,2.24,5,5,5C22.75,326.782,25,324.542,25,321.782z"/>
	<polygon style="fill:#F48C6C;" points="414.79,129.392 414.75,154.822 132.75,154.672 132.78,128.992 	"/>
	<polygon style="fill:#F48C6C;" points="407.72,170.062 407.72,186.602 382.05,186.602 382.05,170.022 	"/>
	<path d="M402.38,352.752v42.53c0,4.14-3.35,7.5-7.5,7.5c-4.14,0-7.5-3.36-7.5-7.5v-42.53c0-4.14,3.36-7.5,7.5-7.5
		C399.03,345.252,402.38,348.612,402.38,352.752z"/>
	<path d="M402.38,225.532v95.79c0,4.14-3.35,7.5-7.5,7.5c-4.14,0-7.5-3.36-7.5-7.5v-95.79c0-4.14,3.36-7.5,7.5-7.5
		C399.03,218.032,402.38,221.392,402.38,225.532z"/>
	<polygon style="fill:#F48C6C;" points="117.74,52.822 117.74,154.652 50.76,154.652 50.76,76.992 	"/>
</g>
<g>
</g>
<g>
</g>
<g>
</g>
<g>
</g>
<g>
</g>
<g>
</g>
<g>
</g>
<g>
</g>
<g>
</g>
<g>
</g>
<g>
</g>
<g>
</g>
<g>
</g>
<g>
</g>
<g>
</g>
</svg>
