<?xml version="1.0" encoding="iso-8859-1"?>
<!-- Generator: Adobe Illustrator 19.1.0, SVG Export Plug-In . SVG Version: 6.00 Build 0)  -->
<svg version="1.1" id="Capa_1" xmlns="http://www.w3.org/2000/svg" xmlns:xlink="http://www.w3.org/1999/xlink" x="0px" y="0px"
	 viewBox="0 0 469.48 469.48" style="enable-background:new 0 0 469.48 469.48;" xml:space="preserve">
<g>
	<path d="M355.485,97.5v89.99c0,4.15-3.36,7.5-7.5,7.5c-30.01,0-54.42,24.42-54.42,54.42v20.58c0,4.14-3.36,7.5-7.5,7.5h-12.32
		v88.74l18.85,18.85c2.49-1.11,5.25-1.75,8.15-1.75c11.03,0,20,8.97,20,20s-8.97,20-20,20s-20-8.97-20-20
		c0-2.63,0.52-5.13,1.45-7.44l-21.25-21.25c-1.41-1.41-2.2-3.31-2.2-5.3v-91.85h-15.63v153.46c7.32,2.97,12.5,10.15,12.5,18.53
		c0,11.03-8.97,20-20,20s-20-8.97-20-20c0-8.38,5.18-15.55,12.5-18.53V277.49h-15.63v65.5c0,1.99-0.79,3.89-2.2,5.3l-21.25,21.25
		c0.93,2.3,1.46,4.81,1.46,7.45c0,11.02-8.98,20-20,20c-11.03,0-20-8.98-20-20c0-11.03,8.97-20,20-20c2.9,0,5.64,0.63,8.13,1.74
		l18.86-18.85v-62.39h-14.07c-4.14,0-7.5-3.36-7.5-7.5v-20.58c0-30-24.41-54.42-54.42-54.42c-4.14,0-7.5-3.35-7.5-7.5V97.5
		c0-4.14,3.36-7.5,7.5-7.5h39.75V23.25c0-12.82,10.43-23.25,23.25-23.25c12.82,0,23.25,10.43,23.25,23.25V90h54V23.25
		c0-12.82,10.42-23.25,23.24-23.25c12.82,0,23.25,10.43,23.25,23.25V90h39.75C352.125,90,355.485,93.36,355.485,97.5z
		 M340.485,180.4V132h-211.49v48.4c34.77,3.75,61.92,33.27,61.92,69.01v13.08h87.65v-13.08
		C278.565,213.67,305.725,184.15,340.485,180.4z M340.485,117v-12h-211.49v12H340.485z M305.745,403.33c0-2.75-2.25-5-5-5
		c-2.76,0-5,2.25-5,5c0,2.76,2.24,5,5,5C303.495,408.33,305.745,406.09,305.745,403.33z M293.235,90V23.25
		c0-4.55-3.7-8.25-8.25-8.25c-4.54,0-8.24,3.7-8.24,8.25V90H293.235z M240.615,449.48c0-2.76-2.24-5-5-5c-2.75,0-5,2.24-5,5
		c0,2.75,2.25,5,5,5C238.375,454.48,240.615,452.23,240.615,449.48z M192.745,90V23.25c0-4.55-3.7-8.25-8.25-8.25
		c-4.55,0-8.25,3.7-8.25,8.25V90H192.745z M175.495,376.99c0-2.76-2.25-5-5-5c-2.76,0-5,2.24-5,5c0,2.75,2.24,5,5,5
		C173.245,381.99,175.495,379.74,175.495,376.99z"/>
	<path style="fill:#3DD0F2;" d="M340.485,132v48.4c-34.76,3.75-61.92,33.27-61.92,69.01v13.08h-87.65v-13.08
		c0-35.74-27.15-65.26-61.92-69.01V132H340.485z M278.245,153c0-4.15-3.36-7.5-7.5-7.5h-72c-4.14,0-7.5,3.35-7.5,7.5
		c0,4.14,3.36,7.5,7.5,7.5h72C274.885,160.5,278.245,157.14,278.245,153z M278.245,177c0-4.15-3.36-7.5-7.5-7.5h-72
		c-4.14,0-7.5,3.35-7.5,7.5c0,4.14,3.36,7.5,7.5,7.5h72C274.885,184.5,278.245,181.14,278.245,177z M278.245,200.99
		c0-4.14-3.36-7.5-7.5-7.5h-72c-4.14,0-7.5,3.36-7.5,7.5c0,4.15,3.36,7.5,7.5,7.5h72C274.885,208.49,278.245,205.14,278.245,200.99z
		"/>
	<path style="fill:#F48C6C;" d="M300.745,398.33c2.75,0,5,2.25,5,5c0,2.76-2.25,5-5,5c-2.76,0-5-2.24-5-5
		C295.745,400.58,297.985,398.33,300.745,398.33z"/>
	<path style="fill:#F48C6C;" d="M293.235,23.25V90h-16.49V23.25c0-4.55,3.7-8.25,8.24-8.25C289.535,15,293.235,18.7,293.235,23.25z"
		/>
	<path d="M270.745,145.5c4.14,0,7.5,3.35,7.5,7.5c0,4.14-3.36,7.5-7.5,7.5h-72c-4.14,0-7.5-3.36-7.5-7.5c0-4.15,3.36-7.5,7.5-7.5
		H270.745z"/>
	<path d="M270.745,169.5c4.14,0,7.5,3.35,7.5,7.5c0,4.14-3.36,7.5-7.5,7.5h-72c-4.14,0-7.5-3.36-7.5-7.5c0-4.15,3.36-7.5,7.5-7.5
		H270.745z"/>
	<path d="M270.745,193.49c4.14,0,7.5,3.36,7.5,7.5c0,4.15-3.36,7.5-7.5,7.5h-72c-4.14,0-7.5-3.35-7.5-7.5c0-4.14,3.36-7.5,7.5-7.5
		H270.745z"/>
	<path style="fill:#F48C6C;" d="M235.615,444.48c2.76,0,5,2.24,5,5c0,2.75-2.24,5-5,5c-2.75,0-5-2.25-5-5
		C230.615,446.72,232.865,444.48,235.615,444.48z"/>
	<path style="fill:#F48C6C;" d="M192.745,23.25V90h-16.5V23.25c0-4.55,3.7-8.25,8.25-8.25C189.045,15,192.745,18.7,192.745,23.25z"
		/>
	<path style="fill:#F48C6C;" d="M170.495,371.99c2.75,0,5,2.24,5,5c0,2.75-2.25,5-5,5c-2.76,0-5-2.25-5-5
		C165.495,374.23,167.735,371.99,170.495,371.99z"/>
</g>
<g>
</g>
<g>
</g>
<g>
</g>
<g>
</g>
<g>
</g>
<g>
</g>
<g>
</g>
<g>
</g>
<g>
</g>
<g>
</g>
<g>
</g>
<g>
</g>
<g>
</g>
<g>
</g>
<g>
</g>
</svg>
