<?xml version="1.0" encoding="iso-8859-1"?>
<!-- Generator: Adobe Illustrator 19.1.0, SVG Export Plug-In . SVG Version: 6.00 Build 0)  -->
<svg version="1.1" id="Capa_1" xmlns="http://www.w3.org/2000/svg" xmlns:xlink="http://www.w3.org/1999/xlink" x="0px" y="0px"
	 viewBox="0 0 399 399" style="enable-background:new 0 0 399 399;" xml:space="preserve">
<g>
	<path d="M310,35.74v327.52c0,19.71-16.04,35.74-35.74,35.74H124.74C105.03,399,89,382.97,89,363.26V35.74
		C89,16.03,105.03,0,124.74,0h149.52C293.96,0,310,16.03,310,35.74z M295,363.26V35.74C295,24.3,285.69,15,274.26,15H124.74
		C113.3,15,104,24.3,104,35.74v327.52c0,11.44,9.3,20.74,20.74,20.74h149.52C285.69,384,295,374.7,295,363.26z"/>
	<path style="fill:#F48C6C;" d="M295,35.74v327.52c0,11.44-9.31,20.74-20.74,20.74H124.74c-11.44,0-20.74-9.3-20.74-20.74V35.74
		C104,24.3,113.3,15,124.74,15h149.52C285.69,15,295,24.3,295,35.74z M283,35c0-1.97-0.8-3.91-2.2-5.3c-1.4-1.4-3.33-2.2-5.3-2.2
		c-1.98,0-3.91,0.8-5.31,2.2C268.8,31.09,268,33.03,268,35c0,1.98,0.8,3.91,2.19,5.3c1.4,1.4,3.33,2.2,5.31,2.2
		c1.97,0,3.9-0.8,5.3-2.2C282.2,38.91,283,36.97,283,35z M283,364c0-1.97-0.8-3.91-2.2-5.3c-1.4-1.4-3.33-2.2-5.3-2.2
		c-1.98,0-3.91,0.8-5.31,2.2c-1.39,1.39-2.19,3.33-2.19,5.3c0,1.98,0.8,3.91,2.19,5.31c1.4,1.39,3.33,2.19,5.31,2.19
		c1.97,0,3.9-0.8,5.3-2.19C282.2,367.91,283,365.98,283,364z M256.08,288.54c0-4.14-3.36-7.5-7.5-7.5h-98.16
		c-4.14,0-7.5,3.36-7.5,7.5c0,4.14,3.36,7.5,7.5,7.5h98.16C252.72,296.04,256.08,292.68,256.08,288.54z M261.06,142
		c0-22.55-12.31-43.27-32.13-54.08c-3.64-1.98-8.19-0.64-10.18,3c-1.98,3.63-0.64,8.19,3,10.17c14.99,8.18,24.31,23.85,24.31,40.91
		c0,25.67-20.89,46.56-46.56,46.56c-25.68,0-46.56-20.89-46.56-46.56c0-17.06,9.31-32.74,24.3-40.91c3.64-1.98,4.98-6.54,3-10.17
		c-1.98-3.64-6.54-4.98-10.17-3c-19.82,10.8-32.13,31.52-32.13,54.08c0,33.94,27.61,61.56,61.56,61.56
		C233.44,203.56,261.06,175.94,261.06,142z M245,257.58c0-4.14-3.36-7.5-7.5-7.5h-76c-4.15,0-7.5,3.36-7.5,7.5
		c0,4.14,3.35,7.5,7.5,7.5h76C241.64,265.08,245,261.72,245,257.58z M245,319.5c0-4.14-3.36-7.5-7.5-7.5h-76
		c-4.15,0-7.5,3.36-7.5,7.5s3.35,7.5,7.5,7.5h76C241.64,327,245,323.64,245,319.5z M207,130.62V85.48c0-4.14-3.36-7.5-7.5-7.5
		c-4.15,0-7.5,3.36-7.5,7.5v45.14c0,4.14,3.35,7.5,7.5,7.5C203.64,138.12,207,134.76,207,130.62z M131,35c0-1.97-0.8-3.91-2.2-5.3
		c-1.4-1.4-3.33-2.2-5.3-2.2c-1.98,0-3.91,0.8-5.31,2.2C116.8,31.09,116,33.03,116,35c0,1.98,0.8,3.91,2.19,5.3
		c1.4,1.4,3.33,2.2,5.31,2.2c1.97,0,3.9-0.8,5.3-2.2C130.2,38.91,131,36.98,131,35z M131,364c0-1.97-0.8-3.91-2.2-5.3
		c-1.4-1.4-3.33-2.2-5.3-2.2c-1.98,0-3.91,0.8-5.31,2.2c-1.39,1.39-2.19,3.32-2.19,5.3s0.8,3.91,2.19,5.31
		c1.4,1.39,3.33,2.19,5.31,2.19c1.97,0,3.9-0.8,5.3-2.19C130.2,367.91,131,365.97,131,364z"/>
	<path d="M280.8,29.7c1.4,1.39,2.2,3.33,2.2,5.3s-0.8,3.91-2.2,5.3c-1.4,1.4-3.33,2.2-5.3,2.2c-1.98,0-3.91-0.8-5.31-2.2
		C268.8,38.91,268,36.98,268,35c0-1.97,0.8-3.91,2.19-5.3c1.4-1.4,3.33-2.2,5.31-2.2C277.47,27.5,279.4,28.3,280.8,29.7z"/>
	<path d="M280.8,358.7c1.4,1.39,2.2,3.33,2.2,5.3c0,1.98-0.8,3.91-2.2,5.31c-1.4,1.39-3.33,2.19-5.3,2.19
		c-1.98,0-3.91-0.8-5.31-2.19c-1.39-1.4-2.19-3.33-2.19-5.31c0-1.97,0.8-3.91,2.19-5.3c1.4-1.4,3.33-2.2,5.31-2.2
		C277.47,356.5,279.4,357.3,280.8,358.7z"/>
	<path d="M248.58,281.04c4.14,0,7.5,3.36,7.5,7.5c0,4.14-3.36,7.5-7.5,7.5h-98.16c-4.14,0-7.5-3.36-7.5-7.5c0-4.14,3.36-7.5,7.5-7.5
		H248.58z"/>
	<path d="M228.93,87.92c19.82,10.81,32.13,31.53,32.13,54.08c0,33.94-27.62,61.56-61.56,61.56c-33.95,0-61.56-27.62-61.56-61.56
		c0-22.56,12.31-43.28,32.13-54.08c3.63-1.98,8.19-0.64,10.17,3c1.98,3.63,0.64,8.19-3,10.17c-14.99,8.17-24.3,23.85-24.3,40.91
		c0,25.67,20.88,46.56,46.56,46.56c25.67,0,46.56-20.89,46.56-46.56c0-17.06-9.32-32.73-24.31-40.91c-3.64-1.98-4.98-6.54-3-10.17
		C220.74,87.28,225.29,85.94,228.93,87.92z"/>
	<path d="M237.5,250.08c4.14,0,7.5,3.36,7.5,7.5c0,4.14-3.36,7.5-7.5,7.5h-76c-4.15,0-7.5-3.36-7.5-7.5c0-4.14,3.35-7.5,7.5-7.5
		H237.5z"/>
	<path d="M237.5,312c4.14,0,7.5,3.36,7.5,7.5s-3.36,7.5-7.5,7.5h-76c-4.15,0-7.5-3.36-7.5-7.5s3.35-7.5,7.5-7.5H237.5z"/>
	<path d="M207,85.48v45.14c0,4.14-3.36,7.5-7.5,7.5c-4.15,0-7.5-3.36-7.5-7.5V85.48c0-4.14,3.35-7.5,7.5-7.5
		C203.64,77.98,207,81.34,207,85.48z"/>
	<path d="M128.8,29.7c1.4,1.39,2.2,3.33,2.2,5.3c0,1.98-0.8,3.91-2.2,5.3c-1.4,1.4-3.33,2.2-5.3,2.2c-1.98,0-3.91-0.8-5.31-2.2
		C116.8,38.91,116,36.98,116,35c0-1.97,0.8-3.91,2.19-5.3c1.4-1.4,3.33-2.2,5.31-2.2C125.47,27.5,127.4,28.3,128.8,29.7z"/>
	<path d="M128.8,358.7c1.4,1.39,2.2,3.33,2.2,5.3s-0.8,3.91-2.2,5.31c-1.4,1.39-3.33,2.19-5.3,2.19c-1.98,0-3.91-0.8-5.31-2.19
		c-1.39-1.4-2.19-3.33-2.19-5.31s0.8-3.91,2.19-5.3c1.4-1.4,3.33-2.2,5.31-2.2C125.47,356.5,127.4,357.3,128.8,358.7z"/>
</g>
<g>
</g>
<g>
</g>
<g>
</g>
<g>
</g>
<g>
</g>
<g>
</g>
<g>
</g>
<g>
</g>
<g>
</g>
<g>
</g>
<g>
</g>
<g>
</g>
<g>
</g>
<g>
</g>
<g>
</g>
</svg>
