<?xml version="1.0" encoding="iso-8859-1"?>
<!-- Generator: Adobe Illustrator 19.1.0, SVG Export Plug-In . SVG Version: 6.00 Build 0)  -->
<svg version="1.1" id="Capa_1" xmlns="http://www.w3.org/2000/svg" xmlns:xlink="http://www.w3.org/1999/xlink" x="0px" y="0px"
	 viewBox="0 0 417.69 417.69" style="enable-background:new 0 0 417.69 417.69;" xml:space="preserve">
<g>
	<path d="M417.69,190.3v14.87c0,26.31-13.63,49.49-34.19,62.88v70.25c0,4.14-3.36,7.5-7.5,7.5h-41.29v34.26c0,4.14-3.36,7.5-7.5,7.5
		H7.5c-4.14,0-7.5-3.36-7.5-7.5V214.1c0-4.14,3.36-7.5,7.5-7.5h26.67v-16.3c0-4.14,3.36-7.5,7.5-7.5H92v-33c0-4.14,3.36-7.5,7.5-7.5
		h58.84V37.63c0-4.15,3.36-7.5,7.5-7.5s7.5,3.35,7.5,7.5V142.3h14.33V37.63c0-4.15,3.35-7.5,7.5-7.5c4.14,0,7.5,3.35,7.5,7.5V142.3
		h58.83c4.14,0,7.5,3.36,7.5,7.5v33h141.19C414.33,182.8,417.69,186.16,417.69,190.3z M402.69,205.17v-7.37H261.5H49.17v67.37
		h293.52C375.77,265.17,402.69,238.26,402.69,205.17z M368.5,330.8v-55.21c-8.05,2.97-16.74,4.58-25.81,4.58h-7.98v50.63H368.5z
		 M319.71,372.56V311.3h-77.89l-10.02,10.03c1.03,2.44,1.58,5.08,1.58,7.81c0,5.35-2.08,10.37-5.86,14.15
		c-3.9,3.89-9.02,5.84-14.14,5.84c-5.12,0-10.24-1.95-14.14-5.84c-3.78-3.78-5.86-8.8-5.86-14.15c0-5.34,2.08-10.36,5.86-14.14
		s8.8-5.86,14.14-5.86c2.73,0,5.37,0.55,7.81,1.59l12.22-12.23c1.41-1.41,3.32-2.2,5.31-2.2h80.99v-16.13H41.67
		c-4.14,0-7.5-3.35-7.5-7.5V221.6H15v121.2h77.89l10.03-10.02c-1.03-2.44-1.58-5.08-1.58-7.81c0-5.34,2.08-10.37,5.85-14.15
		c7.8-7.79,20.49-7.79,28.29,0c3.78,3.78,5.86,8.81,5.86,14.15s-2.08,10.36-5.86,14.14c-3.78,3.78-8.8,5.86-14.14,5.86
		c-2.73,0-5.37-0.55-7.81-1.59l-12.23,12.23c-1.41,1.4-3.31,2.19-5.3,2.19H15v14.76H319.71z M254,182.8v-25.5H107v25.5H254z
		 M218.38,329.14c0-1.33-0.52-2.59-1.46-3.53c-0.95-0.95-2.21-1.47-3.54-1.47c-1.34,0-2.59,0.52-3.54,1.47
		c-0.94,0.94-1.46,2.2-1.46,3.53c0,1.34,0.52,2.59,1.46,3.54c1.95,1.95,5.12,1.95,7.08,0C217.86,331.73,218.38,330.48,218.38,329.14
		z M126.34,324.97c0-1.34-0.52-2.59-1.47-3.54c-0.97-0.97-2.25-1.46-3.53-1.46c-1.28,0-2.56,0.49-3.54,1.46
		c-0.94,0.95-1.46,2.2-1.46,3.54c0,1.33,0.52,2.59,1.46,3.53c0.95,0.95,2.2,1.47,3.54,1.47c1.33,0,2.59-0.52,3.53-1.47
		C125.82,327.56,126.34,326.3,126.34,324.97z"/>
	<path style="fill:#F48C6C;" d="M402.69,197.8v7.37c0,33.09-26.92,60-60,60H49.17V197.8H261.5H402.69z M120,220.49
		c0-4.14-3.36-7.5-7.5-7.5h-38c-4.14,0-7.5,3.36-7.5,7.5s3.36,7.5,7.5,7.5h38C116.64,227.99,120,224.63,120,220.49z M120,242.49
		c0-4.14-3.36-7.5-7.5-7.5h-38c-4.14,0-7.5,3.36-7.5,7.5s3.36,7.5,7.5,7.5h38C116.64,249.99,120,246.63,120,242.49z"/>
	<path style="fill:#3DD0F2;" d="M319.71,311.3v61.26H15V357.8h81c1.99,0,3.89-0.79,5.3-2.19l12.23-12.23
		c2.44,1.04,5.08,1.59,7.81,1.59c5.34,0,10.36-2.08,14.14-5.86c3.78-3.78,5.86-8.8,5.86-14.14s-2.08-10.37-5.86-14.15
		c-7.8-7.79-20.49-7.79-28.29,0c-3.77,3.78-5.85,8.81-5.85,14.15c0,2.73,0.55,5.37,1.58,7.81L92.89,342.8H15V221.6h19.17v51.07
		c0,4.15,3.36,7.5,7.5,7.5h278.04v16.13h-80.99c-1.99,0-3.9,0.79-5.31,2.2l-12.22,12.23c-2.44-1.04-5.08-1.59-7.81-1.59
		c-5.34,0-10.36,2.08-14.14,5.86s-5.86,8.8-5.86,14.14c0,5.35,2.08,10.37,5.86,14.15c3.9,3.89,9.02,5.84,14.14,5.84
		c5.12,0,10.24-1.95,14.14-5.84c3.78-3.78,5.86-8.8,5.86-14.15c0-2.73-0.55-5.37-1.58-7.81l10.02-10.03H319.71z"/>
	<path d="M112.5,212.99c4.14,0,7.5,3.36,7.5,7.5s-3.36,7.5-7.5,7.5h-38c-4.14,0-7.5-3.36-7.5-7.5s3.36-7.5,7.5-7.5H112.5z"/>
	<path d="M112.5,234.99c4.14,0,7.5,3.36,7.5,7.5s-3.36,7.5-7.5,7.5h-38c-4.14,0-7.5-3.36-7.5-7.5s3.36-7.5,7.5-7.5H112.5z"/>
</g>
<g>
</g>
<g>
</g>
<g>
</g>
<g>
</g>
<g>
</g>
<g>
</g>
<g>
</g>
<g>
</g>
<g>
</g>
<g>
</g>
<g>
</g>
<g>
</g>
<g>
</g>
<g>
</g>
<g>
</g>
</svg>
