<?xml version="1.0" encoding="iso-8859-1"?>
<!-- Generator: Adobe Illustrator 19.1.0, SVG Export Plug-In . SVG Version: 6.00 Build 0)  -->
<svg version="1.1" id="Capa_1" xmlns="http://www.w3.org/2000/svg" xmlns:xlink="http://www.w3.org/1999/xlink" x="0px" y="0px"
	 viewBox="0 0 463.031 463.031" style="enable-background:new 0 0 463.031 463.031;" xml:space="preserve">
<g>
	<path d="M459.958,334.966c2.62,1.92,3.71,5.3,2.7,8.38c-1.01,3.09-3.89,5.17-7.13,5.17H7.498c-3.24,0-6.12-2.08-7.13-5.17
		c-1-3.08,0.08-6.46,2.7-8.38l71.74-52.55v-110.47c0-4.15,3.35-7.5,7.5-7.5h66.92c4.14,0,7.5,3.35,7.5,7.5v50.45l70.35-51.54
		c2.64-1.94,6.23-1.94,8.87,0L459.958,334.966z M254.368,333.516h178.23l-201.08-147.32l-201.09,147.32h179.15v-21.1l-21.43-21.43
		c-2.77,1.33-5.86,2.1-9.14,2.1c-11.74,0-21.29-9.55-21.29-21.3c0-11.74,9.55-21.29,21.29-21.29s21.29,9.55,21.29,21.29
		c0,2.99-0.62,5.83-1.73,8.41l23.81,23.81c1.41,1.41,2.2,3.31,2.2,5.3v24.21h14.79v-65.69c-8.04-3.04-13.79-10.8-13.79-19.9
		c0-11.74,9.55-21.3,21.29-21.3s21.29,9.56,21.29,21.3c0,9.09-5.74,16.86-13.79,19.9V333.516z M253.158,247.926
		c0-3.47-2.82-6.3-6.29-6.3s-6.29,2.83-6.29,6.3s2.82,6.29,6.29,6.29S253.158,251.396,253.158,247.926z M185.298,271.786
		c0-3.47-2.82-6.29-6.29-6.29s-6.29,2.82-6.29,6.29s2.82,6.3,6.29,6.3S185.298,275.256,185.298,271.786z M141.728,233.386v-27.47
		h-51.92v65.51L141.728,233.386z M141.728,190.916v-11.47h-51.92v11.47H141.728z"/>
	<path d="M455.268,239.116c0,4.14-3.36,7.5-7.5,7.5c-4.15,0-7.5-3.36-7.5-7.5c0-60.43-49.17-109.6-109.6-109.6
		c-4.15,0-7.5-3.36-7.5-7.5s3.35-7.5,7.5-7.5C399.368,114.516,455.268,170.416,455.268,239.116z"/>
	<path style="fill:#3DD0F2;" d="M432.598,333.516h-178.23v-65.69c8.05-3.04,13.79-10.81,13.79-19.9c0-11.74-9.55-21.3-21.29-21.3
		s-21.29,9.56-21.29,21.3c0,9.1,5.75,16.86,13.79,19.9v65.69h-14.79v-24.21c0-1.99-0.79-3.89-2.2-5.3l-23.81-23.81
		c1.11-2.58,1.73-5.42,1.73-8.41c0-11.74-9.55-21.29-21.29-21.29s-21.29,9.55-21.29,21.29c0,11.75,9.55,21.3,21.29,21.3
		c3.28,0,6.37-0.77,9.14-2.1l21.43,21.43v21.1H30.428l201.09-147.32L432.598,333.516z"/>
	<path d="M419.108,239.116c0,4.14-3.36,7.5-7.5,7.5c-4.15,0-7.5-3.36-7.5-7.5c0-40.49-32.95-73.44-73.44-73.44
		c-4.15,0-7.5-3.36-7.5-7.5s3.35-7.5,7.5-7.5C379.428,150.676,419.108,190.356,419.108,239.116z"/>
	<path d="M384.008,239.116c0,4.14-3.36,7.5-7.5,7.5c-4.14,0-7.5-3.36-7.5-7.5c0-21.14-17.2-38.34-38.34-38.34
		c-4.15,0-7.5-3.36-7.5-7.5s3.35-7.5,7.5-7.5C360.078,185.776,384.008,209.706,384.008,239.116z"/>
	<rect x="89.808" y="179.446" style="fill:#F48C6C;" width="51.92" height="11.47"/>
</g>
<g>
</g>
<g>
</g>
<g>
</g>
<g>
</g>
<g>
</g>
<g>
</g>
<g>
</g>
<g>
</g>
<g>
</g>
<g>
</g>
<g>
</g>
<g>
</g>
<g>
</g>
<g>
</g>
<g>
</g>
</svg>
