<?xml version="1.0" encoding="iso-8859-1"?>
<!-- Generator: Adobe Illustrator 19.1.0, SVG Export Plug-In . SVG Version: 6.00 Build 0)  -->
<svg version="1.1" id="Capa_1" xmlns="http://www.w3.org/2000/svg" xmlns:xlink="http://www.w3.org/1999/xlink" x="0px" y="0px"
	 viewBox="0 0 418.48 418.48" style="enable-background:new 0 0 418.48 418.48;" xml:space="preserve">
<g>
	<path d="M418.48,71.13v246.03c0,17.36-14.12,31.48-31.48,31.48h-7.26v22.69c0,4.14-3.36,7.5-7.5,7.5h-52c-4.15,0-7.5-3.36-7.5-7.5
		v-22.69h-207v22.69c0,4.14-3.36,7.5-7.5,7.5h-52c-4.15,0-7.5-3.36-7.5-7.5v-22.69h-7.27C14.12,348.64,0,334.52,0,317.16V71.13
		c0-17.36,14.12-31.48,31.47-31.48H387C404.36,39.65,418.48,53.77,418.48,71.13z M403.48,317.16V71.13
		c0-9.09-7.39-16.48-16.48-16.48H31.47C22.39,54.65,15,62.04,15,71.13v246.03c0,9.09,7.39,16.48,16.47,16.48H387
		C396.09,333.64,403.48,326.25,403.48,317.16z M364.74,363.83v-15.19h-37v15.19H364.74z M90.74,363.83v-15.19h-37v15.19H90.74z"/>
	<path d="M382.48,83.15v221.99c0,4.14-3.36,7.5-7.5,7.5H43.5c-4.15,0-7.5-3.36-7.5-7.5V83.15c0-4.14,3.35-7.5,7.5-7.5h331.48
		C379.12,75.65,382.48,79.01,382.48,83.15z M367.48,297.64V90.65H51v71.6h46.39l18.85-18.85c-1.11-2.49-1.75-5.24-1.75-8.15
		c0-11.02,8.97-20,20-20s20,8.98,20,20c0,11.03-8.97,20-20,20c-2.63,0-5.14-0.52-7.44-1.45l-21.25,21.26
		c-1.41,1.4-3.32,2.19-5.31,2.19H51V192h119.84c2.97-7.32,10.15-12.5,18.53-12.5c11.02,0,20,8.98,20,20c0,11.03-8.98,20-20,20
		c-8.38,0-15.56-5.18-18.53-12.5H51v14.75h72.62c1.99,0,3.89,0.8,5.3,2.2l21.25,21.26c2.31-0.93,4.82-1.46,7.45-1.46
		c11.02,0,20,8.98,20,20c0,11.03-8.98,20-20,20c-11.03,0-20-8.97-20-20c0-2.9,0.63-5.65,1.75-8.14l-18.86-18.86H51v60.89H367.48z
		 M194.37,199.5c0-2.75-2.25-5-5-5c-2.76,0-5,2.25-5,5c0,2.76,2.24,5,5,5C192.12,204.5,194.37,202.26,194.37,199.5z M162.62,263.75
		c0-2.75-2.25-5-5-5c-2.76,0-5,2.25-5,5c0,2.76,2.24,5,5,5C160.37,268.75,162.62,266.51,162.62,263.75z M139.49,135.25
		c0-2.75-2.24-5-5-5c-2.75,0-5,2.25-5,5c0,2.76,2.25,5,5,5C137.25,140.25,139.49,138.01,139.49,135.25z"/>
	<path style="fill:#3DD0F2;" d="M367.48,90.65v206.99H51v-60.89h69.51l18.86,18.86c-1.12,2.49-1.75,5.24-1.75,8.14
		c0,11.03,8.97,20,20,20c11.02,0,20-8.97,20-20c0-11.02-8.98-20-20-20c-2.63,0-5.14,0.53-7.45,1.46l-21.25-21.26
		c-1.41-1.4-3.31-2.2-5.3-2.2H51V207h119.84c2.97,7.32,10.15,12.5,18.53,12.5c11.02,0,20-8.97,20-20c0-11.02-8.98-20-20-20
		c-8.38,0-15.56,5.18-18.53,12.5H51v-14.75h49.49c1.99,0,3.9-0.79,5.31-2.19l21.25-21.26c2.3,0.93,4.81,1.45,7.44,1.45
		c11.03,0,20-8.97,20-20c0-11.02-8.97-20-20-20s-20,8.98-20,20c0,2.91,0.64,5.66,1.75,8.15l-18.85,18.85H51v-71.6H367.48z
		 M345.11,194.15c0-33.55-27.29-60.84-60.84-60.84c-33.54,0-60.83,27.29-60.83,60.84c0,33.54,27.29,60.83,60.83,60.83
		C317.82,254.98,345.11,227.69,345.11,194.15z"/>
	<path d="M284.27,133.31c33.55,0,60.84,27.29,60.84,60.84c0,33.54-27.29,60.83-60.84,60.83c-33.54,0-60.83-27.29-60.83-60.83
		C223.44,160.6,250.73,133.31,284.27,133.31z M330.11,194.15c0-25.28-20.56-45.84-45.84-45.84c-25.27,0-45.83,20.56-45.83,45.84
		c0,25.27,20.56,45.83,45.83,45.83C309.55,239.98,330.11,219.42,330.11,194.15z"/>
	<path style="fill:#F48C6C;" d="M284.27,148.31c25.28,0,45.84,20.56,45.84,45.84c0,25.27-20.56,45.83-45.84,45.83
		c-25.27,0-45.83-20.56-45.83-45.83C238.44,168.87,259,148.31,284.27,148.31z M311.17,194.15c0-14.83-12.07-26.9-26.9-26.9
		c-14.83,0-26.89,12.07-26.89,26.9c0,14.83,12.06,26.89,26.89,26.89C299.1,221.04,311.17,208.98,311.17,194.15z"/>
	<path d="M284.27,167.25c14.83,0,26.9,12.07,26.9,26.9c0,14.83-12.07,26.89-26.9,26.89c-14.83,0-26.89-12.06-26.89-26.89
		C257.38,179.32,269.44,167.25,284.27,167.25z M296.17,194.15c0-6.56-5.34-11.9-11.9-11.9s-11.89,5.34-11.89,11.9
		c0,6.55,5.33,11.89,11.89,11.89S296.17,200.7,296.17,194.15z"/>
	<path style="fill:#F48C6C;" d="M189.37,194.5c2.75,0,5,2.25,5,5c0,2.76-2.25,5-5,5c-2.76,0-5-2.24-5-5
		C184.37,196.75,186.61,194.5,189.37,194.5z"/>
	<path style="fill:#F48C6C;" d="M157.62,258.75c2.75,0,5,2.25,5,5c0,2.76-2.25,5-5,5c-2.76,0-5-2.24-5-5
		C152.62,261,154.86,258.75,157.62,258.75z"/>
	<path style="fill:#F48C6C;" d="M134.49,130.25c2.76,0,5,2.25,5,5c0,2.76-2.24,5-5,5c-2.75,0-5-2.24-5-5
		C129.49,132.5,131.74,130.25,134.49,130.25z"/>
</g>
<g>
</g>
<g>
</g>
<g>
</g>
<g>
</g>
<g>
</g>
<g>
</g>
<g>
</g>
<g>
</g>
<g>
</g>
<g>
</g>
<g>
</g>
<g>
</g>
<g>
</g>
<g>
</g>
<g>
</g>
</svg>
