<?xml version="1.0" encoding="iso-8859-1"?>
<!-- Generator: Adobe Illustrator 19.1.0, SVG Export Plug-In . SVG Version: 6.00 Build 0)  -->
<svg version="1.1" id="Capa_1" xmlns="http://www.w3.org/2000/svg" xmlns:xlink="http://www.w3.org/1999/xlink" x="0px" y="0px"
	 viewBox="0 0 466.88 466.88" style="enable-background:new 0 0 466.88 466.88;" xml:space="preserve">
<g>
	<path d="M418.415,395.8c8.01,3.04,13.73,10.77,13.73,19.84c0,11.71-9.52,21.24-21.23,21.24c-11.71,0-21.24-9.53-21.24-21.24
		c0-9.07,5.72-16.8,13.74-19.84v-28.79l-39.47-39.47v71.7c0,4.14-3.36,7.5-7.5,7.5h-20.03v19.06c8.01,3.04,13.73,10.77,13.73,19.84
		c0,11.71-9.52,21.24-21.23,21.24c-11.71,0-21.24-9.53-21.24-21.24c0-9.07,5.72-16.8,13.74-19.84v-19.06h-175.94v19.06
		c8.01,3.04,13.73,10.77,13.73,19.84c0,11.71-9.52,21.24-21.23,21.24c-11.71,0-21.24-9.53-21.24-21.24c0-9.07,5.72-16.8,13.74-19.84
		v-19.06h-20.03c-4.15,0-7.5-3.36-7.5-7.5v-71.7l-39.47,39.47v28.79c8.01,3.04,13.73,10.77,13.73,19.84
		c0,11.71-9.52,21.24-21.23,21.24s-21.24-9.53-21.24-21.24c0-9.07,5.72-16.8,13.74-19.84v-31.9c0-1.98,0.79-3.89,2.19-5.3
		l52.28-52.27v-3.07l-24.84-24.84c-1.41-1.4-2.2-3.31-2.2-5.3v-31.89c-8.01-3.04-13.73-10.78-13.73-19.84
		c0-11.71,9.52-21.24,21.23-21.24s21.24,9.53,21.24,21.24c0,9.06-5.72,16.8-13.74,19.84v28.79l12.04,12.03v-36.81
		c0-4.14,3.35-7.5,7.5-7.5h246c4.14,0,7.5,3.36,7.5,7.5v36.81l12.03-12.03v-28.79c-8.01-3.04-13.73-10.78-13.73-19.84
		c0-11.71,9.52-21.24,21.23-21.24s21.24,9.53,21.24,21.24c0,9.06-5.72,16.8-13.74,19.84v31.89c0,1.99-0.79,3.9-2.2,5.3l-24.83,24.84
		v3.07l52.27,52.27c1.41,1.41,2.2,3.32,2.2,5.3V395.8z M417.145,415.64c0-3.44-2.8-6.24-6.23-6.24c-3.44,0-6.24,2.8-6.24,6.24
		c0,3.44,2.8,6.24,6.24,6.24C414.345,421.88,417.145,419.08,417.145,415.64z M389.715,221.39c0-3.44-2.8-6.24-6.24-6.24
		s-6.23,2.8-6.23,6.24c0,3.43,2.79,6.23,6.23,6.23S389.715,224.82,389.715,221.39z M348.945,391.74V355.4h-46.5v36.34H348.945z
		 M348.945,340.4v-36.33h-46.5v36.33H348.945z M348.945,289.07v-36.33h-46.5v36.33H348.945z M335.145,445.64
		c0-3.44-2.8-6.24-6.23-6.24c-3.44,0-6.24,2.8-6.24,6.24c0,3.44,2.8,6.24,6.24,6.24C332.345,451.88,335.145,449.08,335.145,445.64z
		 M287.445,391.74V355.4h-46.5v36.34H287.445z M287.445,340.4v-36.33h-46.5v36.33H287.445z M287.445,289.07v-36.33h-46.5v36.33
		H287.445z M225.945,391.74V355.4h-46.5v36.34H225.945z M225.945,340.4v-36.33h-46.5v36.33H225.945z M225.945,289.07v-36.33h-46.5
		v36.33H225.945z M164.445,391.74V355.4h-46.5v36.34H164.445z M164.445,340.4v-36.33h-46.5v36.33H164.445z M164.445,289.07v-36.33
		h-46.5v36.33H164.445z M144.205,445.64c0-3.44-2.79-6.24-6.23-6.24c-3.44,0-6.24,2.8-6.24,6.24c0,3.44,2.8,6.24,6.24,6.24
		C141.415,451.88,144.205,449.08,144.205,445.64z M89.645,221.39c0-3.44-2.8-6.24-6.24-6.24s-6.23,2.8-6.23,6.24
		c0,3.43,2.79,6.23,6.23,6.23S89.645,224.82,89.645,221.39z M62.205,415.64c0-3.44-2.79-6.24-6.23-6.24c-3.44,0-6.24,2.8-6.24,6.24
		c0,3.44,2.8,6.24,6.24,6.24C59.415,421.88,62.205,419.08,62.205,415.64z"/>
	<rect x="302.445" y="355.4" style="fill:#3DD0F2;" width="46.5" height="36.34"/>
	<rect x="302.445" y="304.07" style="fill:#3DD0F2;" width="46.5" height="36.33"/>
	<rect x="302.445" y="252.74" style="fill:#3DD0F2;" width="46.5" height="36.33"/>
	<path d="M335.685,103.32c4.14,0,7.5,3.36,7.5,7.5s-3.36,7.5-7.5,7.5h-36.64c-1.44,12.89-6.55,24.68-14.25,34.32l25.93,25.93
		c2.93,2.93,2.93,7.68,0,10.61c-1.46,1.46-3.38,2.19-5.3,2.19c-1.92,0-3.84-0.73-5.3-2.19l-25.94-25.94
		c-9.63,7.71-21.43,12.81-34.32,14.25v36.64c0,4.15-3.35,7.5-7.5,7.5c-4.14,0-7.5-3.35-7.5-7.5v-36.64
		c-12.88-1.44-24.68-6.54-34.31-14.25l-25.94,25.94c-1.46,1.46-3.38,2.19-5.3,2.19s-3.84-0.73-5.3-2.19
		c-2.93-2.93-2.93-7.68,0-10.61l25.93-25.93c-7.7-9.64-12.81-21.43-14.25-34.32h-36.64c-4.14,0-7.5-3.36-7.5-7.5s3.36-7.5,7.5-7.5
		h36.64c1.44-12.89,6.55-24.68,14.25-34.32l-25.93-25.93c-2.93-2.93-2.93-7.68,0-10.61c2.93-2.93,7.67-2.93,10.6,0l25.93,25.93
		c9.64-7.7,21.43-12.81,34.32-14.25V7.5c0-4.14,3.36-7.5,7.5-7.5c4.15,0,7.5,3.36,7.5,7.5v36.64c12.9,1.44,24.69,6.55,34.32,14.25
		l25.94-25.93c2.93-2.93,7.67-2.93,10.6,0s2.93,7.68,0,10.61L284.795,69c7.7,9.64,12.81,21.43,14.25,34.32H335.685z M284.475,110.82
		c0-28.73-23.37-52.11-52.11-52.11c-28.73,0-52.1,23.38-52.1,52.11s23.37,52.1,52.1,52.1
		C261.105,162.92,284.475,139.55,284.475,110.82z"/>
	<rect x="240.945" y="355.4" style="fill:#3DD0F2;" width="46.5" height="36.34"/>
	<rect x="240.945" y="304.07" style="fill:#3DD0F2;" width="46.5" height="36.33"/>
	<rect x="240.945" y="252.74" style="fill:#3DD0F2;" width="46.5" height="36.33"/>
	<path style="fill:#F48C6C;" d="M232.365,58.71c28.74,0,52.11,23.38,52.11,52.11s-23.37,52.1-52.11,52.1
		c-28.73,0-52.1-23.37-52.1-52.1S203.635,58.71,232.365,58.71z"/>
	<rect x="179.445" y="355.4" style="fill:#3DD0F2;" width="46.5" height="36.34"/>
	<rect x="179.445" y="304.07" style="fill:#3DD0F2;" width="46.5" height="36.33"/>
	<rect x="179.445" y="252.74" style="fill:#3DD0F2;" width="46.5" height="36.33"/>
	<rect x="117.945" y="355.4" style="fill:#3DD0F2;" width="46.5" height="36.34"/>
	<rect x="117.945" y="304.07" style="fill:#3DD0F2;" width="46.5" height="36.33"/>
	<rect x="117.945" y="252.74" style="fill:#3DD0F2;" width="46.5" height="36.33"/>
</g>
<g>
</g>
<g>
</g>
<g>
</g>
<g>
</g>
<g>
</g>
<g>
</g>
<g>
</g>
<g>
</g>
<g>
</g>
<g>
</g>
<g>
</g>
<g>
</g>
<g>
</g>
<g>
</g>
<g>
</g>
</svg>
