<?xml version="1.0" encoding="iso-8859-1"?>
<!-- Generator: Adobe Illustrator 19.1.0, SVG Export Plug-In . SVG Version: 6.00 Build 0)  -->
<svg version="1.1" id="Capa_1" xmlns="http://www.w3.org/2000/svg" xmlns:xlink="http://www.w3.org/1999/xlink" x="0px" y="0px"
	 viewBox="0 0 433.48 433.48" style="enable-background:new 0 0 433.48 433.48;" xml:space="preserve">
<g>
	<path style="fill:#3DD0F2;" d="M425.976,357.691c-41.85,0-41.85-22.683-83.7-22.683s-41.85,22.683-83.7,22.683
		c-41.848,0-41.848-22.683-83.696-22.683c-41.847,0-41.847,22.683-83.694,22.683c-41.845,0-41.845-22.683-83.69-22.683v-37.343
		c41.845,0,41.845,22.683,83.69,22.683c41.847,0,41.847-22.683,83.694-22.683c41.848,0,41.848,22.683,83.696,22.683
		c41.85,0,41.85-22.683,83.7-22.683s41.85,22.683,83.7,22.683V357.691z"/>
	<path d="M425.98,275.505c4.14,0,7.5,3.36,7.5,7.5c0,4.14-3.36,7.5-7.5,7.5c-22.83,0-34.83-6.51-45.43-12.25
		c-5.22-2.83-10.08-5.46-16.07-7.37v21.79c9.71,2.42,16.73,6.22,23.22,9.74c10.33,5.6,19.25,10.43,38.28,10.43
		c4.14,0,7.5,3.36,7.5,7.5c0,4.15-3.36,7.5-7.5,7.5c-22.83,0-34.83-6.5-45.43-12.24c-10.33-5.6-19.25-10.44-38.27-10.44
		c-19.03,0-27.95,4.84-38.28,10.44c-10.59,5.74-22.6,12.24-45.42,12.24c-22.83,0-34.83-6.5-45.43-12.24
		c-10.33-5.6-19.25-10.44-38.27-10.44s-27.94,4.84-38.27,10.44c-10.59,5.74-22.6,12.24-45.42,12.24c-22.83,0-34.83-6.5-45.42-12.24
		c-10.33-5.6-19.25-10.44-38.27-10.44c-4.15,0-7.5-3.36-7.5-7.5c0-4.14,3.35-7.5,7.5-7.5c22.82,0,34.83,6.51,45.42,12.25
		c10.33,5.6,19.25,10.43,38.27,10.43s27.94-4.83,38.27-10.43c10.59-5.74,22.6-12.25,45.42-12.25c22.83,0,34.83,6.51,45.42,12.25
		c4.05,2.19,7.88,4.26,12.18,5.98v-21.48c-7.75-2.39-13.74-5.63-19.33-8.66c-10.33-5.6-19.25-10.43-38.27-10.43
		s-27.94,4.83-38.27,10.43c-10.59,5.74-22.6,12.25-45.42,12.25c-22.83,0-34.83-6.51-45.42-12.25c-10.33-5.6-19.25-10.43-38.27-10.43
		c-4.15,0-7.5-3.36-7.5-7.5c0-4.14,3.35-7.5,7.5-7.5c22.82,0,34.83,6.5,45.42,12.25c10.33,5.59,19.25,10.43,38.27,10.43
		s27.94-4.84,38.27-10.43c10.59-5.75,22.6-12.25,45.42-12.25c22.83,0,34.83,6.5,45.42,12.24c4.05,2.2,7.88,4.27,12.18,5.99v-164.25
		c-7.32-2.97-12.5-10.15-12.5-18.52c0-11.03,8.97-20,20-20s20,8.97,20,20c0,8.37-5.18,15.55-12.5,18.52v31.47h102v-31.47
		c-7.32-2.97-12.5-10.15-12.5-18.52c0-11.03,8.97-20,20-20s20,8.97,20,20c0,8.37-5.18,15.55-12.5,18.52v148.53
		c9.71,2.42,16.73,6.22,23.22,9.74C398.03,270.665,406.95,275.505,425.98,275.505z M361.98,88.285c0-2.76-2.24-5-5-5
		c-2.75,0-5,2.24-5,5c0,2.75,2.25,5,5,5C359.74,93.285,361.98,91.035,361.98,88.285z M349.48,290.405v-22.32
		c-2.23-0.17-4.62-0.26-7.2-0.26c-19.03,0-27.95,4.83-38.28,10.43c-10.59,5.74-22.6,12.25-45.42,12.25c-4.02,0-7.7-0.2-11.1-0.57
		v22.27c3.3,0.41,6.96,0.64,11.1,0.64c19.02,0,27.94-4.83,38.27-10.43c10.59-5.74,22.6-12.25,45.43-12.25
		C344.81,290.165,347.2,290.245,349.48,290.405z M349.48,253.055v-12.78h-102v34.59c3.3,0.41,6.96,0.64,11.1,0.64
		c19.02,0,27.94-4.84,38.27-10.44c10.59-5.74,22.6-12.24,45.43-12.24C344.81,252.825,347.2,252.905,349.48,253.055z M349.48,225.275
		v-72h-102v72H349.48z M244.98,88.285c0-2.76-2.24-5-5-5c-2.75,0-5,2.24-5,5c0,2.75,2.25,5,5,5
		C242.74,93.285,244.98,91.035,244.98,88.285z"/>
	<path d="M425.98,350.195c4.14,0,7.5,3.35,7.5,7.5c0,4.14-3.36,7.5-7.5,7.5c-22.83,0-34.83-6.51-45.43-12.25
		c-10.33-5.6-19.25-10.44-38.27-10.44c-19.03,0-27.95,4.84-38.28,10.44c-10.59,5.74-22.6,12.25-45.42,12.25
		c-22.83,0-34.83-6.51-45.43-12.25c-10.33-5.6-19.25-10.44-38.27-10.44s-27.94,4.84-38.27,10.44c-10.59,5.74-22.6,12.25-45.42,12.25
		c-22.83,0-34.83-6.51-45.42-12.25c-10.33-5.6-19.25-10.44-38.27-10.44c-4.15,0-7.5-3.35-7.5-7.5c0-4.14,3.35-7.5,7.5-7.5
		c22.82,0,34.83,6.51,45.42,12.25c10.33,5.6,19.25,10.44,38.27,10.44s27.94-4.84,38.27-10.44c10.59-5.74,22.6-12.25,45.42-12.25
		c22.83,0,34.83,6.51,45.42,12.25c10.33,5.6,19.25,10.44,38.28,10.44c19.02,0,27.94-4.84,38.27-10.44
		c10.59-5.74,22.6-12.25,45.43-12.25c22.82,0,34.83,6.51,45.42,12.25C398.03,345.355,406.95,350.195,425.98,350.195z"/>
	<path style="fill:#F48C6C;" d="M356.98,83.285c2.76,0,5,2.24,5,5c0,2.75-2.24,5-5,5c-2.75,0-5-2.25-5-5
		C351.98,85.525,354.23,83.285,356.98,83.285z"/>
	<path style="fill:#F48C6C;" d="M239.98,83.285c2.76,0,5,2.24,5,5c0,2.75-2.24,5-5,5c-2.75,0-5-2.25-5-5
		C234.98,85.525,237.23,83.285,239.98,83.285z"/>
</g>
<g>
</g>
<g>
</g>
<g>
</g>
<g>
</g>
<g>
</g>
<g>
</g>
<g>
</g>
<g>
</g>
<g>
</g>
<g>
</g>
<g>
</g>
<g>
</g>
<g>
</g>
<g>
</g>
<g>
</g>
</svg>
