<?xml version="1.0" encoding="iso-8859-1"?>
<!-- Generator: Adobe Illustrator 19.1.0, SVG Export Plug-In . SVG Version: 6.00 Build 0)  -->
<svg version="1.1" id="Capa_1" xmlns="http://www.w3.org/2000/svg" xmlns:xlink="http://www.w3.org/1999/xlink" x="0px" y="0px"
	 viewBox="0 0 423 423" style="enable-background:new 0 0 423 423;" xml:space="preserve">
<g>
	<path d="M422.175,35.73v287.54c0,19.7-16.03,35.73-35.73,35.73h-283.54v27.05c0,20.38-16.58,36.95-36.95,36.95
		c-20.38,0-36.95-16.57-36.95-36.95v-27.86c-16.09-3.48-28.18-17.81-28.18-34.92V35.73C0.825,16.03,16.855,0,36.555,0h349.89
		C406.145,0,422.175,16.03,422.175,35.73z M407.175,323.27V35.73c0-11.43-9.3-20.73-20.73-20.73H36.555
		c-11.43,0-20.73,9.3-20.73,20.73v287.54c0,11.43,9.3,20.73,20.73,20.73h51.35v-28h-12.8c-21.99,0-39.88-17.89-39.88-39.88V67.83
		c0-21.99,17.89-39.88,39.88-39.88h40.59c21.99,0,39.88,17.89,39.88,39.88v208.29c0,21.99-17.89,39.88-39.88,39.88h-12.79v28h283.54
		C397.875,344,407.175,334.7,407.175,323.27z M140.575,276.12V67.83c0-13.72-11.16-24.88-24.88-24.88h-40.59
		c-13.72,0-24.88,11.16-24.88,24.88v208.29c0,13.72,11.16,24.88,24.88,24.88h40.59C129.415,301,140.575,289.84,140.575,276.12z
		 M87.905,386.05V359h-43.9v27.05c0,12.1,9.84,21.95,21.95,21.95C78.055,408,87.905,398.15,87.905,386.05z"/>
	<path d="M379.175,60.28v79.34c0,17.83-14.5,32.33-32.33,32.33h-128.79c-17.82,0-32.33-14.5-32.33-32.33V60.28
		c0-17.82,14.51-32.33,32.33-32.33h128.79C364.675,27.95,379.175,42.46,379.175,60.28z M364.175,139.62V83h-29.64
		c-2.98,7.32-10.16,12.5-18.53,12.5c-11.03,0-20-8.97-20-20s8.97-20,20-20c8.38,0,15.56,5.18,18.53,12.5h29.64v-7.72
		c0-9.55-7.77-17.33-17.33-17.33h-128.79c-9.55,0-17.33,7.78-17.33,17.33v34.11h19.45l18.85-18.86c-1.11-2.49-1.75-5.24-1.75-8.14
		c0-11.03,8.97-20,20-20s20,8.97,20,20s-8.97,20-20,20c-2.63,0-5.14-0.53-7.44-1.45l-21.25,21.25c-1.41,1.41-3.32,2.2-5.31,2.2
		h-22.55v15.63h69.02c2.98-7.32,10.15-12.51,18.53-12.51c11.03,0,20,8.98,20,20c0,11.03-8.97,20-20,20
		c-8.37,0-15.55-5.17-18.52-12.49h-69.01c0.22,9.37,7.89,16.93,17.31,16.93h128.79C356.405,156.95,364.175,149.18,364.175,139.62z
		 M321.005,75.5c0-2.76-2.24-5-5-5s-5,2.24-5,5c0,2.75,2.24,5,5,5S321.005,78.25,321.005,75.5z M293.275,132.51c0-2.75-2.24-5-5-5
		c-2.76,0-5,2.25-5,5c0,2.76,2.24,5,5,5C291.035,137.51,293.275,135.27,293.275,132.51z M262.275,67.39c0-2.76-2.24-5-5-5
		c-2.76,0-5,2.24-5,5s2.24,5,5,5C260.035,72.39,262.275,70.15,262.275,67.39z"/>
	<path d="M359.175,187.7c11.03,0,20,8.97,20,20s-8.97,20-20,20s-20-8.97-20-20S348.145,187.7,359.175,187.7z M364.175,207.7
		c0-2.76-2.24-5-5-5c-2.75,0-5,2.24-5,5c0,2.76,2.25,5,5,5C361.935,212.7,364.175,210.46,364.175,207.7z"/>
	<path d="M359.175,236.45c11.03,0,20,8.97,20,20c0,11.03-8.97,20-20,20s-20-8.97-20-20
		C339.175,245.42,348.145,236.45,359.175,236.45z M364.175,256.45c0-2.76-2.24-5-5-5c-2.75,0-5,2.24-5,5c0,2.76,2.25,5,5,5
		C361.935,261.45,364.175,259.21,364.175,256.45z"/>
	<path d="M359.175,285.2c11.03,0,20,8.97,20,20s-8.97,20-20,20s-20-8.97-20-20S348.145,285.2,359.175,285.2z M364.175,305.2
		c0-2.76-2.24-5-5-5c-2.75,0-5,2.24-5,5c0,2.76,2.25,5,5,5C361.935,310.2,364.175,307.96,364.175,305.2z"/>
	<path style="fill:#3DD0F2;" d="M364.175,83v56.62c0,9.56-7.77,17.33-17.33,17.33h-128.79c-9.42,0-17.09-7.56-17.31-16.93h69.01
		c2.97,7.32,10.15,12.49,18.52,12.49c11.03,0,20-8.97,20-20c0-11.02-8.97-20-20-20c-8.38,0-15.55,5.19-18.53,12.51h-69.02v-15.63
		h22.55c1.99,0,3.9-0.79,5.31-2.2l21.25-21.25c2.3,0.92,4.81,1.45,7.44,1.45c11.03,0,20-8.97,20-20s-8.97-20-20-20s-20,8.97-20,20
		c0,2.9,0.64,5.65,1.75,8.14l-18.85,18.86h-19.45V60.28c0-9.55,7.78-17.33,17.33-17.33h128.79c9.56,0,17.33,7.78,17.33,17.33V68
		h-29.64c-2.97-7.32-10.15-12.5-18.53-12.5c-11.03,0-20,8.97-20,20s8.97,20,20,20c8.37,0,15.55-5.18,18.53-12.5H364.175z"/>
	<path style="fill:#F48C6C;" d="M359.175,202.7c2.76,0,5,2.24,5,5c0,2.76-2.24,5-5,5c-2.75,0-5-2.24-5-5
		C354.175,204.94,356.425,202.7,359.175,202.7z"/>
	<path d="M308.025,187.7c11.03,0,20,8.97,20,20s-8.97,20-20,20s-20-8.97-20-20S296.995,187.7,308.025,187.7z M313.025,207.7
		c0-2.76-2.24-5-5-5c-2.76,0-5,2.24-5,5c0,2.76,2.24,5,5,5C310.785,212.7,313.025,210.46,313.025,207.7z"/>
	<path d="M308.025,236.45c11.03,0,20,8.97,20,20c0,11.03-8.97,20-20,20s-20-8.97-20-20
		C288.025,245.42,296.995,236.45,308.025,236.45z M313.025,256.45c0-2.76-2.24-5-5-5c-2.76,0-5,2.24-5,5c0,2.76,2.24,5,5,5
		C310.785,261.45,313.025,259.21,313.025,256.45z"/>
	<path d="M308.025,285.2c11.03,0,20,8.97,20,20s-8.97,20-20,20s-20-8.97-20-20S296.995,285.2,308.025,285.2z M313.025,305.2
		c0-2.76-2.24-5-5-5c-2.76,0-5,2.24-5,5c0,2.76,2.24,5,5,5C310.785,310.2,313.025,307.96,313.025,305.2z"/>
	<path d="M256.875,187.7c11.03,0,20,8.97,20,20s-8.97,20-20,20s-20-8.97-20-20S245.845,187.7,256.875,187.7z M261.875,207.7
		c0-2.76-2.24-5-5-5c-2.75,0-5,2.24-5,5c0,2.76,2.25,5,5,5C259.635,212.7,261.875,210.46,261.875,207.7z"/>
	<path d="M256.875,236.45c11.03,0,20,8.97,20,20c0,11.03-8.97,20-20,20s-20-8.97-20-20
		C236.875,245.42,245.845,236.45,256.875,236.45z M261.875,256.45c0-2.76-2.24-5-5-5c-2.75,0-5,2.24-5,5c0,2.76,2.25,5,5,5
		C259.635,261.45,261.875,259.21,261.875,256.45z"/>
	<path d="M256.875,285.2c11.03,0,20,8.97,20,20s-8.97,20-20,20s-20-8.97-20-20S245.845,285.2,256.875,285.2z M261.875,305.2
		c0-2.76-2.24-5-5-5c-2.75,0-5,2.24-5,5c0,2.76,2.25,5,5,5C259.635,310.2,261.875,307.96,261.875,305.2z"/>
	<path style="fill:#F48C6C;" d="M256.875,251.45c2.76,0,5,2.24,5,5c0,2.76-2.24,5-5,5c-2.75,0-5-2.24-5-5
		C251.875,253.69,254.125,251.45,256.875,251.45z"/>
	<path d="M205.725,187.7c11.03,0,20,8.97,20,20s-8.97,20-20,20s-20-8.97-20-20S194.695,187.7,205.725,187.7z M210.725,207.7
		c0-2.76-2.24-5-5-5c-2.76,0-5,2.24-5,5c0,2.76,2.24,5,5,5C208.485,212.7,210.725,210.46,210.725,207.7z"/>
	<path d="M205.725,236.45c11.03,0,20,8.97,20,20c0,11.03-8.97,20-20,20s-20-8.97-20-20
		C185.725,245.42,194.695,236.45,205.725,236.45z M210.725,256.45c0-2.76-2.24-5-5-5c-2.76,0-5,2.24-5,5c0,2.76,2.24,5,5,5
		C208.485,261.45,210.725,259.21,210.725,256.45z"/>
	<path d="M205.725,285.2c11.03,0,20,8.97,20,20s-8.97,20-20,20s-20-8.97-20-20S194.695,285.2,205.725,285.2z M210.725,305.2
		c0-2.76-2.24-5-5-5c-2.76,0-5,2.24-5,5c0,2.76,2.24,5,5,5C208.485,310.2,210.725,307.96,210.725,305.2z"/>
	<path style="fill:#F48C6C;" d="M140.575,67.83v208.29c0,13.72-11.16,24.88-24.88,24.88h-40.59c-13.72,0-24.88-11.16-24.88-24.88
		V67.83c0-13.72,11.16-24.88,24.88-24.88h40.59C129.415,42.95,140.575,54.11,140.575,67.83z"/>
</g>
<g>
</g>
<g>
</g>
<g>
</g>
<g>
</g>
<g>
</g>
<g>
</g>
<g>
</g>
<g>
</g>
<g>
</g>
<g>
</g>
<g>
</g>
<g>
</g>
<g>
</g>
<g>
</g>
<g>
</g>
</svg>
