<?xml version="1.0" encoding="iso-8859-1"?>
<!-- Generator: Adobe Illustrator 19.1.0, SVG Export Plug-In . SVG Version: 6.00 Build 0)  -->
<svg version="1.1" id="Capa_1" xmlns="http://www.w3.org/2000/svg" xmlns:xlink="http://www.w3.org/1999/xlink" x="0px" y="0px"
	 viewBox="0 0 462.54 462.54" style="enable-background:new 0 0 462.54 462.54;" xml:space="preserve">
<g>
	<g>
		<path d="M392.38,209.72c0,6.9-3.66,12.95-9.14,16.35v36.33c0,4.14-3.35,7.5-7.5,7.5h-16.43v17.41c0,39.22-19.3,74.01-48.9,95.4
			v72.33c0,4.14-3.35,7.5-7.5,7.5H159.62c-4.14,0-7.5-3.36-7.5-7.5v-72.33c-29.6-21.39-48.9-56.18-48.9-95.4V269.9H86.79
			c-4.14,0-7.5-3.36-7.5-7.5v-36.33c-5.47-3.4-9.13-9.45-9.13-16.35c0-10.63,8.64-19.27,19.27-19.27h13.72L117.38,64.1
			c2.43-21.57,20.62-37.83,42.32-37.83h30.14V7.5c0-4.14,3.35-7.5,7.5-7.5h67.86c4.14,0,7.5,3.36,7.5,7.5v18.77h30.13
			c21.7,0,39.9,16.26,42.33,37.83l14.23,126.35h13.72C383.73,190.45,392.38,199.09,392.38,209.72z M377.38,209.72
			c0-2.35-1.92-4.27-4.27-4.27H89.43c-2.36,0-4.27,1.92-4.27,4.27s1.91,4.27,4.27,4.27h283.68
			C375.46,213.99,377.38,212.07,377.38,209.72z M368.24,254.9v-25.91H94.29v25.91H368.24z M344.31,287.31V269.9H118.22v17.41
			c0,56.59,46.04,102.63,102.64,102.63h20.82C298.27,389.94,344.31,343.9,344.31,287.31z M344.29,190.45L330.25,65.77
			c-1.57-13.96-13.36-24.5-27.42-24.5H159.7c-14.06,0-25.84,10.54-27.42,24.5l-14.04,124.68h74.9v-37.84l-18.86-18.85
			c-2.49,1.11-5.24,1.75-8.14,1.75c-11.03,0-20-8.97-20-20s8.97-20,20-20s20,8.97,20,20c0,2.63-0.52,5.14-1.45,7.44l21.25,21.25
			c1.41,1.41,2.2,3.31,2.2,5.3v40.95h15.63V96.53c-7.32-2.97-12.5-10.15-12.5-18.53c0-11.02,8.97-20,20-20s20,8.98,20,20
			c0,8.38-5.18,15.56-12.5,18.53v93.92h15.63v-54.56c0-1.99,0.79-3.89,2.19-5.3l21.25-21.25c-0.92-2.3-1.45-4.81-1.45-7.45
			c0-11.02,8.97-20,20-20c11.03,0,20,8.98,20,20c0,11.03-8.97,20-20,20c-2.9,0-5.65-0.63-8.14-1.74L269.4,139v51.45H344.29z
			 M301.39,101.89c0-2.75-2.24-5-5-5c-2.75,0-5,2.25-5,5c0,2.76,2.25,5,5,5C299.15,106.89,301.39,104.65,301.39,101.89z
			 M295.41,447.54v-55.61c-16.11,8.31-34.38,13.01-53.73,13.01h-20.82c-19.35,0-37.62-4.7-53.74-13.01v55.61H295.41z M257.7,26.27
			V15h-52.86v11.27H257.7z M236.27,78c0-2.75-2.25-5-5-5c-2.76,0-5,2.25-5,5c0,2.76,2.24,5,5,5C234.02,83,236.27,80.76,236.27,78z
			 M171.14,115.51c0-2.76-2.24-5-5-5s-5,2.24-5,5c0,2.75,2.24,5,5,5S171.14,118.26,171.14,115.51z"/>
		<path style="fill:#FFFFFF;" d="M373.11,205.45c2.35,0,4.27,1.92,4.27,4.27s-1.92,4.27-4.27,4.27H89.43
			c-2.36,0-4.27-1.92-4.27-4.27s1.91-4.27,4.27-4.27H373.11z"/>
		<rect x="94.29" y="228.99" style="fill:#3DD0F2;" width="273.95" height="25.91"/>
		<path style="fill:#3DD0F2;" d="M344.31,269.9v17.41c0,56.59-46.04,102.63-102.63,102.63h-20.82
			c-56.6,0-102.64-46.04-102.64-102.63V269.9H344.31z"/>
		<path style="fill:#F48C6C;" d="M296.39,96.89c2.76,0,5,2.25,5,5c0,2.76-2.24,5-5,5c-2.75,0-5-2.24-5-5
			C291.39,99.14,293.64,96.89,296.39,96.89z"/>
		<path style="fill:#F48C6C;" d="M231.27,73c2.75,0,5,2.25,5,5c0,2.76-2.25,5-5,5c-2.76,0-5-2.24-5-5
			C226.27,75.25,228.51,73,231.27,73z"/>
		<path style="fill:#F48C6C;" d="M166.14,110.51c2.76,0,5,2.24,5,5c0,2.75-2.24,5-5,5s-5-2.25-5-5
			C161.14,112.75,163.38,110.51,166.14,110.51z"/>
	</g>
	<rect x="204.84" y="15" style="fill:#3DD0F2;" width="52.86" height="11.27"/>
</g>
<g>
</g>
<g>
</g>
<g>
</g>
<g>
</g>
<g>
</g>
<g>
</g>
<g>
</g>
<g>
</g>
<g>
</g>
<g>
</g>
<g>
</g>
<g>
</g>
<g>
</g>
<g>
</g>
<g>
</g>
</svg>
