<?xml version="1.0" encoding="iso-8859-1"?>
<!-- Generator: Adobe Illustrator 19.1.0, SVG Export Plug-In . SVG Version: 6.00 Build 0)  -->
<svg version="1.1" id="Capa_1" xmlns="http://www.w3.org/2000/svg" xmlns:xlink="http://www.w3.org/1999/xlink" x="0px" y="0px"
	 viewBox="0 0 475.029 475.029" style="enable-background:new 0 0 475.029 475.029;" xml:space="preserve">
<g>
	<path d="M472.83,158.815c1.9,1.89,2.64,4.66,1.94,7.24c-0.69,2.59-2.71,4.61-5.3,5.31l-54.55,14.61l-154.16,154.17v32.34
		c0,4.14-3.36,7.5-7.5,7.5H90.21c-4.14,0-7.5-3.36-7.5-7.5v-40.08C36.47,328.585,0,289.725,0,242.515s36.47-86.07,82.71-89.89
		v-16.45c0-4.14,3.36-7.5,7.5-7.5h10.81v-26.13c0-4.14,3.36-7.5,7.5-7.5h126.43c4.14,0,7.5,3.36,7.5,7.5v26.13h10.81
		c4.14,0,7.5,3.36,7.5,7.5v146.13l125.25-125.25l14.61-54.54c0.7-2.59,2.72-4.61,5.31-5.31c2.58-0.69,5.34,0.05,7.24,1.95
		L472.83,158.815z M413.28,170.885l39.76-10.65l-41.29-41.29l-10.65,39.75L413.28,170.885z M260.76,318.925l139.68-139.67
		l-7.71-7.71l-131.97,131.98V318.925z M245.76,364.985v-221.31h-59.42v46.38l18.86,18.86c2.49-1.11,5.24-1.75,8.14-1.75
		c11.03,0,20,8.97,20,20s-8.97,20-20,20s-20-8.97-20-20c0-2.63,0.52-5.14,1.45-7.44l-21.25-21.26c-1.41-1.4-2.2-3.31-2.2-5.3v-49.49
		h-15.63v111.11c7.32,2.97,12.5,10.15,12.5,18.53c0,11.02-8.97,20-20,20c-11.02,0-20-8.98-20-20c0-8.38,5.18-15.55,12.5-18.53
		v-111.11h-43v221.31h73.63v-22.53c0-1.99,0.79-3.9,2.2-5.3l21.25-21.26c-0.93-2.3-1.45-4.81-1.45-7.44c0-11.03,8.97-20,20-20
		s20,8.97,20,20s-8.97,20-20,20c-2.9,0-5.65-0.63-8.14-1.75l-18.86,18.86v19.42H245.76z M227.45,128.675v-18.63H116.02v18.63H227.45
		z M218.34,227.165c0-2.76-2.24-5-5-5c-2.76,0-5,2.24-5,5s2.24,5,5,5C216.1,232.165,218.34,229.925,218.34,227.165z M218.34,308.455
		c0-2.76-2.24-5-5-5c-2.76,0-5,2.24-5,5c0,2.76,2.24,5,5,5C216.1,313.455,218.34,311.215,218.34,308.455z M153.21,273.315
		c0-2.76-2.24-5-5-5c-2.75,0-5,2.24-5,5c0,2.75,2.25,5,5,5C150.97,278.315,153.21,276.065,153.21,273.315z M82.71,317.345v-149.66
		c-12.25,1.22-23.64,5.4-33.45,11.8v126.06C59.07,311.945,70.46,316.125,82.71,317.345z M34.26,292.705v-100.38
		C22.3,205.655,15,223.245,15,242.515S22.3,279.385,34.26,292.705z"/>
	<polygon style="fill:#F48C6C;" points="453.04,160.235 413.28,170.885 401.1,158.695 411.75,118.945 	"/>
	<path style="fill:#3DD0F2;" d="M245.76,143.675v221.31h-59.42v-19.42l18.86-18.86c2.49,1.12,5.24,1.75,8.14,1.75
		c11.03,0,20-8.97,20-20s-8.97-20-20-20s-20,8.97-20,20c0,2.63,0.52,5.14,1.45,7.44l-21.25,21.26c-1.41,1.4-2.2,3.31-2.2,5.3v22.53
		H97.71v-221.31h43v111.11c-7.32,2.98-12.5,10.15-12.5,18.53c0,11.02,8.98,20,20,20c11.03,0,20-8.98,20-20
		c0-8.38-5.18-15.56-12.5-18.53v-111.11h15.63v49.49c0,1.99,0.79,3.9,2.2,5.3l21.25,21.26c-0.93,2.3-1.45,4.81-1.45,7.44
		c0,11.03,8.97,20,20,20s20-8.97,20-20s-8.97-20-20-20c-2.9,0-5.65,0.64-8.14,1.75l-18.86-18.86v-46.38H245.76z"/>
</g>
<g>
</g>
<g>
</g>
<g>
</g>
<g>
</g>
<g>
</g>
<g>
</g>
<g>
</g>
<g>
</g>
<g>
</g>
<g>
</g>
<g>
</g>
<g>
</g>
<g>
</g>
<g>
</g>
<g>
</g>
</svg>
