<?xml version="1.0" encoding="iso-8859-1"?>
<!-- Generator: Adobe Illustrator 19.0.0, SVG Export Plug-In . SVG Version: 6.00 Build 0)  -->
<svg version="1.1" id="Capa_1" xmlns="http://www.w3.org/2000/svg" xmlns:xlink="http://www.w3.org/1999/xlink" x="0px" y="0px"
	 viewBox="0 0 512 512" style="enable-background:new 0 0 512 512;" xml:space="preserve">
<polygon style="fill:#FFD33F;" points="85.333,256 85.333,503.467 426.667,503.467 426.667,256 256,85.333 "/>
<polygon style="fill:#91CECE;" points="341.333,358.4 341.333,401.067 341.333,469.333 392.533,469.333 392.533,401.067 
	392.533,358.4 "/>
<polygon style="fill:#EA3836;" points="256,358.4 204.8,358.4 204.8,503.467 256,503.467 307.2,503.467 307.2,358.4 "/>
<polygon style="fill:#91CECE;" points="119.467,358.4 119.467,401.067 119.467,469.333 170.667,469.333 170.667,401.067 
	170.667,358.4 "/>
<path style="fill:#FFAC3E;" d="M319.053,148.386L256,85.333L85.333,256C85.333,256,221.21,140.262,319.053,148.386z"/>
<circle style="fill:#91CECE;" cx="256" cy="256" r="42.667"/>
<polygon style="fill:#383856;" points="85.333,213.333 85.333,76.8 153.6,76.8 153.6,145.067 "/>
<g>
	<path style="fill:#EA3836;" d="M503.467,119.467c-4.71,0-8.533-3.823-8.533-8.533c-0.06-51.814-42.052-93.807-93.867-93.867
		c-4.71,0-8.533-3.823-8.533-8.533S396.356,0,401.067,0C462.302,0.068,511.932,49.698,512,110.933
		C512,115.644,508.177,119.467,503.467,119.467z"/>
	<path style="fill:#EA3836;" d="M460.8,119.467c-4.71,0-8.533-3.823-8.533-8.533c-0.026-28.262-22.938-51.174-51.2-51.2
		c-4.71,0-8.533-3.823-8.533-8.533s3.823-8.533,8.533-8.533c37.683,0.043,68.224,30.583,68.267,68.267
		C469.333,115.644,465.51,119.467,460.8,119.467z"/>
	<circle style="fill:#EA3836;" cx="409.6" cy="102.4" r="17.067"/>
</g>
<polygon style="fill:#383856;" points="51.2,290.133 8.533,290.133 256,42.667 503.467,290.133 460.8,290.133 256,85.333 "/>
<path style="fill:#202033;" d="M85.333,145.067v68.267l61.44-61.44c-6.195,1.101-12.476,1.664-18.773,1.707
	C113.357,153.609,98.85,150.716,85.333,145.067z"/>
<path style="fill:#83B2B7;" d="M281.498,221.969c14.182,18.697,10.522,45.346-8.166,59.529c-15.181,11.52-36.181,11.52-51.362,0
	c14.02,18.859,40.67,22.784,59.529,8.772c18.859-14.012,22.784-40.67,8.772-59.529C287.787,227.405,284.834,224.444,281.498,221.969
	z"/>
<g>
	<path style="fill:#FFAC3E;" d="M85.333,498.031v5.436H204.8v-30.865C165.811,484.608,125.833,493.116,85.333,498.031z"/>
	<path style="fill:#FFAC3E;" d="M392.533,401.067v68.267h-51.2v-56.115c-11.196,6.374-22.571,12.45-34.133,18.227v72.021h119.467
		V355.84c-11.093,8.738-22.477,17.195-34.133,25.25V401.067z"/>
</g>
<path style="fill:#83B2B7;" d="M392.533,469.333v-88.235c-16.546,11.443-33.613,22.144-51.2,32.119v56.115H392.533z"/>
<path style="fill:#D62327;" d="M204.8,472.602v30.865h102.4v-72.021C274.227,447.889,239.983,461.653,204.8,472.602z"/>
<rect y="494.933" style="fill:#874D1B;" width="512" height="17.067"/>
<path style="fill:#83B2B7;" d="M170.667,469.333v-42.667c-16.546,5.53-33.613,10.709-51.2,15.531v27.136H170.667z"/>
<g>
</g>
<g>
</g>
<g>
</g>
<g>
</g>
<g>
</g>
<g>
</g>
<g>
</g>
<g>
</g>
<g>
</g>
<g>
</g>
<g>
</g>
<g>
</g>
<g>
</g>
<g>
</g>
<g>
</g>
</svg>
