<?xml version="1.0" encoding="iso-8859-1"?>
<!-- Generator: Adobe Illustrator 19.0.0, SVG Export Plug-In . SVG Version: 6.00 Build 0)  -->
<svg version="1.1" id="Capa_1" xmlns="http://www.w3.org/2000/svg" xmlns:xlink="http://www.w3.org/1999/xlink" x="0px" y="0px"
	 viewBox="0 0 512 512" style="enable-background:new 0 0 512 512;" xml:space="preserve">
<g>
	<path style="fill:#FFD33F;" d="M119.467,55.467h273.067c4.71,0,8.533,3.823,8.533,8.533v51.2c0,4.71-3.823,8.533-8.533,8.533
		H119.467c-4.71,0-8.533-3.823-8.533-8.533V64C110.933,59.29,114.756,55.467,119.467,55.467z"/>
	<path style="fill:#FFD33F;" d="M119.467,157.867h273.067c4.71,0,8.533,3.823,8.533,8.533v51.2c0,4.71-3.823,8.533-8.533,8.533
		H119.467c-4.71,0-8.533-3.823-8.533-8.533v-51.2C110.933,161.69,114.756,157.867,119.467,157.867z"/>
	<path style="fill:#FFD33F;" d="M119.467,260.267h273.067c4.71,0,8.533,3.823,8.533,8.533V320c0,4.71-3.823,8.533-8.533,8.533
		H119.467c-4.71,0-8.533-3.823-8.533-8.533v-51.2C110.933,264.09,114.756,260.267,119.467,260.267z"/>
</g>
<g>
	<path style="fill:#FFAC3E;" d="M392.533,55.467H376.32c-11.076,23.518-23.612,46.319-37.547,68.267h53.76
		c4.71,0,8.533-3.823,8.533-8.533V64C401.067,59.29,397.244,55.467,392.533,55.467z"/>
	<path style="fill:#FFAC3E;" d="M392.533,226.133c4.71,0,8.533-3.823,8.533-8.533v-51.2c0-4.71-3.823-8.533-8.533-8.533h-76.979
		c-17.604,24.107-36.907,46.916-57.771,68.267H392.533z"/>
	<path style="fill:#FFAC3E;" d="M392.533,328.533c4.71,0,8.533-3.823,8.533-8.533v-51.2c0-4.71-3.823-8.533-8.533-8.533H221.619
		c-29.389,25.668-61.124,48.521-94.78,68.267H392.533z"/>
</g>
<circle style="fill:#EA3836;" cx="145.067" cy="89.6" r="8.533"/>
<g>
	<rect x="187.733" y="81.067" style="fill:#383856;" width="17.067" height="17.067"/>
	<rect x="221.867" y="81.067" style="fill:#383856;" width="17.067" height="17.067"/>
	<rect x="256" y="81.067" style="fill:#383856;" width="34.133" height="17.067"/>
</g>
<circle style="fill:#EA3836;" cx="145.067" cy="192" r="8.533"/>
<g>
	<rect x="187.733" y="183.467" style="fill:#383856;" width="17.067" height="17.067"/>
	<rect x="221.867" y="183.467" style="fill:#383856;" width="17.067" height="17.067"/>
	<rect x="256" y="183.467" style="fill:#383856;" width="34.133" height="17.067"/>
</g>
<circle style="fill:#EA3836;" cx="145.067" cy="294.4" r="8.533"/>
<g>
	<rect x="187.733" y="285.867" style="fill:#383856;" width="17.067" height="17.067"/>
	<rect x="221.867" y="285.867" style="fill:#383856;" width="17.067" height="17.067"/>
	<rect x="256" y="285.867" style="fill:#383856;" width="34.133" height="17.067"/>
</g>
<rect y="430.933" style="fill:#EA3836;" width="238.933" height="17.067"/>
<path style="fill:#FFD33F;" d="M247.467,422.4h17.067c4.71,0,8.533,3.823,8.533,8.533V448c0,4.71-3.823,8.533-8.533,8.533h-17.067
	c-4.71,0-8.533-3.823-8.533-8.533v-17.067C238.933,426.223,242.756,422.4,247.467,422.4z"/>
<g>
	<rect x="273.067" y="430.933" style="fill:#EA3836;" width="238.933" height="17.067"/>
	<rect x="247.467" y="328.533" style="fill:#EA3836;" width="17.067" height="93.867"/>
</g>
<g>
</g>
<g>
</g>
<g>
</g>
<g>
</g>
<g>
</g>
<g>
</g>
<g>
</g>
<g>
</g>
<g>
</g>
<g>
</g>
<g>
</g>
<g>
</g>
<g>
</g>
<g>
</g>
<g>
</g>
</svg>
