<?xml version="1.0" encoding="iso-8859-1"?>
<!-- Generator: Adobe Illustrator 19.0.0, SVG Export Plug-In . SVG Version: 6.00 Build 0)  -->
<svg version="1.1" id="Capa_1" xmlns="http://www.w3.org/2000/svg" xmlns:xlink="http://www.w3.org/1999/xlink" x="0px" y="0px"
	 viewBox="0 0 512 512" style="enable-background:new 0 0 512 512;" xml:space="preserve">
<rect x="211.862" y="264.828" style="fill:#FFD33F;" width="88.276" height="158.897"/>
<path style="fill:#FFAC3E;" d="M211.862,370.317v53.407h88.276V307.103C284.566,342.802,250.668,367.078,211.862,370.317z"/>
<path style="fill:#FFD33F;" d="M353.103,88.276h141.241c9.754,0,17.655,7.901,17.655,17.655v300.138
	c0,9.754-7.901,17.655-17.655,17.655H353.103c-9.754,0-17.655-7.901-17.655-17.655V105.931
	C335.448,96.177,343.349,88.276,353.103,88.276z"/>
<path style="fill:#FFAC3E;" d="M335.448,347.807v58.262c0,9.754,7.901,17.655,17.655,17.655h141.241
	c9.754,0,17.655-7.901,17.655-17.655v-182.06C463.793,278.687,403.279,321.121,335.448,347.807z"/>
<path style="fill:#FFD33F;" d="M17.655,88.276h141.241c9.754,0,17.655,7.901,17.655,17.655v300.138
	c0,9.754-7.901,17.655-17.655,17.655H17.655C7.901,423.724,0,415.823,0,406.069V105.931C0,96.177,7.901,88.276,17.655,88.276z"/>
<path style="fill:#FFAC3E;" d="M0,347.807v58.262c0,9.754,7.901,17.655,17.655,17.655h141.241c9.754,0,17.655-7.901,17.655-17.655
	v-182.06C128.344,278.687,67.831,321.121,0,347.807z"/>
<g>
	<rect x="238.345" y="291.31" style="fill:#EA3836;" width="35.31" height="17.655"/>
	<rect x="247.172" y="361.931" style="fill:#EA3836;" width="17.655" height="35.31"/>
	<rect x="247.172" y="326.621" style="fill:#EA3836;" width="17.655" height="17.655"/>
</g>
<circle style="fill:#91CECE;" cx="88.276" cy="335.448" r="52.966"/>
<circle style="fill:#383856;" cx="88.276" cy="335.448" r="8.828"/>
<path style="fill:#83B2B7;" d="M121.026,293.87c18.105,22.943,14.186,56.223-8.757,74.328c-19.226,15.175-46.345,15.175-65.571,0
	c17.964,23.084,51.244,27.242,74.328,9.278c23.084-17.964,27.242-51.244,9.278-74.328
	C127.603,299.679,124.487,296.563,121.026,293.87z"/>
<circle style="fill:#91CECE;" cx="423.724" cy="335.448" r="52.966"/>
<circle style="fill:#383856;" cx="423.724" cy="335.448" r="8.828"/>
<path style="fill:#83B2B7;" d="M456.474,293.87c18.105,22.943,14.186,56.223-8.757,74.328c-19.227,15.175-46.345,15.175-65.571,0
	c17.964,23.084,51.244,27.242,74.328,9.278c23.084-17.964,27.242-51.244,9.278-74.328
	C463.051,299.679,459.935,296.563,456.474,293.87z"/>
<circle style="fill:#91CECE;" cx="88.276" cy="150.069" r="26.483"/>
<path style="fill:#83B2B7;" d="M101.994,127.523c2.56,4.122,3.919,8.872,3.937,13.718c0,14.627-11.855,26.483-26.483,26.483
	c-4.846-0.018-9.596-1.377-13.718-3.937c7.539,12.482,23.782,16.49,36.264,8.951c12.482-7.539,16.49-23.782,8.951-36.264
	C108.729,132.811,105.657,129.739,101.994,127.523z"/>
<circle style="fill:#91CECE;" cx="423.724" cy="150.069" r="26.483"/>
<path style="fill:#83B2B7;" d="M437.442,127.523c2.56,4.122,3.919,8.872,3.937,13.718c0,14.627-11.855,26.483-26.483,26.483
	c-4.846-0.018-9.596-1.377-13.718-3.937c7.539,12.482,23.782,16.49,36.264,8.951c12.482-7.539,16.49-23.782,8.951-36.264
	C444.178,132.811,441.106,129.739,437.442,127.523z"/>
<g>
</g>
<g>
</g>
<g>
</g>
<g>
</g>
<g>
</g>
<g>
</g>
<g>
</g>
<g>
</g>
<g>
</g>
<g>
</g>
<g>
</g>
<g>
</g>
<g>
</g>
<g>
</g>
<g>
</g>
</svg>
