<?xml version="1.0" encoding="iso-8859-1"?>
<!-- Generator: Adobe Illustrator 19.0.0, SVG Export Plug-In . SVG Version: 6.00 Build 0)  -->
<svg version="1.1" id="Capa_1" xmlns="http://www.w3.org/2000/svg" xmlns:xlink="http://www.w3.org/1999/xlink" x="0px" y="0px"
	 viewBox="0 0 512 512" style="enable-background:new 0 0 512 512;" xml:space="preserve">
<rect x="229.517" y="397.241" style="fill:#383856;" width="52.966" height="70.621"/>
<path style="fill:#202033;" d="M282.483,447.744v-50.503h-52.965v26.483C249.812,423.724,269.118,432.472,282.483,447.744z"/>
<path style="fill:#EA3836;" d="M432.552,512H79.448c51.809-34.534,112.675-52.966,174.936-52.966h3.231
	C319.876,459.034,380.743,477.466,432.552,512z"/>
<circle style="fill:#FFD33F;" cx="256" cy="203.034" r="203.034"/>
<path style="fill:#FFAC3E;" d="M115.377,349.405c80.914,77.63,209.443,74.964,287.073-5.95
	c55.181-57.521,71.609-142.009,41.984-216.011C366.989,240.614,249.309,319.991,115.377,349.405z"/>
<circle style="fill:#EA3836;" cx="256" cy="203.034" r="79.448"/>
<path style="fill:#D62327;" d="M307.553,142.654c28.513,33.306,24.629,83.421-8.678,111.934c-29.714,25.441-73.543,25.441-103.256,0
	c28.425,33.395,78.539,37.42,111.934,8.995s37.42-78.539,8.995-111.934C313.794,148.409,310.784,145.408,307.553,142.654z"/>
<circle style="fill:#91CECE;" cx="256" cy="203.034" r="44.138"/>
<path style="fill:#83B2B7;" d="M290.03,175.236c5.729,23.578-8.739,47.334-32.318,53.063c-16.525,4.017-33.889-1.871-44.57-15.104
	c5.455,23.711,29.105,38.515,52.815,33.059c23.711-5.455,38.515-29.105,33.059-52.815C297.481,186.756,294.4,180.524,290.03,175.236
	z"/>
<path style="fill:#D62327;" d="M323.513,466.097c-29.696,29.449-69.835,45.948-111.651,45.903h220.69
	C399.431,489.957,362.434,474.386,323.513,466.097z"/>
<g>
</g>
<g>
</g>
<g>
</g>
<g>
</g>
<g>
</g>
<g>
</g>
<g>
</g>
<g>
</g>
<g>
</g>
<g>
</g>
<g>
</g>
<g>
</g>
<g>
</g>
<g>
</g>
<g>
</g>
</svg>
