<?xml version="1.0" encoding="iso-8859-1"?>
<!-- Generator: Adobe Illustrator 19.0.0, SVG Export Plug-In . SVG Version: 6.00 Build 0)  -->
<svg version="1.1" id="Capa_1" xmlns="http://www.w3.org/2000/svg" xmlns:xlink="http://www.w3.org/1999/xlink" x="0px" y="0px"
	 viewBox="0 0 512 512" style="enable-background:new 0 0 512 512;" xml:space="preserve">
<rect x="145.527" style="fill:#EA3836;" width="203.034" height="105.931"/>
<g>
	<path style="fill:#D62327;" d="M145.527,105.931h8.828c-2.957,0-5.897-0.115-8.828-0.221V105.931z"/>
	<path style="fill:#D62327;" d="M154.354,105.931h194.207V0h-0.883C305.544,66.004,232.655,105.949,154.354,105.931z"/>
</g>
<rect x="13.369" style="fill:#EA3836;" width="132.158" height="105.931"/>
<rect x="13.369" y="105.931" style="fill:#FFD33F;" width="335.448" height="344.276"/>
<path style="fill:#FFAC3E;" d="M13.369,430.583v19.624h335.448V188.028C288.904,323.443,160.737,416.124,13.369,430.583z"/>
<circle style="fill:#EA3836;" cx="181.093" cy="264.828" r="123.586"/>
<path style="fill:#D62327;" d="M262.369,171.882c46.557,49.805,43.935,127.921-5.87,174.477
	c-46.371,43.352-118.06,44.465-165.756,2.586c46.424,49.938,124.548,52.789,174.486,6.365s52.789-124.548,6.365-174.486
	C268.671,177.682,265.591,174.698,262.369,171.882z"/>
<g>
	<rect x="13.369" y="450.207" style="fill:#EA3836;" width="335.448" height="61.793"/>
	<path style="fill:#EA3836;" d="M452.162,368.172l-12.482-12.482c55.058-55.049,55.058-144.313,0.009-199.371l-0.009-0.009
		l12.482-12.482c61.952,61.943,61.961,162.375,0.018,224.327C452.17,368.163,452.162,368.163,452.162,368.172z"/>
	<path style="fill:#EA3836;" d="M425.679,341.689l-12.482-12.482c40.369-40.457,40.369-105.958,0-146.414l12.482-12.482
		c47.325,47.307,47.342,124.019,0.035,171.343C425.697,341.663,425.688,341.681,425.679,341.689z"/>
	<path style="fill:#EA3836;" d="M399.196,315.207l-12.482-12.482c25.732-25.838,25.732-67.61,0-93.449l12.482-12.482
		C431.841,229.508,431.841,282.492,399.196,315.207z"/>
</g>
<rect x="269.369" y="35.31" style="fill:#FFD33F;" width="44.138" height="35.31"/>
<circle style="fill:#383856;" cx="181.093" cy="264.828" r="88.276"/>
<path style="fill:#202033;" d="M233.802,203.034c3.637,0,7.194,0.335,10.778,0.547c-33.792-35.098-89.635-36.158-124.734-2.366
	c-17.293,16.649-27.048,39.618-27.03,63.612c0,1.086,0.124,2.136,0.168,3.213C128.119,226.772,179.601,203.008,233.802,203.034z"/>
<path style="fill:#91CECE;" d="M269.069,264.704c-27.736-11.096-58.986-9.11-85.098,5.394
	c-24.329,13.515-53.222,16.199-79.625,7.398l-11.07-3.69c4.961,48.499,48.305,83.791,96.803,78.83
	c45.03-4.608,79.281-42.54,79.289-87.808L269.069,264.704z"/>
<path style="fill:#83B2B7;" d="M183.706,312.629c-21.001,11.661-45.515,15.307-69.005,10.266
	c31.974,36.679,87.631,40.492,124.31,8.51c8.704-7.583,15.828-16.808,20.974-27.136
	C234.465,296.722,206.975,299.732,183.706,312.629z"/>
<path style="fill:#D62327;" d="M105.679,105.931h39.848V27.692C137.414,56.099,123.881,82.67,105.679,105.931z"/>
<rect x="39.852" y="61.793" style="fill:#383856;" width="79.448" height="17.655"/>
<g>
	<path style="fill:#202033;" d="M119.3,61.793h-9.084c3.063,0,6.065,0.291,9.084,0.459V61.793z"/>
	<path style="fill:#202033;" d="M110.216,61.793H39.852V78.38C61.7,67.487,85.79,61.811,110.216,61.793z"/>
</g>
<circle style="fill:#383856;" cx="207.576" cy="52.966" r="17.399"/>
<path style="fill:#202033;" d="M214.135,36.873c3.884,8.766-0.071,19.023-8.845,22.908c-4.326,1.916-9.242,1.986-13.612,0.194
	c3.866,8.783,14.124,12.774,22.908,8.907s12.774-14.124,8.907-22.908C221.673,41.843,218.319,38.577,214.135,36.873z"/>
<g>
</g>
<g>
</g>
<g>
</g>
<g>
</g>
<g>
</g>
<g>
</g>
<g>
</g>
<g>
</g>
<g>
</g>
<g>
</g>
<g>
</g>
<g>
</g>
<g>
</g>
<g>
</g>
<g>
</g>
</svg>
