<?xml version="1.0" encoding="iso-8859-1"?>
<!-- Generator: Adobe Illustrator 19.0.0, SVG Export Plug-In . SVG Version: 6.00 Build 0)  -->
<svg version="1.1" id="Capa_1" xmlns="http://www.w3.org/2000/svg" xmlns:xlink="http://www.w3.org/1999/xlink" x="0px" y="0px"
	 viewBox="0 0 512 512" style="enable-background:new 0 0 512 512;" xml:space="preserve">
<path style="fill:#FFD33F;" d="M476.69,322.476V189.515c0-26.809-20.039-49.39-46.654-52.586l-5.756-0.689
	c-111.784-13.418-224.777-13.418-336.561,0l-5.756,0.689c-26.615,3.187-46.654,25.768-46.654,52.586v132.97
	c0,26.809,20.039,49.39,46.654,52.586l5.756,0.689c111.784,13.418,224.777,13.418,336.561,0l5.756-0.689
	C456.651,371.875,476.69,349.294,476.69,322.476z"/>
<g>
	<path style="fill:#383856;" d="M35.31,186.664L35.31,186.664c-19.5,0-35.31,15.81-35.31,35.31v68.052
		c0,19.5,15.81,35.31,35.31,35.31l0,0V186.664z"/>
	<path style="fill:#383856;" d="M476.69,186.664L476.69,186.664v138.673l0,0c19.5,0,35.31-15.81,35.31-35.31v-68.052
		C512,202.465,496.19,186.664,476.69,186.664z"/>
</g>
<path style="fill:#FFAC3E;" d="M424.28,375.759l5.756-0.689c26.615-3.196,46.654-25.777,46.654-52.595V220.014
	C373.725,304.847,249.45,359.79,117.407,378.867C219.507,388.983,322.41,387.942,424.28,375.759z"/>
<g>
	<path style="fill:#202033;" d="M480.044,186.999c-1.121-0.106-2.207-0.344-3.354-0.344v138.673c19.5,0,35.31-15.81,35.31-35.31
		v-0.283C495.845,257.452,485.058,222.751,480.044,186.999z"/>
	<path style="fill:#202033;" d="M1.545,299.789c4.308,15.095,18.079,25.503,33.766,25.538v-54.404
		C24.85,281.446,13.559,291.094,1.545,299.789z"/>
</g>
<path style="fill:#EA3836;" d="M70.621,207.364v95.894c0,17.699,13.1,32.662,30.641,35.001l67.266,8.969
	c20.948,2.79,41.551-7.133,52.418-25.256l4.776-7.945c10.037-16.719,31.726-22.148,48.446-12.111
	c4.97,2.984,9.128,7.142,12.111,12.111l4.776,7.945c10.867,18.123,31.47,28.045,52.418,25.256l67.266-8.969
	c17.54-2.339,30.641-17.302,30.641-35.001v-95.894c0-18.202-13.842-33.43-31.965-35.151l0,0c-102.047-9.719-204.782-9.719-306.829,0
	l0,0C84.462,173.943,70.621,189.162,70.621,207.364z"/>
<g>
	<path style="fill:#D62327;" d="M403.633,171.736c-100.14-9.198-200.916-9.039-301.021,0.477
		c-18.141,1.704-31.991,16.94-31.991,35.151v84.745C170.796,226.723,284.804,185.516,403.633,171.736z"/>
	<path style="fill:#D62327;" d="M335.651,347.67c2.613,0.035,5.226-0.115,7.821-0.459l67.266-8.969
		c17.532-2.339,30.632-17.293,30.641-34.984v-20.171C408.788,308.679,373.301,330.359,335.651,347.67z"/>
</g>
<circle style="fill:#91CECE;" cx="353.103" cy="254.707" r="52.966"/>
<path style="fill:#83B2B7;" d="M385.854,213.138c18.105,22.943,14.186,56.223-8.757,74.328c-19.226,15.175-46.345,15.175-65.571,0
	c17.964,23.084,51.244,27.242,74.328,9.278c23.084-17.964,27.242-51.244,9.278-74.328
	C392.43,218.946,389.314,215.83,385.854,213.138z"/>
<circle style="fill:#91CECE;" cx="158.897" cy="254.707" r="52.966"/>
<path style="fill:#83B2B7;" d="M191.647,213.138c18.105,22.943,14.186,56.223-8.757,74.328c-19.226,15.175-46.345,15.175-65.571,0
	c17.964,23.084,51.244,27.242,74.328,9.278s27.242-51.244,9.278-74.328C198.223,218.946,195.107,215.83,191.647,213.138z"/>
<g>
</g>
<g>
</g>
<g>
</g>
<g>
</g>
<g>
</g>
<g>
</g>
<g>
</g>
<g>
</g>
<g>
</g>
<g>
</g>
<g>
</g>
<g>
</g>
<g>
</g>
<g>
</g>
<g>
</g>
</svg>
