<?xml version="1.0" encoding="iso-8859-1"?>
<!-- Generator: Adobe Illustrator 19.0.0, SVG Export Plug-In . SVG Version: 6.00 Build 0)  -->
<svg version="1.1" id="Capa_1" xmlns="http://www.w3.org/2000/svg" xmlns:xlink="http://www.w3.org/1999/xlink" x="0px" y="0px"
	 viewBox="0 0 512.001 512.001" style="enable-background:new 0 0 512.001 512.001;" xml:space="preserve">
<rect x="185.38" y="467.863" style="fill:#FFD33F;" width="150.069" height="35.31"/>
<path style="fill:#FFAC3E;" d="M201.852,467.863c32.865,1.624,79.563,8.775,93.881,35.31h39.715v-35.31H201.852z"/>
<rect x="0.001" y="185.38" style="fill:#91CECE;" width="512" height="282.483"/>
<g>
	<path style="fill:#83B2B7;" d="M0.001,467.863h79.448c-26.58-0.035-53.133-1.924-79.448-5.676V467.863z"/>
	<path style="fill:#83B2B7;" d="M79.449,467.863h432.552V266.197C404.79,394.153,246.378,468.004,79.449,467.863z"/>
</g>
<path style="fill:#FFD33F;" d="M370.759,512.001H141.242c-4.873,0-8.828-3.955-8.828-8.828s3.955-8.828,8.828-8.828h229.517
	c4.873,0,8.828,3.955,8.828,8.828S375.632,512.001,370.759,512.001z"/>
<g>
	<rect x="344.276" y="423.725" style="fill:#383856;" width="88.276" height="17.655"/>
	<rect x="450.207" y="423.725" style="fill:#383856;" width="17.655" height="17.655"/>
</g>
<g>
	<path style="fill:#EA3836;" d="M361.932,61.538c-2.339,0-4.59-0.927-6.241-2.586C300.642,3.894,211.377,3.894,156.319,58.943
		l-0.009,0.009c-3.505,3.39-9.092,3.293-12.482-0.221c-3.302-3.425-3.302-8.845,0-12.262
		c61.943-61.952,162.375-61.961,224.327-0.018c0.009,0.009,0.009,0.009,0.018,0.018c3.443,3.452,3.443,9.039,0,12.482
		C366.513,60.611,364.271,61.538,361.932,61.538z"/>
	<path style="fill:#EA3836;" d="M335.449,88.021c-2.339,0-4.59-0.927-6.241-2.586c-40.457-40.369-105.958-40.369-146.414,0
		c-3.505,3.39-9.092,3.293-12.482-0.221c-3.302-3.425-3.302-8.845,0-12.262c47.316-47.325,124.045-47.334,171.37-0.009l0.009,0.009
		c3.443,3.452,3.443,9.039,0,12.482C340.03,87.094,337.788,88.021,335.449,88.021z"/>
	<path style="fill:#EA3836;" d="M308.966,114.504c-2.339,0-4.59-0.927-6.241-2.586c-25.794-25.803-67.628-25.812-93.431-0.018
		c-0.009,0.009-0.009,0.009-0.018,0.018c-3.505,3.39-9.092,3.293-12.482-0.221c-3.302-3.425-3.302-8.845,0-12.262
		c32.689-32.697,85.689-32.715,118.387-0.026c0.009,0.009,0.018,0.018,0.026,0.026c3.443,3.452,3.443,9.039,0,12.482
		C313.548,113.577,311.305,114.504,308.966,114.504z"/>
	<path style="fill:#EA3836;" d="M282.483,141.242c-2.339,0-4.59-0.927-6.241-2.586c-11.185-11.158-29.299-11.158-40.483,0
		c-3.505,3.39-9.092,3.293-12.482-0.221c-3.302-3.425-3.302-8.845,0-12.262c18.088-18.044,47.36-18.044,65.448,0
		c3.443,3.452,3.443,9.039,0,12.482C287.065,140.316,284.823,141.242,282.483,141.242z"/>
</g>
<g>
</g>
<g>
</g>
<g>
</g>
<g>
</g>
<g>
</g>
<g>
</g>
<g>
</g>
<g>
</g>
<g>
</g>
<g>
</g>
<g>
</g>
<g>
</g>
<g>
</g>
<g>
</g>
<g>
</g>
</svg>
