<?xml version="1.0" encoding="iso-8859-1"?>
<!-- Generator: Adobe Illustrator 19.0.0, SVG Export Plug-In . SVG Version: 6.00 Build 0)  -->
<svg version="1.1" id="Capa_1" xmlns="http://www.w3.org/2000/svg" xmlns:xlink="http://www.w3.org/1999/xlink" x="0px" y="0px"
	 viewBox="0 0 512 512" style="enable-background:new 0 0 512 512;" xml:space="preserve">
<rect x="167.724" y="97.103" style="fill:#EA3836;" width="35.31" height="35.31"/>
<path style="fill:#FFD33F;" d="M8.828,132.414h494.345c4.873,0,8.828,3.955,8.828,8.828v264.828c0,4.873-3.955,8.828-8.828,8.828
	H8.828c-4.873,0-8.828-3.955-8.828-8.828V141.241C0,136.369,3.955,132.414,8.828,132.414z"/>
<path style="fill:#FFAC3E;" d="M0,386.092v19.977c0,4.873,3.955,8.828,8.828,8.828h494.345c4.873,0,8.828-3.955,8.828-8.828V148.745
	C367.581,275.262,189.873,357.641,0,386.092z"/>
<g>
	<rect x="238.345" y="97.103" style="fill:#EA3836;" width="35.31" height="35.31"/>
	<rect x="308.966" y="97.103" style="fill:#EA3836;" width="35.31" height="35.31"/>
</g>
<circle style="fill:#383856;" cx="132.414" cy="273.655" r="79.448"/>
<path style="fill:#202033;" d="M61.793,282.483c-0.035-43.847,35.478-79.413,79.325-79.448c18.953-0.018,37.279,6.753,51.677,19.068
	c-28.425-33.395-78.539-37.42-111.934-8.995s-37.42,78.539-8.995,111.934c2.754,3.231,5.756,6.241,8.995,8.995
	C68.546,319.682,61.775,301.391,61.793,282.483z"/>
<circle style="fill:#383856;" cx="379.586" cy="273.655" r="79.448"/>
<path style="fill:#202033;" d="M308.966,282.483c-0.035-43.847,35.478-79.413,79.325-79.448
	c18.953-0.018,37.279,6.753,51.677,19.068c-28.425-33.395-78.539-37.42-111.934-8.995s-37.42,78.539-8.995,111.934
	c2.754,3.231,5.756,6.241,8.995,8.995C315.719,319.682,308.948,301.391,308.966,282.483z"/>
<circle style="fill:#91CECE;" cx="132.414" cy="273.655" r="26.483"/>
<path style="fill:#83B2B7;" d="M146.132,251.11c2.56,4.122,3.919,8.872,3.937,13.718c0,14.627-11.855,26.483-26.483,26.483
	c-4.846-0.018-9.596-1.377-13.718-3.937c7.539,12.482,23.782,16.49,36.264,8.951s16.49-23.782,8.951-36.264
	C152.867,256.397,149.795,253.325,146.132,251.11z"/>
<circle style="fill:#91CECE;" cx="379.586" cy="273.655" r="26.483"/>
<path style="fill:#83B2B7;" d="M393.304,251.11c2.56,4.122,3.919,8.872,3.937,13.718c0,14.627-11.855,26.483-26.483,26.483
	c-4.846-0.018-9.596-1.377-13.718-3.937c7.539,12.482,23.781,16.49,36.264,8.951c12.482-7.539,16.49-23.782,8.951-36.264
	C400.04,256.397,396.968,253.325,393.304,251.11z"/>
<g>
	<path style="fill:#D62327;" d="M167.724,132.414h35.31V114.52C194.772,125.749,181.663,132.387,167.724,132.414z"/>
	<path style="fill:#D62327;" d="M238.345,132.414h35.31V114.52C265.393,125.749,252.284,132.387,238.345,132.414z"/>
	<path style="fill:#D62327;" d="M308.966,132.414h35.31V114.52C336.013,125.749,322.904,132.387,308.966,132.414z"/>
</g>
<g>
</g>
<g>
</g>
<g>
</g>
<g>
</g>
<g>
</g>
<g>
</g>
<g>
</g>
<g>
</g>
<g>
</g>
<g>
</g>
<g>
</g>
<g>
</g>
<g>
</g>
<g>
</g>
<g>
</g>
</svg>
