<?xml version="1.0" encoding="iso-8859-1"?>
<!-- Generator: Adobe Illustrator 19.0.0, SVG Export Plug-In . SVG Version: 6.00 Build 0)  -->
<svg version="1.1" id="Capa_1" xmlns="http://www.w3.org/2000/svg" xmlns:xlink="http://www.w3.org/1999/xlink" x="0px" y="0px"
	 viewBox="0 0 512 512" style="enable-background:new 0 0 512 512;" xml:space="preserve">
<g>
	<rect x="397.241" y="194.207" style="fill:#FFD33F;" width="35.31" height="61.793"/>
	<path style="fill:#FFD33F;" d="M123.586,97.103l7.371-81.046C131.787,6.965,139.405,0,148.533,0h179.624
		c9.128,0,16.746,6.965,17.576,16.057l7.371,81.046H123.586z"/>
	<path style="fill:#FFD33F;" d="M123.586,414.897l7.371,81.046c0.83,9.092,8.448,16.057,17.576,16.057h179.624
		c9.128,0,16.746-6.965,17.576-16.057l7.371-81.046H123.586z"/>
</g>
<path style="fill:#91CECE;" d="M114.759,97.103h247.172c19.5,0,35.31,15.81,35.31,35.31v247.172c0,19.5-15.81,35.31-35.31,35.31
	H114.759c-19.5,0-35.31-15.81-35.31-35.31V132.414C79.448,112.914,95.258,97.103,114.759,97.103z"/>
<g>
	<path style="fill:#EA3836;" d="M344.276,229.261c-2.339,0-4.59-0.927-6.241-2.586c-55.049-55.058-144.313-55.058-199.371-0.009
		l-0.009,0.009c-3.505,3.39-9.092,3.293-12.482-0.221c-3.302-3.425-3.302-8.845,0-12.262c61.987-61.855,162.357-61.855,224.344,0
		c3.443,3.452,3.443,9.039,0,12.482C348.857,228.334,346.615,229.261,344.276,229.261z"/>
	<path style="fill:#EA3836;" d="M317.793,255.744c-2.339,0-4.59-0.927-6.241-2.586c-40.457-40.369-105.958-40.369-146.414,0
		c-3.505,3.39-9.092,3.293-12.482-0.221c-3.302-3.425-3.302-8.845,0-12.262c47.316-47.325,124.045-47.334,171.37-0.009l0.009,0.009
		c3.443,3.452,3.443,9.039,0,12.482C322.375,254.817,320.132,255.744,317.793,255.744z"/>
	<path style="fill:#EA3836;" d="M291.31,282.483c-2.339,0-4.59-0.927-6.241-2.586c-25.838-25.732-67.611-25.732-93.449,0
		c-3.505,3.39-9.092,3.293-12.482-0.221c-3.302-3.425-3.302-8.845,0-12.262c32.733-32.627,85.681-32.627,118.413,0
		c3.443,3.452,3.443,9.039,0,12.482C295.892,281.556,293.65,282.483,291.31,282.483z"/>
	<path style="fill:#EA3836;" d="M238.345,353.103c-19.5,0-35.31-15.81-35.31-35.31c0-19.5,15.81-35.31,35.31-35.31
		s35.31,15.81,35.31,35.31C273.655,337.293,257.845,353.103,238.345,353.103z M238.345,300.138c-9.754,0-17.655,7.901-17.655,17.655
		c0,9.754,7.901,17.655,17.655,17.655c9.754,0,17.655-7.901,17.655-17.655C256,308.039,248.099,300.138,238.345,300.138z"/>
</g>
<path style="fill:#83B2B7;" d="M135.062,414.897h226.869c19.5,0,35.31-15.81,35.31-35.31V214.396
	C331.688,305.779,240.419,375.57,135.062,414.897z"/>
<g>
	<path style="fill:#FFAC3E;" d="M318.72,512h9.437c9.128,0,16.746-6.965,17.576-16.057l7.371-81.046H123.586v0.221
		C195.858,430.168,263.044,463.528,318.72,512z"/>
	<path style="fill:#FFAC3E;" d="M231.777,97.103h121.326l-5.632-61.996C312.152,61.325,273.17,82.22,231.777,97.103z"/>
	<path style="fill:#FFAC3E;" d="M398.645,194.207h-1.404V256h28.981C411.436,238.389,401.876,216.982,398.645,194.207z"/>
</g>
<g>
</g>
<g>
</g>
<g>
</g>
<g>
</g>
<g>
</g>
<g>
</g>
<g>
</g>
<g>
</g>
<g>
</g>
<g>
</g>
<g>
</g>
<g>
</g>
<g>
</g>
<g>
</g>
<g>
</g>
</svg>
