<?xml version="1.0" encoding="iso-8859-1"?>
<!-- Generator: Adobe Illustrator 19.0.0, SVG Export Plug-In . SVG Version: 6.00 Build 0)  -->
<svg version="1.1" id="Capa_1" xmlns="http://www.w3.org/2000/svg" xmlns:xlink="http://www.w3.org/1999/xlink" x="0px" y="0px"
	 viewBox="0 0 512 512" style="enable-background:new 0 0 512 512;" xml:space="preserve">
<path style="fill:#91CECE;" d="M158.897,0h194.207c19.5,0,35.31,15.81,35.31,35.31v423.724l0,0H123.586l0,0V35.31
	C123.586,15.81,139.396,0,158.897,0z"/>
<g>
	<path style="fill:#FFD33F;" d="M167.724,17.655V0h176.552v17.655c0,9.754-7.901,17.655-17.655,17.655H185.379
		C175.625,35.31,167.724,27.41,167.724,17.655z"/>
	<path style="fill:#FFD33F;" d="M123.586,459.034v17.655c0,19.5,15.81,35.31,35.31,35.31h194.207c19.5,0,35.31-15.81,35.31-35.31
		v-17.655H123.586z"/>
</g>
<g>
	<rect x="229.517" y="414.897" style="fill:#383856;" width="97.103" height="17.655"/>
	<rect x="344.276" y="414.897" style="fill:#383856;" width="17.655" height="17.655"/>
</g>
<g>
	<path style="fill:#EA3836;" d="M256,326.621c-19.5,0-35.31-15.81-35.31-35.31c0-19.5,15.81-35.31,35.31-35.31
		s35.31,15.81,35.31,35.31C291.31,310.81,275.5,326.621,256,326.621z M256,273.655c-9.754,0-17.655,7.901-17.655,17.655
		c0,9.754,7.901,17.655,17.655,17.655s17.655-7.901,17.655-17.655C273.655,281.556,265.754,273.655,256,273.655z"/>
	<path style="fill:#EA3836;" d="M315.215,247.172c-2.507,0-4.899-1.068-6.577-2.94c-25.997-29.069-70.647-31.559-99.716-5.561
		c-1.951,1.748-3.814,3.602-5.561,5.561c-3.222,3.663-8.792,4.025-12.456,0.803c-3.663-3.222-4.025-8.792-0.803-12.456
		c0.035-0.044,0.071-0.079,0.106-0.124c32.503-36.334,88.311-39.442,124.646-6.938c2.436,2.18,4.758,4.493,6.938,6.938
		c3.249,3.628,2.94,9.216-0.689,12.465C319.488,246.369,317.387,247.172,315.215,247.172z"/>
	<path style="fill:#EA3836;" d="M353.103,210.097c-2.454,0-4.802-1.024-6.471-2.825c-46.407-50.052-124.601-53.018-174.654-6.612
		c-2.286,2.119-4.493,4.326-6.612,6.612c-3.249,3.628-8.836,3.937-12.465,0.689s-3.937-8.836-0.689-12.465
		c0.071-0.079,0.141-0.15,0.212-0.23c53.036-57.203,142.398-60.584,199.601-7.548c2.613,2.419,5.129,4.935,7.548,7.548
		c3.319,3.575,3.107,9.163-0.468,12.473C357.473,209.258,355.328,210.097,353.103,210.097z"/>
</g>
<path style="fill:#83B2B7;" d="M310.343,414.897h16.278v17.655h-40.96c-16.614,10.443-34.163,19.306-52.427,26.483h155.18V293.244
	C376.497,341.283,349.052,384.053,310.343,414.897z M361.931,432.552h-17.655v-17.655h17.655V432.552z"/>
<path style="fill:#FFAC3E;" d="M124.619,484.838c3.769,15.89,17.946,27.127,34.278,27.162h194.207c19.5,0,35.31-15.81,35.31-35.31
	v-17.655h-155.18C198.409,472.647,161.845,481.333,124.619,484.838z"/>
<g>
	<path style="fill:#202033;" d="M326.621,432.552v-17.655h-16.278c-7.892,6.356-16.146,12.253-24.717,17.655H326.621z"/>
	<rect x="344.276" y="414.897" style="fill:#202033;" width="17.655" height="17.655"/>
</g>
<path style="fill:#FFAC3E;" d="M185.379,35.31h141.241c9.754,0,17.655-7.901,17.655-17.655V0
	C344.276,26.483,185.379,35.31,185.379,35.31z"/>
<g>
</g>
<g>
</g>
<g>
</g>
<g>
</g>
<g>
</g>
<g>
</g>
<g>
</g>
<g>
</g>
<g>
</g>
<g>
</g>
<g>
</g>
<g>
</g>
<g>
</g>
<g>
</g>
<g>
</g>
</svg>
