<?xml version="1.0" encoding="iso-8859-1"?>
<!-- Generator: Adobe Illustrator 19.0.0, SVG Export Plug-In . SVG Version: 6.00 Build 0)  -->
<svg version="1.1" id="Capa_1" xmlns="http://www.w3.org/2000/svg" xmlns:xlink="http://www.w3.org/1999/xlink" x="0px" y="0px"
	 viewBox="0 0 512 512" style="enable-background:new 0 0 512 512;" xml:space="preserve">
<path style="fill:#FFD33F;" d="M8.533,482.133v-25.6c0-18.85,15.283-34.133,34.133-34.133h426.667
	c18.85,0,34.133,15.283,34.133,34.133v25.6c0,4.71-3.823,8.533-8.533,8.533H17.067C12.356,490.667,8.533,486.844,8.533,482.133z"/>
<path style="fill:#91CECE;" d="M93.867,422.4V277.333C93.867,187.793,166.46,115.2,256,115.2l0,0
	c89.54,0,162.133,72.593,162.133,162.133V422.4H93.867z"/>
<g>
	<path style="fill:#383856;" d="M147.627,253.551l-16.674-3.635c7.74-35.149,29.892-65.425,61.047-83.447l8.533,14.763
		C173.534,196.847,154.334,223.087,147.627,253.551z"/>
	<path style="fill:#383856;" d="M216.371,173.687l-6.076-15.957c5.956-2.27,12.066-4.087,18.295-5.453l3.627,16.683
		C226.825,170.138,221.525,171.716,216.371,173.687z"/>
</g>
<g>
	<path style="fill:#EA3836;" d="M8.533,140.8c-4.71,0-8.533-3.823-8.533-8.533C0.068,71.031,49.698,21.402,110.933,21.333
		c4.71,0,8.533,3.823,8.533,8.533s-3.823,8.533-8.533,8.533c-51.814,0.06-93.807,42.052-93.867,93.867
		C17.067,136.977,13.244,140.8,8.533,140.8z"/>
	<path style="fill:#EA3836;" d="M51.2,140.8c-4.71,0-8.533-3.823-8.533-8.533C42.709,94.583,73.25,64.043,110.933,64
		c4.71,0,8.533,3.823,8.533,8.533c0,4.71-3.823,8.533-8.533,8.533c-28.262,0.026-51.174,22.938-51.2,51.2
		C59.733,136.977,55.91,140.8,51.2,140.8z"/>
	<path style="fill:#EA3836;" d="M503.467,140.8c-4.71,0-8.533-3.823-8.533-8.533c-0.06-51.814-42.052-93.807-93.867-93.867
		c-4.71,0-8.533-3.823-8.533-8.533s3.823-8.533,8.533-8.533C462.302,21.402,511.932,71.031,512,132.267
		C512,136.977,508.177,140.8,503.467,140.8z"/>
	<path style="fill:#EA3836;" d="M460.8,140.8c-4.71,0-8.533-3.823-8.533-8.533c-0.026-28.262-22.938-51.174-51.2-51.2
		c-4.71,0-8.533-3.823-8.533-8.533c0-4.71,3.823-8.533,8.533-8.533c37.683,0.043,68.224,30.583,68.267,68.267
		C469.333,136.977,465.51,140.8,460.8,140.8z"/>
</g>
<path style="fill:#83B2B7;" d="M93.867,378.88v43.52h324.267V277.333c0-25.626-6.118-50.884-17.835-73.677
	C330.769,306.338,217.626,371.038,93.867,378.88z"/>
<path style="fill:#FFAC3E;" d="M469.333,422.4h-32.674c-38.332,33.169-84.113,56.593-133.444,68.267h191.718
	c4.71,0,8.533-3.823,8.533-8.533v-25.6C503.467,437.683,488.184,422.4,469.333,422.4z"/>
<g>
</g>
<g>
</g>
<g>
</g>
<g>
</g>
<g>
</g>
<g>
</g>
<g>
</g>
<g>
</g>
<g>
</g>
<g>
</g>
<g>
</g>
<g>
</g>
<g>
</g>
<g>
</g>
<g>
</g>
</svg>
