<?xml version="1.0" encoding="iso-8859-1"?>
<!-- Generator: Adobe Illustrator 19.0.0, SVG Export Plug-In . SVG Version: 6.00 Build 0)  -->
<svg version="1.1" id="Capa_1" xmlns="http://www.w3.org/2000/svg" xmlns:xlink="http://www.w3.org/1999/xlink" x="0px" y="0px"
	 viewBox="0 0 512 512" style="enable-background:new 0 0 512 512;" xml:space="preserve">
<path style="fill:#383856;" d="M88.276,17.655v476.69c0,9.754,7.901,17.655,17.655,17.655h300.138
	c9.754,0,17.655-7.901,17.655-17.655V86.758c0-4.679-1.863-9.172-5.173-12.482L349.449,5.173C346.138,1.863,341.645,0,336.967,0
	H105.931C96.177,0,88.276,7.901,88.276,17.655z"/>
<path style="fill:#202033;" d="M88.276,443.074v51.271c0,9.754,7.901,17.655,17.655,17.655h300.138
	c9.754,0,17.655-7.901,17.655-17.655V175.069C364.367,315.339,238.186,416.15,88.276,443.074z"/>
<rect x="132.414" style="fill:#FFD33F;" width="194.207" height="97.103"/>
<g>
	<rect x="185.379" y="414.897" style="fill:#83B2B7;" width="141.241" height="17.655"/>
	<rect x="220.69" y="450.207" style="fill:#83B2B7;" width="70.621" height="17.655"/>
</g>
<g>
	<path style="fill:#EA3836;" d="M355.69,226.675c-55.049-55.058-144.313-55.058-199.371-0.009l-0.009,0.009l-12.482-12.482
		c61.943-61.952,162.375-61.961,224.327-0.018c0.009,0.009,0.009,0.009,0.018,0.018L355.69,226.675z"/>
	<path style="fill:#EA3836;" d="M329.207,253.158c-40.457-40.369-105.958-40.369-146.414,0l-12.482-12.482
		c47.316-47.325,124.045-47.334,171.37-0.009l0.009,0.009L329.207,253.158z"/>
	<path style="fill:#EA3836;" d="M302.724,279.896c-25.838-25.732-67.61-25.732-93.449,0l-12.482-12.482
		c32.733-32.627,85.681-32.627,118.413,0L302.724,279.896z"/>
	<path style="fill:#EA3836;" d="M256,335.448c-14.627,0-26.483-11.855-26.483-26.483s11.855-26.483,26.483-26.483
		c14.627,0,26.483,11.855,26.483,26.483S270.627,335.448,256,335.448z M256,300.138c-4.873,0-8.828,3.955-8.828,8.828
		s3.955,8.828,8.828,8.828s8.828-3.955,8.828-8.828S260.873,300.138,256,300.138z"/>
</g>
<g>
	<rect x="220.69" style="fill:#FFAC3E;" width="17.655" height="97.103"/>
	<rect x="273.655" style="fill:#FFAC3E;" width="17.655" height="97.103"/>
	<rect x="167.724" style="fill:#FFAC3E;" width="17.655" height="97.103"/>
</g>
<g>
</g>
<g>
</g>
<g>
</g>
<g>
</g>
<g>
</g>
<g>
</g>
<g>
</g>
<g>
</g>
<g>
</g>
<g>
</g>
<g>
</g>
<g>
</g>
<g>
</g>
<g>
</g>
<g>
</g>
</svg>
