<?xml version="1.0" encoding="iso-8859-1"?>
<!-- Generator: Adobe Illustrator 19.0.0, SVG Export Plug-In . SVG Version: 6.00 Build 0)  -->
<svg version="1.1" id="Capa_1" xmlns="http://www.w3.org/2000/svg" xmlns:xlink="http://www.w3.org/1999/xlink" x="0px" y="0px"
	 viewBox="0 0 512 512" style="enable-background:new 0 0 512 512;" xml:space="preserve">
<path style="fill:#FFD33F;" d="M90.358,137.126h331.284c14.446,0,26.154,11.708,26.154,26.154v322.566
	c0,14.446-11.708,26.154-26.154,26.154H90.358c-14.446,0-26.154-11.708-26.154-26.154V163.28
	C64.204,148.834,75.921,137.126,90.358,137.126z"/>
<g>
	<path style="fill:#EA3836;" d="M107.794,363.794h34.872c4.812,0,8.718,3.906,8.718,8.718v95.898c0,4.812-3.906,8.718-8.718,8.718
		h-34.872c-4.812,0-8.718-3.906-8.718-8.718v-95.898C99.076,367.699,102.982,363.794,107.794,363.794z"/>
	<path style="fill:#EA3836;" d="M369.334,215.588h34.872c4.812,0,8.718,3.906,8.718,8.718v95.898c0,4.812-3.906,8.718-8.718,8.718
		h-34.872c-4.812,0-8.718-3.906-8.718-8.718v-95.898C360.616,219.493,364.522,215.588,369.334,215.588z"/>
	<path style="fill:#EA3836;" d="M369.334,363.794h34.872c4.812,0,8.718,3.906,8.718,8.718v95.898c0,4.812-3.906,8.718-8.718,8.718
		h-34.872c-4.812,0-8.718-3.906-8.718-8.718v-95.898C360.616,367.699,364.522,363.794,369.334,363.794z"/>
	<path style="fill:#EA3836;" d="M107.794,215.588h34.872c4.812,0,8.718,3.906,8.718,8.718v95.898c0,4.812-3.906,8.718-8.718,8.718
		h-34.872c-4.812,0-8.718-3.906-8.718-8.718v-95.898C99.076,219.493,102.982,215.588,107.794,215.588z"/>
	<path style="fill:#EA3836;" d="M328.298,47.391c-39.963-39.859-104.634-39.859-144.597,0l-12.327-12.327
		c46.72-46.737,122.479-46.755,169.217-0.035c0.009,0.009,0.026,0.026,0.035,0.035L328.298,47.391z"/>
	<path style="fill:#EA3836;" d="M302.144,73.545c-25.518-25.413-66.771-25.413-92.289,0l-12.327-12.327
		c32.309-32.248,84.634-32.248,116.943,0L302.144,73.545z"/>
	<circle style="fill:#EA3836;" cx="256" cy="93.536" r="17.436"/>
</g>
<path style="fill:#FFAC3E;" d="M412.924,259.335v60.869c0,4.812-3.906,8.718-8.718,8.718h-34.872c-4.812,0-8.718-3.906-8.718-8.718
	v-9.59c-61.645,54.618-132.488,97.877-209.232,127.78v30.016c0,4.812-3.906,8.718-8.718,8.718h-34.872
	c-4.812,0-8.718-3.906-8.718-8.718v-11.961c-11.499,3.444-23.129,6.591-34.872,9.442v19.956c0,14.446,11.708,26.154,26.154,26.154
	l0,0h331.284c14.446,0,26.154-11.708,26.154-26.154l0,0v-267.87C436.663,232.152,425.129,246.04,412.924,259.335z M412.924,468.41
	c0,4.812-3.906,8.718-8.718,8.718h-34.872c-4.812,0-8.718-3.906-8.718-8.718v-95.898c0-4.812,3.906-8.718,8.718-8.718h34.872
	c4.812,0,8.718,3.906,8.718,8.718V468.41z"/>
<g>
	<path style="fill:#D62327;" d="M99.076,468.41c0,4.812,3.906,8.718,8.718,8.718h34.872c4.812,0,8.718-3.906,8.718-8.718v-30.016
		c-17.131,6.669-34.549,12.728-52.308,18.055V468.41z"/>
	<path style="fill:#D62327;" d="M360.616,310.614v9.59c0,4.812,3.906,8.718,8.718,8.718h34.872c4.812,0,8.718-3.906,8.718-8.718
		v-60.869C396.395,277.329,378.941,294.442,360.616,310.614z"/>
	<path style="fill:#D62327;" d="M369.334,363.794h34.872c4.812,0,8.718,3.906,8.718,8.718v95.898c0,4.812-3.906,8.718-8.718,8.718
		h-34.872c-4.812,0-8.718-3.906-8.718-8.718v-95.898C360.616,367.699,364.522,363.794,369.334,363.794z"/>
</g>
<path style="fill:#91CECE;" d="M186.256,137.126v61.026c0,4.812,3.906,8.718,8.718,8.718h122.052c4.812,0,8.718-3.906,8.718-8.718
	v-61.026H186.256z"/>
<path style="fill:#83B2B7;" d="M325.744,139.166v-2.04H186.256v54.784C227.64,162.992,275.589,144.858,325.744,139.166z"/>
<g>
	<rect x="212.41" y="163.28" style="fill:#383856;" width="34.872" height="17.436"/>
	<rect x="264.718" y="163.28" style="fill:#383856;" width="34.872" height="17.436"/>
</g>
<g>
</g>
<g>
</g>
<g>
</g>
<g>
</g>
<g>
</g>
<g>
</g>
<g>
</g>
<g>
</g>
<g>
</g>
<g>
</g>
<g>
</g>
<g>
</g>
<g>
</g>
<g>
</g>
<g>
</g>
</svg>
