<?xml version="1.0" encoding="iso-8859-1"?>
<!-- Generator: Adobe Illustrator 19.0.0, SVG Export Plug-In . SVG Version: 6.00 Build 0)  -->
<svg version="1.1" id="Capa_1" xmlns="http://www.w3.org/2000/svg" xmlns:xlink="http://www.w3.org/1999/xlink" x="0px" y="0px"
	 viewBox="0 0 512 512" style="enable-background:new 0 0 512 512;" xml:space="preserve">
<path style="fill:#91CECE;" d="M61.793,295.724V57.379c0-9.754,7.901-17.655,17.655-17.655l0,0c9.754,0,17.655,7.901,17.655,17.655
	v238.345H61.793z"/>
<path style="fill:#FFD33F;" d="M26.483,295.724h459.034c14.627,0,26.483,11.855,26.483,26.483v123.586
	c0,14.627-11.855,26.483-26.483,26.483H26.483C11.855,472.276,0,460.42,0,445.793V322.207C0,307.58,11.855,295.724,26.483,295.724z"
	/>
<path style="fill:#FFAC3E;" d="M485.517,472.276c14.627,0,26.483-11.855,26.483-26.483V325.738
	c-120.302,77.497-256.194,127.523-398.027,146.538H485.517z"/>
<path style="fill:#EA3836;" d="M414.897,436.966c-29.255,0.009-52.974-23.693-52.983-52.948
	c-0.009-21.071,12.482-40.148,31.797-48.569l7.062,16.172c-17.876,7.804-26.041,28.61-18.238,46.486
	c7.804,17.876,28.61,26.041,46.486,18.238c17.876-7.804,26.041-28.61,18.238-46.486c-3.566-8.165-10.072-14.68-18.238-18.238
	l7.062-16.19c26.827,11.67,39.106,42.876,27.445,69.694C455.106,424.483,436.003,436.992,414.897,436.966z"/>
<g>
	<rect x="44.138" y="375.172" style="fill:#383856;" width="61.793" height="17.655"/>
	<rect x="132.414" y="375.172" style="fill:#383856;" width="26.483" height="17.655"/>
	<rect x="185.379" y="375.172" style="fill:#383856;" width="97.103" height="17.655"/>
</g>
<path style="fill:#91CECE;" d="M450.207,295.724V57.379c0-9.754-7.901-17.655-17.655-17.655l0,0
	c-9.754,0-17.655,7.901-17.655,17.655v238.345H450.207z"/>
<rect x="406.069" y="322.207" style="fill:#EA3836;" width="17.655" height="61.793"/>
<g>
	<path style="fill:#83B2B7;" d="M61.793,278.069v17.655h35.31v-52.966C97.103,262.259,81.293,278.069,61.793,278.069z"/>
	<path style="fill:#83B2B7;" d="M414.897,278.069v17.655h35.31v-52.966C450.207,262.259,434.397,278.069,414.897,278.069z"/>
</g>
<g>
</g>
<g>
</g>
<g>
</g>
<g>
</g>
<g>
</g>
<g>
</g>
<g>
</g>
<g>
</g>
<g>
</g>
<g>
</g>
<g>
</g>
<g>
</g>
<g>
</g>
<g>
</g>
<g>
</g>
</svg>
