<?xml version="1.0" encoding="iso-8859-1"?>
<!-- Generator: Adobe Illustrator 19.0.0, SVG Export Plug-In . SVG Version: 6.00 Build 0)  -->
<svg version="1.1" id="Capa_1" xmlns="http://www.w3.org/2000/svg" xmlns:xlink="http://www.w3.org/1999/xlink" x="0px" y="0px"
	 viewBox="0 0 512 512" style="enable-background:new 0 0 512 512;" xml:space="preserve">
<path style="fill:#FFD33F;" d="M194.207,0h123.586c19.5,0,35.31,15.81,35.31,35.31V476.69c0,19.5-15.81,35.31-35.31,35.31H194.207
	c-19.5,0-35.31-15.81-35.31-35.31V35.31C158.897,15.81,174.707,0,194.207,0z"/>
<path style="fill:#FFAC3E;" d="M158.897,412.195v64.494c0,19.5,15.81,35.31,35.31,35.31h123.586c19.5,0,35.31-15.81,35.31-35.31V256
	C316.019,335.307,244.312,392.986,158.897,412.195z"/>
<g>
	<rect x="194.207" y="105.931" style="fill:#383856;" width="17.655" height="17.655"/>
	<rect x="229.517" y="105.931" style="fill:#383856;" width="17.655" height="17.655"/>
	<rect x="264.828" y="105.931" style="fill:#383856;" width="17.655" height="17.655"/>
	<rect x="300.138" y="105.931" style="fill:#383856;" width="17.655" height="17.655"/>
	<rect x="194.207" y="176.552" style="fill:#383856;" width="17.655" height="17.655"/>
	<rect x="229.517" y="176.552" style="fill:#383856;" width="17.655" height="17.655"/>
	<rect x="264.828" y="176.552" style="fill:#383856;" width="17.655" height="17.655"/>
	<rect x="300.138" y="176.552" style="fill:#383856;" width="17.655" height="17.655"/>
	<rect x="194.207" y="141.241" style="fill:#383856;" width="17.655" height="17.655"/>
	<rect x="229.517" y="141.241" style="fill:#383856;" width="17.655" height="17.655"/>
	<rect x="264.828" y="141.241" style="fill:#383856;" width="17.655" height="17.655"/>
	<rect x="300.138" y="141.241" style="fill:#383856;" width="17.655" height="17.655"/>
	<rect x="203.034" y="361.931" style="fill:#383856;" width="17.655" height="17.655"/>
</g>
<g>
	<rect x="291.31" y="361.931" style="fill:#202033;" width="17.655" height="17.655"/>
	<rect x="194.207" y="459.034" style="fill:#202033;" width="17.655" height="17.655"/>
	<rect x="229.517" y="459.034" style="fill:#202033;" width="17.655" height="17.655"/>
	<rect x="264.828" y="459.034" style="fill:#202033;" width="17.655" height="17.655"/>
	<rect x="300.138" y="459.034" style="fill:#202033;" width="17.655" height="17.655"/>
	<rect x="194.207" y="414.897" style="fill:#202033;" width="17.655" height="17.655"/>
	<rect x="229.517" y="414.897" style="fill:#202033;" width="17.655" height="17.655"/>
	<rect x="264.828" y="414.897" style="fill:#202033;" width="17.655" height="17.655"/>
	<rect x="300.138" y="414.897" style="fill:#202033;" width="17.655" height="17.655"/>
</g>
<circle style="fill:#91CECE;" cx="216.276" cy="57.379" r="22.069"/>
<path style="fill:#83B2B7;" d="M226.754,38.073c1.792,3.204,2.737,6.806,2.763,10.478c0,12.191-9.878,22.069-22.069,22.069
	c-3.672-0.026-7.274-0.971-10.478-2.763c5.747,10.708,19.076,14.733,29.784,8.986c10.708-5.747,14.733-19.076,8.986-29.784
	C233.693,43.246,230.568,40.121,226.754,38.073z"/>
<circle style="fill:#EA3836;" cx="295.724" cy="57.379" r="22.069"/>
<path style="fill:#D62327;" d="M306.202,38.073c1.792,3.204,2.737,6.806,2.763,10.478c0,12.191-9.878,22.069-22.069,22.069
	c-3.672-0.026-7.274-0.971-10.478-2.763c5.747,10.708,19.076,14.733,29.784,8.986s14.733-19.076,8.987-29.784
	C313.141,43.246,310.016,40.121,306.202,38.073z"/>
<circle style="fill:#FFD33F;" cx="256" cy="273.655" r="44.138"/>
<path style="fill:#FFAC3E;" d="M229.623,308.86c-14.671-19.341-10.884-46.91,8.448-61.581c15.704-11.917,37.429-11.917,53.133,0
	c-14.504-19.509-42.072-23.57-61.581-9.075c-19.509,14.495-23.57,42.072-9.075,61.581C223.117,303.236,226.172,306.3,229.623,308.86
	z"/>
<path style="fill:#EA3836;" d="M256,335.448c-34.127,0-61.793-27.666-61.793-61.793s27.666-61.793,61.793-61.793
	s61.793,27.666,61.793,61.793C317.749,307.765,290.11,335.404,256,335.448z M256,229.517c-24.373,0-44.138,19.765-44.138,44.138
	s19.765,44.138,44.138,44.138s44.138-19.765,44.138-44.138C300.111,249.291,280.364,229.544,256,229.517z"/>
<path style="fill:#D62327;" d="M297.843,260.273c1.457,4.317,2.233,8.828,2.295,13.383c-0.026,24.364-19.774,44.111-44.138,44.138
	c-10.425-0.026-20.498-3.787-28.398-10.593c-6.312,2.286-12.747,4.211-19.279,5.764c21.822,26.244,60.778,29.828,87.022,8.007
	c22.413-18.635,28.76-50.397,15.219-76.209C306.617,250.174,302.371,255.347,297.843,260.273z"/>
<rect x="247.172" y="361.931" style="fill:#383856;" width="17.655" height="17.655"/>
<path style="fill:#202033;" d="M264.828,363.697c-5.729,4.237-11.599,8.298-17.655,12.094v3.796h17.655V363.697z"/>
<g>
</g>
<g>
</g>
<g>
</g>
<g>
</g>
<g>
</g>
<g>
</g>
<g>
</g>
<g>
</g>
<g>
</g>
<g>
</g>
<g>
</g>
<g>
</g>
<g>
</g>
<g>
</g>
<g>
</g>
</svg>
