<?xml version="1.0" encoding="iso-8859-1"?>
<!-- Generator: Adobe Illustrator 19.0.0, SVG Export Plug-In . SVG Version: 6.00 Build 0)  -->
<svg version="1.1" id="Capa_1" xmlns="http://www.w3.org/2000/svg" xmlns:xlink="http://www.w3.org/1999/xlink" x="0px" y="0px"
	 viewBox="0 0 512 512" style="enable-background:new 0 0 512 512;" xml:space="preserve">
<g>
	<path style="fill:#FFD33F;" d="M57.418,0h185.379c19.5,0,35.31,15.81,35.31,35.31v150.069h-256V35.31
		C22.108,15.81,37.918,0,57.418,0z"/>
	<path style="fill:#FFD33F;" d="M22.108,185.379v291.31c0,19.5,15.81,35.31,35.31,35.31h185.379c19.5,0,35.31-15.81,35.31-35.31
		v-291.31H22.108z"/>
</g>
<g>
	<rect x="48.59" y="70.621" style="fill:#383856;" width="17.655" height="88.276"/>
	<rect x="48.59" y="211.862" style="fill:#383856;" width="17.655" height="88.276"/>
</g>
<g>
	<path style="fill:#EA3836;" d="M437.26,370.759c-4.873,0-8.828-3.955-8.828-8.828c0-2.339,0.927-4.582,2.586-6.241
		c55.058-55.049,55.058-144.313,0.009-199.371l-0.009-0.009c-3.505-3.39-3.602-8.978-0.221-12.482
		c3.39-3.505,8.978-3.602,12.482-0.221c0.071,0.071,0.15,0.141,0.221,0.221c61.855,61.987,61.855,162.357,0,224.344
		C441.85,369.832,439.608,370.759,437.26,370.759z"/>
	<path style="fill:#EA3836;" d="M410.777,344.276c-4.873,0-8.828-3.955-8.828-8.828c0-2.339,0.927-4.582,2.586-6.241
		c40.369-40.457,40.369-105.958,0-146.414c-3.505-3.39-3.602-8.978-0.221-12.482c3.39-3.505,8.978-3.602,12.482-0.221
		c0.071,0.071,0.15,0.141,0.221,0.221c47.325,47.316,47.333,124.045,0.009,171.37l-0.009,0.009
		C415.368,343.349,413.126,344.276,410.777,344.276z"/>
	<path style="fill:#EA3836;" d="M384.039,317.793c-4.873,0-8.828-3.955-8.828-8.828c0-2.339,0.927-4.582,2.586-6.241
		c25.732-25.838,25.732-67.61,0-93.449c-3.39-3.505-3.293-9.092,0.221-12.482c3.425-3.302,8.845-3.302,12.262,0
		c32.627,32.733,32.627,85.681,0,118.413C388.629,316.866,386.387,317.793,384.039,317.793z"/>
	<circle style="fill:#EA3836;" cx="348.728" cy="256" r="17.655"/>
</g>
<g>
	<path style="fill:#FFAC3E;" d="M22.108,185.379c0,0,256,0,256,52.966v-52.966H22.108z"/>
	<path style="fill:#FFAC3E;" d="M242.797,0h-61.793c0,0,97.103,0,97.103,61.793V35.31C278.108,15.81,262.297,0,242.797,0z"/>
</g>
<g>
</g>
<g>
</g>
<g>
</g>
<g>
</g>
<g>
</g>
<g>
</g>
<g>
</g>
<g>
</g>
<g>
</g>
<g>
</g>
<g>
</g>
<g>
</g>
<g>
</g>
<g>
</g>
<g>
</g>
</svg>
