<?xml version="1.0" encoding="iso-8859-1"?>
<!-- Generator: Adobe Illustrator 19.0.0, SVG Export Plug-In . SVG Version: 6.00 Build 0)  -->
<svg version="1.1" id="Capa_1" xmlns="http://www.w3.org/2000/svg" xmlns:xlink="http://www.w3.org/1999/xlink" x="0px" y="0px"
	 viewBox="0 0 512 512" style="enable-background:new 0 0 512 512;" xml:space="preserve">
<rect x="112.814" y="164.881" style="fill:#383856;" width="225.627" height="78.102"/>
<path style="fill:#FFD33F;" d="M338.441,416.542h69.424c9.589,0,17.356-7.767,17.356-17.356V260.339
	c0-9.589-7.767-17.356-17.356-17.356H43.39c-9.589,0-17.356,7.767-17.356,17.356v138.847c0,9.589,7.767,17.356,17.356,17.356h69.424
	"/>
<rect x="69.424" y="373.153" style="fill:#383856;" width="312.407" height="17.356"/>
<polygon style="fill:#91CECE;" points="112.814,381.831 112.814,512 286.373,512 338.441,459.932 338.441,381.831 "/>
<polygon style="fill:#383856;" points="286.373,512 286.373,459.932 338.441,459.932 "/>
<circle style="fill:#EA3836;" cx="390.508" cy="277.695" r="8.678"/>
<g>
	<rect x="173.559" y="416.542" style="fill:#383856;" width="69.424" height="17.356"/>
	<rect x="138.847" y="416.542" style="fill:#383856;" width="17.356" height="17.356"/>
	<rect x="208.271" y="451.254" style="fill:#383856;" width="52.068" height="17.356"/>
	<rect x="260.339" y="416.542" style="fill:#383856;" width="52.068" height="17.356"/>
	<rect x="138.847" y="451.254" style="fill:#383856;" width="52.068" height="17.356"/>
</g>
<g>
	<path style="fill:#EA3836;" d="M477.288,121.492c-4.79,0-8.678-3.888-8.678-8.678c-0.061-52.693-42.765-95.397-95.458-95.458
		c-4.79,0-8.678-3.888-8.678-8.678S368.362,0,373.153,0c62.273,0.069,112.744,50.54,112.814,112.814
		C485.966,117.604,482.078,121.492,477.288,121.492z"/>
	<path style="fill:#EA3836;" d="M433.898,121.492c-4.79,0-8.678-3.888-8.678-8.678c-0.026-28.741-23.326-52.042-52.068-52.068
		c-4.79,0-8.678-3.888-8.678-8.678s3.888-8.678,8.678-8.678c38.322,0.043,69.38,31.102,69.424,69.424
		C442.576,117.604,438.689,121.492,433.898,121.492z"/>
	<circle style="fill:#EA3836;" cx="373.153" cy="112.814" r="17.356"/>
</g>
<polygon style="fill:#FFAC3E;" points="347.119,390.508 364.475,416.542 338.441,416.542 338.441,390.508 "/>
<path style="fill:#202033;" d="M186.576,242.983h151.864v-72.574C301.412,216.342,245.578,243.026,186.576,242.983z"/>
<g>
</g>
<g>
</g>
<g>
</g>
<g>
</g>
<g>
</g>
<g>
</g>
<g>
</g>
<g>
</g>
<g>
</g>
<g>
</g>
<g>
</g>
<g>
</g>
<g>
</g>
<g>
</g>
<g>
</g>
</svg>
