<?xml version="1.0" encoding="iso-8859-1"?>
<!-- Generator: Adobe Illustrator 19.0.0, SVG Export Plug-In . SVG Version: 6.00 Build 0)  -->
<svg version="1.1" id="Capa_1" xmlns="http://www.w3.org/2000/svg" xmlns:xlink="http://www.w3.org/1999/xlink" x="0px" y="0px"
	 viewBox="0 0 511.998 511.998" style="enable-background:new 0 0 511.998 511.998;" xml:space="preserve">
<path style="fill:#FFD33F;" d="M331.702,151.745l-13.695-13.695L443.976,12.082l41.66,41.66
	c24.096,24.096,32.518,59.745,21.739,92.074l0,0c-56.902,170.706-190.852,304.655-361.557,361.557h-0.054
	c-32.347,10.788-68.005,2.366-92.11-21.757c-20.731-20.749-41.57-41.642-41.57-41.642l125.969-125.969l13.695,13.695
	c18.193,18.202,46.707,21.019,68.122,6.748l0,0c46.968-31.312,87.269-71.613,118.582-118.582l0,0
	C352.73,198.453,349.905,169.939,331.702,151.745z"/>
<g>
	<path style="fill:#91CECE;" d="M10.536,391.536l75.077-75.077c14.055-14.055,36.837-14.055,50.891,0l1.548,1.548L12.083,443.975
		l-1.548-1.548C-3.51,428.373-3.51,405.59,10.536,391.536z"/>
	<path style="fill:#91CECE;" d="M391.537,10.534L316.46,85.612c-14.055,14.055-14.055,36.837,0,50.891l1.548,1.548L443.976,12.082
		l-1.548-1.548C428.374-3.511,405.592-3.511,391.537,10.534z"/>
</g>
<g>
	<path style="fill:#EA3836;" d="M66.07,201.035H48.075c0.09-84.444,68.518-152.872,152.962-152.962v17.996
		C126.535,66.158,66.16,126.533,66.07,201.035z"/>
	<path style="fill:#EA3836;" d="M109.259,201.035H91.264c0.072-60.6,49.173-109.701,109.773-109.773v17.996
		C150.379,109.312,109.313,150.368,109.259,201.035z"/>
	<path style="fill:#EA3836;" d="M152.449,201.035h-17.996c0.045-36.756,29.828-66.538,66.583-66.583v17.996
		C174.214,152.474,152.485,174.213,152.449,201.035z"/>
</g>
<path style="fill:#FFAC3E;" d="M485.636,53.741l-24.879-24.879C446.937,246.69,305.411,435.652,100.262,510.189
	c15.17,3.005,30.853,2.042,45.538-2.798h0.054c170.697-56.911,304.637-190.87,361.521-361.575l0,0
	C518.154,113.487,509.741,77.837,485.636,53.741z"/>
<g>
</g>
<g>
</g>
<g>
</g>
<g>
</g>
<g>
</g>
<g>
</g>
<g>
</g>
<g>
</g>
<g>
</g>
<g>
</g>
<g>
</g>
<g>
</g>
<g>
</g>
<g>
</g>
<g>
</g>
</svg>
