<?xml version="1.0" encoding="iso-8859-1"?>
<!-- Generator: Adobe Illustrator 19.0.0, SVG Export Plug-In . SVG Version: 6.00 Build 0)  -->
<svg version="1.1" id="Capa_1" xmlns="http://www.w3.org/2000/svg" xmlns:xlink="http://www.w3.org/1999/xlink" x="0px" y="0px"
	 viewBox="0 0 512.003 512.003" style="enable-background:new 0 0 512.003 512.003;" xml:space="preserve">
<path style="fill:#FFD33F;" d="M256.002,0C166.859,0.044,93.358,69.864,88.733,158.883H423.27
	C418.645,69.864,345.135,0.044,256.002,0z"/>
<path style="fill:#EA3836;" d="M88.733,158.883c-0.15,2.939-0.441,5.843-0.441,8.827v176.537c0,92.62,75.09,167.71,167.71,167.71
	s167.71-75.09,167.71-167.71V167.71c0-2.983-0.291-5.887-0.441-8.827H88.733z"/>
<path style="fill:#FFAC3E;" d="M423.27,158.883c-3.142-59.837-37.973-113.442-91.358-140.638
	c17.663,44.893,27.654,92.435,29.561,140.638H423.27z"/>
<path style="fill:#D62327;" d="M423.27,158.883h-61.788c0.238,5.861,0.45,11.731,0.45,17.654
	c0.097,126.603-55.415,246.86-151.83,328.905c88.824,25.545,181.55-25.757,207.095-114.581c4.36-15.156,6.549-30.841,6.514-46.614
	V167.71C423.711,164.726,423.42,161.822,423.27,158.883z"/>
<path style="fill:#383856;" d="M256.002,123.576L256.002,123.576c14.626,0,26.48,11.854,26.48,26.48v26.48
	c0,14.626-11.854,26.48-26.48,26.48l0,0c-14.626,0-26.48-11.854-26.48-26.48v-26.48C229.521,135.43,241.375,123.576,256.002,123.576
	z"/>
<path style="fill:#202033;" d="M269.718,127.512c2.56,4.122,3.919,8.871,3.937,13.717v26.48c0,14.626-11.854,26.48-26.48,26.48
	c-4.846-0.018-9.595-1.377-13.717-3.937c7.529,12.49,23.762,16.506,36.252,8.977c7.944-4.793,12.799-13.408,12.772-22.694v-26.48
	C282.464,140.823,277.627,132.27,269.718,127.512z"/>
<g>
</g>
<g>
</g>
<g>
</g>
<g>
</g>
<g>
</g>
<g>
</g>
<g>
</g>
<g>
</g>
<g>
</g>
<g>
</g>
<g>
</g>
<g>
</g>
<g>
</g>
<g>
</g>
<g>
</g>
</svg>
