<?xml version="1.0" encoding="iso-8859-1"?>
<!-- Generator: Adobe Illustrator 19.0.0, SVG Export Plug-In . SVG Version: 6.00 Build 0)  -->
<svg version="1.1" id="Capa_1" xmlns="http://www.w3.org/2000/svg" xmlns:xlink="http://www.w3.org/1999/xlink" x="0px" y="0px"
	 viewBox="0 0 512 512" style="enable-background:new 0 0 512 512;" xml:space="preserve">
<path style="fill:#91CECE;" d="M138.847,97.943c76.687,0,138.847,62.16,138.847,138.847l0,0c0,33.566-12.184,65.987-34.287,91.249
	l0,0c-17.061,19.499-26.459,44.518-26.459,70.422v3.211H60.746v-3.211c0-25.904-9.398-50.931-26.459-70.422l0,0
	C12.184,302.777,0,270.357,0,236.79l0,0C0,160.112,62.16,97.943,138.847,97.943z"/>
<path style="fill:#FFD33F;" d="M60.746,401.672v48.996c-0.009,12.618,6.821,24.246,17.851,30.373l43.39,24.107
	c10.483,5.823,23.24,5.823,33.723,0l43.39-24.107c11.03-6.127,17.859-17.755,17.851-30.373v-48.996H60.746z"/>
<g>
	<path style="fill:#FFAC3E;" d="M62.872,462.417c2.577,7.142,7.428,13.243,13.807,17.356h124.338
		c6.378-4.113,11.229-10.214,13.807-17.356H62.872z"/>
	<rect x="60.746" y="427.74" style="fill:#FFAC3E;" width="156.203" height="17.356"/>
</g>
<g>
	<path style="fill:#FFD33F;" d="M99.076,150.011l-7.237-15.777c6.057-2.777,12.357-5.016,18.814-6.673l4.339,16.801
		C109.533,145.776,104.205,147.668,99.076,150.011z"/>
	<path style="fill:#FFD33F;" d="M43.39,236.79H26.034c0.017-32.1,13.694-62.672,37.602-84.081l11.576,12.93
		C54.984,183.759,43.407,209.628,43.39,236.79z"/>
</g>
<g>
	<path style="fill:#EA3836;" d="M459.932,176.044c-4.79,0-8.678-3.888-8.678-8.678c-0.061-57.483-46.653-104.075-104.136-104.136
		c-4.79,0-8.678-3.888-8.678-8.678s3.888-8.678,8.678-8.678c67.072,0.069,121.422,54.42,121.492,121.492
		C468.61,172.157,464.722,176.044,459.932,176.044z"/>
	<path style="fill:#EA3836;" d="M416.542,176.044c-4.79,0-8.678-3.888-8.678-8.678c-0.035-33.532-27.214-60.711-60.746-60.746
		c-4.79,0-8.678-3.888-8.678-8.678s3.888-8.678,8.678-8.678c43.112,0.052,78.05,34.99,78.102,78.102
		C425.22,172.157,421.333,176.044,416.542,176.044z"/>
	<path style="fill:#EA3836;" d="M503.322,176.044c-4.79,0-8.678-3.888-8.678-8.678c-0.087-81.443-66.083-147.439-147.525-147.525
		c-4.79,0-8.678-3.888-8.678-8.678s3.888-8.678,8.678-8.678C438.142,2.589,511.896,76.343,512,167.367
		C512,172.157,508.112,176.044,503.322,176.044z"/>
	<path style="fill:#EA3836;" d="M347.119,202.078c-19.17,0-34.712-15.542-34.712-34.712s15.542-34.712,34.712-34.712
		s34.712,15.542,34.712,34.712S366.288,202.078,347.119,202.078z M347.119,150.011c-9.589,0-17.356,7.767-17.356,17.356
		c0,9.589,7.767,17.356,17.356,17.356s17.356-7.767,17.356-17.356C364.475,157.777,356.708,150.011,347.119,150.011z"/>
</g>
<path style="fill:#83B2B7;" d="M59.409,382.181c0.859,5.389,1.302,10.83,1.336,16.28v3.211h156.203v-3.211
	c0-25.904,9.398-50.931,26.459-70.422c22.103-25.262,34.287-57.682,34.287-91.249l0,0c-0.052-7.272-0.677-14.527-1.857-21.695
	C239.46,306.014,156.577,369.997,59.409,382.181z"/>
<g>
</g>
<g>
</g>
<g>
</g>
<g>
</g>
<g>
</g>
<g>
</g>
<g>
</g>
<g>
</g>
<g>
</g>
<g>
</g>
<g>
</g>
<g>
</g>
<g>
</g>
<g>
</g>
<g>
</g>
</svg>
