<?xml version="1.0" encoding="iso-8859-1"?>
<!-- Generator: Adobe Illustrator 19.0.0, SVG Export Plug-In . SVG Version: 6.00 Build 0)  -->
<svg version="1.1" id="Capa_1" xmlns="http://www.w3.org/2000/svg" xmlns:xlink="http://www.w3.org/1999/xlink" x="0px" y="0px"
	 viewBox="0 0 512 512" style="enable-background:new 0 0 512 512;" xml:space="preserve">
<path style="fill:#FFD33F;" d="M17.655,83.862v317.793h476.69V83.862c0-4.873-3.955-8.828-8.828-8.828H26.483
	C21.61,75.034,17.655,78.989,17.655,83.862z"/>
<path style="fill:#91CECE;" d="M57.379,110.345h397.241c2.436,0,4.414,1.977,4.414,4.414v247.172c0,2.436-1.977,4.414-4.414,4.414
	H57.379c-2.436,0-4.414-1.977-4.414-4.414V114.759C52.966,112.322,54.943,110.345,57.379,110.345z"/>
<g>
	<rect x="326.621" y="136.828" style="fill:#383856;" width="70.621" height="17.655"/>
	<rect x="414.897" y="136.828" style="fill:#383856;" width="17.655" height="17.655"/>
</g>
<path style="fill:#EA3836;" d="M17.655,401.655H0v8.828c0,14.627,11.855,26.483,26.483,26.483h459.034
	c14.627,0,26.483-11.855,26.483-26.483v-8.828H17.655z"/>
<path style="fill:#FFD33F;" d="M17.655,401.655h39.247c-13.25-2.798-26.35-6.268-39.247-10.39V401.655z"/>
<path style="fill:#FFAC3E;" d="M494.345,204.853c-10.408,18.282-22.21,35.734-35.31,52.198v104.881c0,2.436-1.977,4.414-4.414,4.414
	H325.288c-31.541,16.102-65.068,27.975-99.708,35.31h268.765V204.853z"/>
<path style="fill:#83B2B7;" d="M325.288,366.345h129.333c2.436,0,4.414-1.977,4.414-4.414V257.05
	C422.771,302.618,377.167,339.889,325.288,366.345z"/>
<g>
</g>
<g>
</g>
<g>
</g>
<g>
</g>
<g>
</g>
<g>
</g>
<g>
</g>
<g>
</g>
<g>
</g>
<g>
</g>
<g>
</g>
<g>
</g>
<g>
</g>
<g>
</g>
<g>
</g>
</svg>
