<?xml version="1.0" encoding="iso-8859-1"?>
<!-- Generator: Adobe Illustrator 19.0.0, SVG Export Plug-In . SVG Version: 6.00 Build 0)  -->
<svg version="1.1" id="Capa_1" xmlns="http://www.w3.org/2000/svg" xmlns:xlink="http://www.w3.org/1999/xlink" x="0px" y="0px"
	 viewBox="0 0 512 512" style="enable-background:new 0 0 512 512;" xml:space="preserve">
<g>
	<path style="fill:#FFD33F;" d="M70.621,0h123.586c9.754,0,17.655,7.901,17.655,17.655v476.69c0,9.754-7.901,17.655-17.655,17.655
		H70.621c-9.754,0-17.655-7.901-17.655-17.655V17.655C52.966,7.901,60.866,0,70.621,0z"/>
	<path style="fill:#FFD33F;" d="M317.793,0h123.586c9.754,0,17.655,7.901,17.655,17.655v476.69c0,9.754-7.901,17.655-17.655,17.655
		H317.793c-9.754,0-17.655-7.901-17.655-17.655V17.655C300.138,7.901,308.039,0,317.793,0z"/>
</g>
<g>
	<path style="fill:#FFAC3E;" d="M52.966,494.345c0,9.754,7.901,17.655,17.655,17.655h123.586c9.754,0,17.655-7.901,17.655-17.655
		V336.711c-51.218,20.153-104.51,34.56-158.897,42.973V494.345z"/>
	<path style="fill:#FFAC3E;" d="M300.138,494.345c0,9.754,7.901,17.655,17.655,17.655h123.586c9.754,0,17.655-7.901,17.655-17.655
		V177.938c-47.572,45.965-100.996,85.46-158.897,117.46V494.345z"/>
</g>
<g>
	<rect x="123.586" y="388.414" style="fill:#383856;" width="17.655" height="17.655"/>
	<rect x="123.586" y="423.724" style="fill:#383856;" width="17.655" height="17.655"/>
	<rect x="370.759" y="388.414" style="fill:#383856;" width="17.655" height="17.655"/>
	<rect x="370.759" y="423.724" style="fill:#383856;" width="17.655" height="17.655"/>
</g>
<circle style="fill:#EA3836;" cx="344.276" cy="229.517" r="17.655"/>
<path style="fill:#D62327;" d="M351.514,213.451c4.043,8.828,0.15,19.262-8.678,23.305c-4.643,2.127-9.984,2.127-14.627,0
	c3.964,8.907,14.398,12.924,23.305,8.96c8.907-3.964,12.924-14.398,8.96-23.305C358.7,218.421,355.505,215.225,351.514,213.451z"/>
<circle style="fill:#EA3836;" cx="414.897" cy="229.517" r="17.655"/>
<path style="fill:#D62327;" d="M422.135,213.451c4.043,8.828,0.15,19.262-8.678,23.305c-4.643,2.127-9.984,2.127-14.627,0
	c3.964,8.907,14.398,12.924,23.305,8.96c8.907-3.964,12.924-14.398,8.96-23.305C429.321,218.421,426.125,215.225,422.135,213.451z"
	/>
<circle style="fill:#91CECE;" cx="379.586" cy="194.207" r="17.655"/>
<path style="fill:#83B2B7;" d="M386.825,178.141c4.043,8.828,0.15,19.262-8.678,23.305c-4.643,2.127-9.984,2.127-14.627,0
	c3.964,8.907,14.398,12.924,23.305,8.96c8.907-3.964,12.924-14.398,8.96-23.305C394.01,183.111,390.815,179.915,386.825,178.141z"/>
<circle style="fill:#91CECE;" cx="379.586" cy="264.828" r="17.655"/>
<path style="fill:#83B2B7;" d="M386.825,248.761c4.043,8.828,0.15,19.262-8.678,23.305c-4.643,2.127-9.984,2.127-14.627,0
	c3.964,8.907,14.398,12.924,23.305,8.96c8.907-3.964,12.924-14.398,8.96-23.305C394.01,253.731,390.815,250.536,386.825,248.761z"/>
<circle style="fill:#EA3836;" cx="97.103" cy="229.517" r="17.655"/>
<path style="fill:#D62327;" d="M104.342,213.451c4.043,8.828,0.15,19.262-8.678,23.305c-4.643,2.127-9.984,2.127-14.627,0
	c3.964,8.907,14.398,12.924,23.305,8.96s12.924-14.398,8.96-23.305C111.528,218.421,108.332,215.225,104.342,213.451z"/>
<circle style="fill:#EA3836;" cx="167.724" cy="229.517" r="17.655"/>
<path style="fill:#D62327;" d="M174.963,213.451c4.043,8.828,0.15,19.262-8.678,23.305c-4.643,2.127-9.984,2.127-14.627,0
	c3.964,8.907,14.398,12.924,23.305,8.96c8.907-3.964,12.924-14.398,8.96-23.305C182.148,218.421,178.953,215.225,174.963,213.451z"
	/>
<circle style="fill:#91CECE;" cx="132.414" cy="194.207" r="17.655"/>
<path style="fill:#83B2B7;" d="M139.652,178.141c4.043,8.828,0.15,19.262-8.678,23.305c-4.643,2.127-9.984,2.127-14.627,0
	c3.964,8.907,14.398,12.924,23.305,8.96c8.907-3.964,12.924-14.398,8.96-23.305C146.838,183.111,143.642,179.915,139.652,178.141z"
	/>
<circle style="fill:#91CECE;" cx="132.414" cy="264.828" r="17.655"/>
<path style="fill:#83B2B7;" d="M139.652,248.761c4.043,8.828,0.15,19.262-8.678,23.305c-4.643,2.127-9.984,2.127-14.627,0
	c3.964,8.907,14.398,12.924,23.305,8.96c8.907-3.964,12.924-14.398,8.96-23.305C146.838,253.731,143.642,250.536,139.652,248.761z"
	/>
<path style="fill:#383856;" d="M119.172,35.31h26.483c2.436,0,4.414,1.977,4.414,4.414v17.655c0,2.436,1.977,4.414,4.414,4.414
	h17.655c2.436,0,4.414,1.977,4.414,4.414V92.69c0,2.436-1.977,4.414-4.414,4.414h-17.655c-2.436,0-4.414,1.977-4.414,4.414v17.655
	c0,2.436-1.977,4.414-4.414,4.414h-26.483c-2.436,0-4.414-1.977-4.414-4.414v-17.655c0-2.436-1.977-4.414-4.414-4.414H92.69
	c-2.436,0-4.414-1.977-4.414-4.414V66.207c0-2.436,1.977-4.414,4.414-4.414h17.655c2.436,0,4.414-1.977,4.414-4.414V39.724
	C114.759,37.288,116.736,35.31,119.172,35.31z"/>
<path style="fill:#202033;" d="M172.138,61.793h-7.548c-7.662,20.374-28.416,31.435-50.591,37.402
	c0.477,0.68,0.742,1.492,0.759,2.322v17.655c0,2.436,1.977,4.414,4.414,4.414h26.483c2.436,0,4.414-1.977,4.414-4.414v-17.655
	c0-2.436,1.977-4.414,4.414-4.414h17.655c2.436,0,4.414-1.977,4.414-4.414V66.207C176.552,63.77,174.574,61.793,172.138,61.793z"/>
<path style="fill:#383856;" d="M366.345,35.31h26.483c2.436,0,4.414,1.977,4.414,4.414v17.655c0,2.436,1.977,4.414,4.414,4.414
	h17.655c2.436,0,4.414,1.977,4.414,4.414V92.69c0,2.436-1.977,4.414-4.414,4.414h-17.655c-2.436,0-4.414,1.977-4.414,4.414v17.655
	c0,2.436-1.977,4.414-4.414,4.414h-26.483c-2.436,0-4.414-1.977-4.414-4.414v-17.655c0-2.436-1.977-4.414-4.414-4.414h-17.655
	c-2.436,0-4.414-1.977-4.414-4.414V66.207c0-2.436,1.977-4.414,4.414-4.414h17.655c2.436,0,4.414-1.977,4.414-4.414V39.724
	C361.931,37.288,363.908,35.31,366.345,35.31z"/>
<path style="fill:#202033;" d="M419.31,61.793h-7.548c-7.662,20.374-28.416,31.435-50.591,37.402
	c0.477,0.68,0.742,1.492,0.759,2.322v17.655c0,2.436,1.977,4.414,4.414,4.414h26.483c2.436,0,4.414-1.977,4.414-4.414v-17.655
	c0-2.436,1.977-4.414,4.414-4.414h17.655c2.436,0,4.414-1.977,4.414-4.414V66.207C423.724,63.77,421.747,61.793,419.31,61.793z"/>
<g>
</g>
<g>
</g>
<g>
</g>
<g>
</g>
<g>
</g>
<g>
</g>
<g>
</g>
<g>
</g>
<g>
</g>
<g>
</g>
<g>
</g>
<g>
</g>
<g>
</g>
<g>
</g>
<g>
</g>
</svg>
