<?xml version="1.0" encoding="iso-8859-1"?>
<!-- Generator: Adobe Illustrator 19.0.0, SVG Export Plug-In . SVG Version: 6.00 Build 0)  -->
<svg version="1.1" id="Capa_1" xmlns="http://www.w3.org/2000/svg" xmlns:xlink="http://www.w3.org/1999/xlink" x="0px" y="0px"
	 viewBox="0 0 511.999 511.999" style="enable-background:new 0 0 511.999 511.999;" xml:space="preserve">
<path style="fill:#FFD33F;" d="M223.965,103.84l-33.026-14.841c-54.175-24.352-117.844-0.168-142.188,54.016
	c-1.729,3.856-3.238,7.809-4.5,11.841l-7.738,24.705L0.929,378.404c-4.994,24.299,10.65,48.052,34.949,53.046
	c2.612,0.538,5.259,0.838,7.923,0.909l0,0c17.576,0.926,34.632-6.123,46.42-19.2l60.581-52.058
	c11.32-9.723,25.358-15.732,40.208-17.214l5.294-0.529c39.696-3.962,79.701-3.962,119.397,0l5.294,0.529
	c14.85,1.482,28.888,7.491,40.208,17.214l60.581,52.058c11.788,13.076,28.843,20.126,46.42,19.2l0,0
	c24.802-0.618,44.399-21.229,43.781-46.031c-0.071-2.665-0.371-5.312-0.909-7.923l-35.558-198.807l-7.756-24.741
	c-17.805-56.672-78.183-88.172-134.847-70.366c-4.041,1.271-8.003,2.779-11.867,4.509l-33.026,14.841
	C267.649,112.981,244.338,112.981,223.965,103.84z"/>
<g>
	<path style="fill:#FFAC3E;" d="M88.359,370.675c-28.385,0-56.672-3.256-84.307-9.706l-3.123,17.479
		c-4.994,24.299,10.65,48.052,34.949,53.046c2.612,0.538,5.268,0.838,7.932,0.909c17.576,0.926,34.632-6.123,46.42-19.2
		l54.378-46.764C125.991,369.263,107.188,370.684,88.359,370.675z"/>
	<path style="fill:#FFAC3E;" d="M511.076,378.404l-35.558-198.807l-7.756-24.741c-5.1-16.244-14.011-31.032-25.993-43.12
		c-32.655,102.968-108.5,186.631-207.789,229.186c27.255-1.041,54.555-0.238,81.704,2.426l5.294,0.529
		c14.85,1.482,28.888,7.491,40.208,17.214l60.581,52.058c11.788,13.076,28.843,20.126,46.42,19.2
		c24.802-0.609,44.408-21.211,43.799-46.014C511.923,383.671,511.614,381.016,511.076,378.404z"/>
</g>
<path style="fill:#383856;" d="M128.064,141.268h26.47c2.435,0,4.412,1.976,4.412,4.412v17.647c0,2.435,1.976,4.412,4.412,4.412
	h17.647c2.435,0,4.412,1.976,4.412,4.412v26.47c0,2.435-1.976,4.412-4.412,4.412h-17.647c-2.435,0-4.412,1.976-4.412,4.412v17.647
	c0,2.435-1.976,4.412-4.412,4.412h-26.47c-2.435,0-4.412-1.976-4.412-4.412v-17.647c0-2.435-1.976-4.412-4.412-4.412h-17.647
	c-2.435,0-4.412-1.976-4.412-4.412v-26.47c0-2.435,1.976-4.412,4.412-4.412h17.647c2.435,0,4.412-1.976,4.412-4.412V145.68
	C123.652,143.245,125.629,141.268,128.064,141.268z"/>
<path style="fill:#202033;" d="M181.004,167.738h-7.544c-7.659,20.364-28.402,31.42-50.566,37.384
	c0.476,0.679,0.741,1.491,0.759,2.321v17.647c0,2.435,1.976,4.412,4.412,4.412h26.47c2.435,0,4.412-1.976,4.412-4.412v-17.647
	c0-2.435,1.976-4.412,4.412-4.412h17.647c2.435,0,4.412-1.976,4.412-4.412v-26.47C185.416,169.715,183.448,167.738,181.004,167.738z
	"/>
<circle style="fill:#EA3836;" cx="335.377" cy="185.376" r="17.647"/>
<path style="fill:#D62327;" d="M342.647,169.326c4.041,8.823,0.15,19.252-8.673,23.294c-4.641,2.126-9.979,2.126-14.62,0
	c3.962,8.903,14.391,12.917,23.294,8.956c8.903-3.962,12.917-14.391,8.956-23.294C349.83,174.294,346.644,171.1,342.647,169.326z"/>
<circle style="fill:#EA3836;" cx="405.964" cy="185.376" r="17.647"/>
<path style="fill:#D62327;" d="M413.234,169.326c4.041,8.823,0.15,19.252-8.673,23.294c-4.641,2.126-9.979,2.126-14.62,0
	c3.962,8.903,14.391,12.917,23.294,8.956c8.903-3.962,12.917-14.391,8.956-23.294C420.416,174.294,417.231,171.1,413.234,169.326z"
	/>
<circle style="fill:#91CECE;" cx="370.67" cy="150.083" r="17.647"/>
<path style="fill:#83B2B7;" d="M377.941,134.033c4.041,8.823,0.15,19.252-8.673,23.294c-4.641,2.126-9.979,2.126-14.62,0
	c3.962,8.903,14.391,12.917,23.294,8.956c8.903-3.962,12.917-14.391,8.956-23.294C385.123,139.001,381.938,135.807,377.941,134.033z
	"/>
<circle style="fill:#91CECE;" cx="370.67" cy="220.669" r="17.647"/>
<path style="fill:#83B2B7;" d="M377.941,204.62c4.041,8.823,0.15,19.253-8.673,23.294c-4.641,2.126-9.979,2.126-14.62,0
	c3.962,8.903,14.391,12.917,23.294,8.956c8.903-3.962,12.917-14.391,8.956-23.294C385.123,209.587,381.938,206.393,377.941,204.62z"
	/>
<g>
</g>
<g>
</g>
<g>
</g>
<g>
</g>
<g>
</g>
<g>
</g>
<g>
</g>
<g>
</g>
<g>
</g>
<g>
</g>
<g>
</g>
<g>
</g>
<g>
</g>
<g>
</g>
<g>
</g>
</svg>
