<?xml version="1.0" encoding="iso-8859-1"?>
<!-- Generator: Adobe Illustrator 19.0.0, SVG Export Plug-In . SVG Version: 6.00 Build 0)  -->
<svg version="1.1" id="Capa_1" xmlns="http://www.w3.org/2000/svg" xmlns:xlink="http://www.w3.org/1999/xlink" x="0px" y="0px"
	 viewBox="0 0 512 512" style="enable-background:new 0 0 512 512;" xml:space="preserve">
<path style="fill:#FFD33F;" d="M26.483,114.759h459.034c14.627,0,26.483,11.855,26.483,26.483v229.517
	c0,14.627-11.855,26.483-26.483,26.483H26.483C11.855,397.241,0,385.386,0,370.759V141.241C0,126.614,11.855,114.759,26.483,114.759
	z"/>
<rect x="158.897" y="150.069" style="fill:#91CECE;" width="194.207" height="211.862"/>
<path style="fill:#FFAC3E;" d="M353.103,361.931H158.897v-7.168c-50.644,14.636-102.541,24.549-155.021,29.608
	c4.749,7.962,13.33,12.853,22.607,12.871h459.034c14.627,0,26.483-11.855,26.483-26.483V151.314
	c-48.137,45.992-101.464,86.228-158.897,119.905V361.931z"/>
<path style="fill:#83B2B7;" d="M353.103,361.931v-90.712c-61.016,35.814-126.252,63.876-194.207,83.544v7.168H353.103z"/>
<g>
	<rect x="220.69" y="317.793" style="fill:#383856;" width="61.793" height="17.655"/>
	<rect x="185.379" y="317.793" style="fill:#383856;" width="17.655" height="17.655"/>
</g>
<circle style="fill:#EA3836;" cx="397.241" cy="229.517" r="17.655"/>
<path style="fill:#D62327;" d="M404.48,213.451c4.043,8.828,0.15,19.262-8.678,23.305c-4.643,2.127-9.984,2.127-14.627,0
	c3.964,8.907,14.398,12.924,23.305,8.96c8.907-3.964,12.924-14.398,8.96-23.305C411.666,218.421,408.47,215.225,404.48,213.451z"/>
<circle style="fill:#EA3836;" cx="467.862" cy="229.517" r="17.655"/>
<path style="fill:#D62327;" d="M475.101,213.451c4.043,8.828,0.15,19.262-8.678,23.305c-4.643,2.127-9.984,2.127-14.627,0
	c3.964,8.907,14.398,12.924,23.305,8.96c8.907-3.964,12.924-14.398,8.96-23.305C482.286,218.421,479.091,215.225,475.101,213.451z"
	/>
<circle style="fill:#91CECE;" cx="432.552" cy="194.207" r="17.655"/>
<path style="fill:#83B2B7;" d="M439.79,178.141c4.043,8.828,0.15,19.262-8.678,23.305c-4.643,2.127-9.984,2.127-14.627,0
	c3.964,8.907,14.398,12.924,23.305,8.96c8.907-3.964,12.924-14.398,8.96-23.305C446.976,183.111,443.78,179.915,439.79,178.141z"/>
<circle style="fill:#91CECE;" cx="432.552" cy="264.828" r="17.655"/>
<path style="fill:#83B2B7;" d="M439.79,248.761c4.043,8.828,0.15,19.262-8.678,23.305c-4.643,2.127-9.984,2.127-14.627,0
	c3.964,8.907,14.398,12.924,23.305,8.96c8.907-3.964,12.924-14.398,8.96-23.305C446.976,253.731,443.78,250.536,439.79,248.761z"/>
<path style="fill:#383856;" d="M66.207,185.379H92.69c2.436,0,4.414,1.977,4.414,4.414v17.655c0,2.436,1.977,4.414,4.414,4.414
	h17.655c2.436,0,4.414,1.977,4.414,4.414v26.483c0,2.436-1.977,4.414-4.414,4.414h-17.655c-2.436,0-4.414,1.977-4.414,4.414v17.655
	c0,2.436-1.977,4.414-4.414,4.414H66.207c-2.436,0-4.414-1.977-4.414-4.414v-17.655c0-2.436-1.977-4.414-4.414-4.414H39.724
	c-2.436,0-4.414-1.977-4.414-4.414v-26.483c0-2.436,1.977-4.414,4.414-4.414h17.655c2.436,0,4.414-1.977,4.414-4.414v-17.655
	C61.793,187.357,63.77,185.379,66.207,185.379z"/>
<path style="fill:#202033;" d="M119.172,211.862h-7.548c-7.662,20.374-28.416,31.435-50.591,37.402
	c0.477,0.68,0.742,1.492,0.759,2.322v17.655c0,2.436,1.977,4.414,4.414,4.414H92.69c2.436,0,4.414-1.977,4.414-4.414v-17.655
	c0-2.436,1.977-4.414,4.414-4.414h17.655c2.436,0,4.414-1.977,4.414-4.414v-26.483C123.586,213.839,121.609,211.862,119.172,211.862
	z"/>
<circle style="fill:#EA3836;" cx="79.448" cy="335.448" r="17.655"/>
<path style="fill:#D62327;" d="M86.687,319.382c4.043,8.828,0.15,19.262-8.678,23.305c-4.643,2.127-9.984,2.127-14.627,0
	c3.964,8.907,14.398,12.924,23.305,8.96s12.924-14.398,8.96-23.305C93.873,324.352,90.677,321.156,86.687,319.382z"/>
<path style="fill:#91CECE;" d="M485.517,114.759h-61.793l7.159,28.619c0.98,3.928,4.511,6.691,8.563,6.691H512v-8.828
	C512,126.614,500.145,114.759,485.517,114.759z"/>
<path style="fill:#83B2B7;" d="M430.883,143.378c0.98,3.928,4.511,6.691,8.563,6.691H512v-8.828
	c-30.702,0.009-60.866-8.042-87.49-23.331L430.883,143.378z"/>
<path style="fill:#91CECE;" d="M81.117,143.378l7.159-28.619H26.483C11.855,114.759,0,126.614,0,141.241v8.828h72.554
	C76.606,150.069,80.137,147.306,81.117,143.378z"/>
<path style="fill:#83B2B7;" d="M2.207,141.241c-0.742,0-1.457-0.097-2.198-0.115v8.942h72.554c4.052,0,7.583-2.763,8.563-6.691
	l7.15-28.619H74.664C54.404,131.875,28.734,141.259,2.207,141.241z"/>
<g>
</g>
<g>
</g>
<g>
</g>
<g>
</g>
<g>
</g>
<g>
</g>
<g>
</g>
<g>
</g>
<g>
</g>
<g>
</g>
<g>
</g>
<g>
</g>
<g>
</g>
<g>
</g>
<g>
</g>
</svg>
