<?xml version="1.0" encoding="iso-8859-1"?>
<!-- Generator: Adobe Illustrator 19.0.0, SVG Export Plug-In . SVG Version: 6.00 Build 0)  -->
<svg version="1.1" id="Capa_1" xmlns="http://www.w3.org/2000/svg" xmlns:xlink="http://www.w3.org/1999/xlink" x="0px" y="0px"
	 viewBox="0 0 512 512" style="enable-background:new 0 0 512 512;" xml:space="preserve">
<polyline style="fill:#91CECE;" points="269.017,164.881 321.085,112.814 399.186,190.915 347.119,242.983 "/>
<path style="fill:#83B2B7;" d="M272.757,161.141l-3.74,3.74l78.102,78.102l30.243-30.243
	C339.69,201.919,304.267,184.441,272.757,161.141z"/>
<path style="fill:#FFD33F;" d="M251.661,147.525l-228.3,228.3C8.4,390.786,0,411.075,0,432.232l0,0
	C0.009,476.281,35.719,511.991,79.768,512l0,0c21.157,0,41.446-8.4,56.407-23.361l228.3-228.3L251.661,147.525z"/>
<path style="fill:#FFAC3E;" d="M314.073,209.937c-40.353,138.5-152.94,244.033-293.758,275.343
	c29.227,32.863,79.56,35.823,112.432,6.595c1.172-1.041,2.317-2.126,3.428-3.237l228.3-228.3l-17.356-17.356L314.073,209.937z"/>
<g>
	
		<rect x="48.468" y="381.829" transform="matrix(-0.7071 0.7071 -0.7071 -0.7071 379.8176 623.6879)" style="fill:#383856;" width="24.541" height="17.356"/>
	
		<rect x="75.988" y="329.762" transform="matrix(-0.7071 0.7071 -0.7071 -0.7071 431.8811 497.9895)" style="fill:#383856;" width="73.632" height="17.356"/>
</g>
<g>
	<path style="fill:#EA3836;" d="M503.322,138.847c-4.79,0-8.678-3.888-8.678-8.678c-0.069-62.273-50.54-112.744-112.814-112.814
		c-4.79,0-8.678-3.888-8.678-8.678S377.04,0,381.831,0C453.684,0.078,511.922,58.316,512,130.169
		C512,134.96,508.112,138.847,503.322,138.847z"/>
	<path style="fill:#EA3836;" d="M468.61,138.847c-4.79,0-8.678-3.888-8.678-8.678c-0.052-43.112-34.99-78.05-78.102-78.102
		c-4.79,0-8.678-3.888-8.678-8.678s3.888-8.678,8.678-8.678c52.693,0.061,95.397,42.765,95.458,95.458
		C477.288,134.96,473.4,138.847,468.61,138.847z"/>
	<path style="fill:#EA3836;" d="M433.898,138.847c-4.79,0-8.678-3.888-8.678-8.678c-0.026-23.951-19.439-43.364-43.39-43.39
		c-4.79,0-8.678-3.888-8.678-8.678s3.888-8.678,8.678-8.678c33.532,0.035,60.711,27.214,60.746,60.746
		C442.576,134.96,438.689,138.847,433.898,138.847z"/>
	<circle style="fill:#EA3836;" cx="390.508" cy="121.492" r="17.356"/>
</g>
<g>
	
		<rect x="312.403" y="152.613" transform="matrix(-0.7071 0.7071 -0.7071 -0.7071 664.71 54.4343)" style="fill:#383856;" width="17.356" height="24.541"/>
	
		<rect x="338.434" y="178.646" transform="matrix(-0.7071 0.7071 -0.7071 -0.7071 727.5554 80.4707)" style="fill:#383856;" width="17.356" height="24.541"/>
</g>
<g>
</g>
<g>
</g>
<g>
</g>
<g>
</g>
<g>
</g>
<g>
</g>
<g>
</g>
<g>
</g>
<g>
</g>
<g>
</g>
<g>
</g>
<g>
</g>
<g>
</g>
<g>
</g>
<g>
</g>
</svg>
