<?xml version="1.0" encoding="iso-8859-1"?>
<!-- Generator: Adobe Illustrator 19.0.0, SVG Export Plug-In . SVG Version: 6.00 Build 0)  -->
<svg version="1.1" id="Capa_1" xmlns="http://www.w3.org/2000/svg" xmlns:xlink="http://www.w3.org/1999/xlink" x="0px" y="0px"
	 viewBox="0 0 512 512" style="enable-background:new 0 0 512 512;" xml:space="preserve">
<path style="fill:#FFD33F;" d="M17.655,317.793v-79.448C17.655,106.708,124.363,0,256,0l0,0
	c131.637,0,238.345,106.708,238.345,238.345v79.448h-35.31v-79.448C459.034,126.208,368.137,35.31,256,35.31l0,0
	c-112.137,0-203.034,90.898-203.034,203.034v79.448H17.655z"/>
<g>
	<path style="fill:#383856;" d="M441.379,344.276h-17.655c-9.754,0-17.655,7.901-17.655,17.655v105.931
		c0,9.754,7.901,17.655,17.655,17.655h17.655V344.276z"/>
	<path style="fill:#383856;" d="M70.621,344.276h17.655c9.754,0,17.655,7.901,17.655,17.655v105.931
		c0,9.754-7.901,17.655-17.655,17.655H70.621V344.276z"/>
</g>
<g>
	<path style="fill:#91CECE;" d="M459.034,317.793h35.31c9.754,0,17.655,7.901,17.655,17.655v158.897
		c0,9.754-7.901,17.655-17.655,17.655h-35.31c-9.754,0-17.655-7.901-17.655-17.655V335.448
		C441.379,325.694,449.28,317.793,459.034,317.793z"/>
	<path style="fill:#91CECE;" d="M17.655,317.793h35.31c9.754,0,17.655,7.901,17.655,17.655v158.897
		c0,9.754-7.901,17.655-17.655,17.655h-35.31C7.901,512,0,504.099,0,494.345V335.448C0,325.694,7.901,317.793,17.655,317.793z"/>
</g>
<g>
	<path style="fill:#EA3836;" d="M167.724,476.69c-4.873,0-8.828-3.955-8.828-8.828c0-2.339,0.927-4.582,2.586-6.241
		c25.768-25.821,25.768-67.628,0-93.449c-3.443-3.452-3.443-9.039,0-12.491c3.443-3.452,9.039-3.443,12.491,0
		c32.627,32.733,32.627,85.681,0,118.413C172.314,475.763,170.072,476.69,167.724,476.69z"/>
	<path style="fill:#EA3836;" d="M344.276,476.69c-2.348,0-4.59-0.927-6.25-2.586c-32.627-32.733-32.627-85.681,0-118.413
		c3.443-3.452,9.039-3.452,12.491,0c3.452,3.452,3.452,9.039,0,12.491c-25.768,25.821-25.768,67.628,0,93.449
		c3.443,3.452,3.443,9.039,0,12.482C348.857,475.763,346.615,476.69,344.276,476.69z"/>
	<path style="fill:#EA3836;" d="M141.241,450.207c-4.873,0-8.828-3.955-8.828-8.828c0-2.339,0.927-4.582,2.586-6.241
		c11.158-11.185,11.158-29.299,0-40.483c-3.39-3.505-3.293-9.092,0.221-12.482c3.425-3.302,8.845-3.302,12.262,0
		c18.044,18.088,18.044,47.36,0,65.448C145.832,449.28,143.581,450.207,141.241,450.207z"/>
	<path style="fill:#EA3836;" d="M370.759,450.207c-2.339,0-4.59-0.927-6.241-2.586c-18.044-18.088-18.044-47.36,0-65.448
		c3.505-3.39,9.092-3.293,12.482,0.212c3.302,3.425,3.302,8.845,0,12.27c-11.158,11.185-11.158,29.299,0,40.483
		c3.443,3.452,3.443,9.039,0,12.482C375.34,449.28,373.098,450.207,370.759,450.207z"/>
</g>
<g>
	<path style="fill:#83B2B7;" d="M0,482.048v12.297C0,504.099,7.901,512,17.655,512h35.31c9.754,0,17.655-7.901,17.655-17.655
		v-72.483C57.565,451.699,31.532,473.891,0,482.048z"/>
	<path style="fill:#83B2B7;" d="M441.379,482.048v12.297c0,9.754,7.901,17.655,17.655,17.655h35.31
		c9.754,0,17.655-7.901,17.655-17.655v-72.483C498.944,451.699,472.911,473.891,441.379,482.048z"/>
</g>
<g>
	<path style="fill:#202033;" d="M71.089,344.276h-0.468v141.241h17.655c9.754,0,17.655-7.901,17.655-17.655v-21.027
		C85.389,416.362,73.357,380.954,71.089,344.276z"/>
	<path style="fill:#202033;" d="M441.379,348.134v-3.858h-1.854C440.17,345.547,440.788,346.836,441.379,348.134z"/>
	<path style="fill:#202033;" d="M406.246,469.628c0.883,9.004,8.439,15.872,17.479,15.89h17.655v-56.823
		C433.761,445.378,421.579,459.564,406.246,469.628z"/>
</g>
<g>
	<path style="fill:#FFAC3E;" d="M459.034,299.697v18.097h35.31v-57.379C494.31,280.594,479.1,297.516,459.034,299.697z"/>
	<path style="fill:#FFAC3E;" d="M17.655,299.697v18.097h35.31v-57.379C52.93,280.594,37.72,297.516,17.655,299.697z"/>
</g>
<g>
</g>
<g>
</g>
<g>
</g>
<g>
</g>
<g>
</g>
<g>
</g>
<g>
</g>
<g>
</g>
<g>
</g>
<g>
</g>
<g>
</g>
<g>
</g>
<g>
</g>
<g>
</g>
<g>
</g>
</svg>
