<?xml version="1.0" encoding="iso-8859-1"?>
<!-- Generator: Adobe Illustrator 19.0.0, SVG Export Plug-In . SVG Version: 6.00 Build 0)  -->
<svg version="1.1" id="Capa_1" xmlns="http://www.w3.org/2000/svg" xmlns:xlink="http://www.w3.org/1999/xlink" x="0px" y="0px"
	 viewBox="0 0 512 512" style="enable-background:new 0 0 512 512;" xml:space="preserve">
<g>
	<path style="fill:#FFD33F;" d="M34.133,72.533h51.2v34.133c0,14.14-11.46,25.6-25.6,25.6l0,0c-14.14,0-25.6-11.46-25.6-25.6V72.533
		z"/>
	<path style="fill:#FFD33F;" d="M426.667,72.533h51.2v34.133c0,14.14-11.46,25.6-25.6,25.6l0,0c-14.14,0-25.6-11.46-25.6-25.6
		V72.533z"/>
</g>
<path style="fill:#EA3836;" d="M426.667,72.533v34.133l0,0c-47.642,0.009-91.793,25.003-116.309,65.852l0,0
	C303.113,184.61,290.048,192,275.951,192h-39.902c-14.097,0-27.162-7.39-34.406-19.482l0,0
	c-24.516-40.849-68.668-65.843-116.309-65.852l0,0V72.533l94.242-9.387c50.816-5.086,102.025-5.086,152.841,0L426.667,72.533z"/>
<path style="fill:#D62327;" d="M179.567,144.751c8.542,8.243,15.966,17.587,22.076,27.767l0,0
	C208.887,184.61,221.952,192,236.049,192h39.902c14.097,0,27.162-7.39,34.406-19.482l0,0
	c24.516-40.849,68.668-65.843,116.309-65.852V72.533l-65.51-6.554C308.395,107.401,245.862,134.528,179.567,144.751z"/>
<g>
	<rect y="29.867" style="fill:#383856;" width="119.467" height="17.067"/>
	<rect x="51.2" y="38.4" style="fill:#383856;" width="17.067" height="34.133"/>
	<rect x="392.533" y="29.867" style="fill:#383856;" width="119.467" height="17.067"/>
	<rect x="443.733" y="38.4" style="fill:#383856;" width="17.067" height="34.133"/>
</g>
<g>
	<path style="fill:#EA3836;" d="M256,413.867c-103.637-0.119-187.614-84.096-187.733-187.733h17.067
		C85.333,320.393,161.741,396.8,256,396.8s170.667-76.408,170.667-170.667h17.067C443.614,329.771,359.637,413.747,256,413.867z"/>
	<path style="fill:#EA3836;" d="M256,345.6c-65.954-0.068-119.398-53.513-119.467-119.467H153.6c0,56.55,45.85,102.4,102.4,102.4
		s102.4-45.85,102.4-102.4h17.067C375.398,292.087,321.954,345.532,256,345.6z"/>
	<path style="fill:#EA3836;" d="M256,277.333c-28.262-0.026-51.174-22.938-51.2-51.2h17.067c0,18.85,15.283,34.133,34.133,34.133
		c18.85,0,34.133-15.283,34.133-34.133H307.2C307.174,254.396,284.262,277.308,256,277.333z"/>
	<path style="fill:#EA3836;" d="M256,482.133c-141.321-0.162-255.838-114.679-256-256h17.067
		c0,131.959,106.974,238.933,238.933,238.933s238.933-106.974,238.933-238.933H512C511.838,367.454,397.321,481.971,256,482.133z"/>
</g>
<circle style="fill:#91CECE;" cx="256" cy="132.267" r="25.6"/>
<path style="fill:#83B2B7;" d="M269.261,110.473c2.475,3.985,3.789,8.576,3.806,13.261c0,14.14-11.46,25.6-25.6,25.6
	c-4.685-0.017-9.276-1.331-13.261-3.806c7.287,12.066,22.989,15.94,35.055,8.653c12.066-7.287,15.94-22.989,8.653-35.055
	C275.772,115.584,272.802,112.614,269.261,110.473z"/>
<g>
	<path style="fill:#FFAC3E;" d="M469.333,72.533v25.6c0,14.14-11.46,25.6-25.6,25.6c-4.685-0.017-9.276-1.331-13.261-3.806
		c7.279,12.075,22.972,15.957,35.046,8.678c7.68-4.634,12.373-12.962,12.348-21.939V72.533H469.333z"/>
	<path style="fill:#FFAC3E;" d="M76.8,72.533v25.6c0,14.14-11.46,25.6-25.6,25.6c-4.685-0.017-9.276-1.331-13.261-3.806
		c7.279,12.075,22.972,15.957,35.046,8.678c7.68-4.634,12.373-12.962,12.348-21.939V72.533H76.8z"/>
</g>
<g>
</g>
<g>
</g>
<g>
</g>
<g>
</g>
<g>
</g>
<g>
</g>
<g>
</g>
<g>
</g>
<g>
</g>
<g>
</g>
<g>
</g>
<g>
</g>
<g>
</g>
<g>
</g>
<g>
</g>
</svg>
