<?xml version="1.0" encoding="iso-8859-1"?>
<!-- Generator: Adobe Illustrator 19.0.0, SVG Export Plug-In . SVG Version: 6.00 Build 0)  -->
<svg version="1.1" id="Capa_1" xmlns="http://www.w3.org/2000/svg" xmlns:xlink="http://www.w3.org/1999/xlink" x="0px" y="0px"
	 viewBox="0 0 512 512" style="enable-background:new 0 0 512 512;" xml:space="preserve">
<rect y="52.966" style="fill:#91CECE;" width="512" height="300.138"/>
<g>
	<rect y="353.103" style="fill:#FFD33F;" width="512" height="35.31"/>
	<polygon style="fill:#FFD33F;" points="194.207,459.034 220.69,388.414 291.31,388.414 317.793,459.034 	"/>
</g>
<g>
	<circle style="fill:#EA3836;" cx="256" cy="273.655" r="26.483"/>
	<path style="fill:#EA3836;" d="M150.643,168.298c-6.912-6.974-6.859-18.22,0.106-25.132c0.521-0.521,1.077-0.998,1.66-1.448
		c60.796-47.722,146.335-47.722,207.13,0c7.768,5.994,9.207,17.152,3.213,24.92c-0.45,0.583-0.936,1.139-1.448,1.66l0,0
		c-6.471,6.347-16.667,6.824-23.702,1.112c-47.96-37.57-115.35-37.57-163.31,0c-7.036,5.711-17.231,5.235-23.702-1.112H150.643z"/>
	<path style="fill:#EA3836;" d="M201.269,218.924L201.269,218.924c-6.921-6.806-7.018-17.929-0.212-24.858
		c0.847-0.865,1.783-1.633,2.79-2.304c31.832-20.259,72.51-20.259,104.342,0c8.068,5.394,10.24,16.305,4.846,24.382
		c-0.671,1.006-1.448,1.942-2.304,2.781l0,0c-5.906,5.844-15.078,6.806-22.069,2.313c-20.021-12.473-45.4-12.473-65.421,0
		C216.276,225.677,207.157,224.715,201.269,218.924z"/>
</g>
<path style="fill:#FFAC3E;" d="M291.31,388.414H220.69l-19.624,52.321c31.117-15.828,65.351-24.585,100.246-25.644L291.31,388.414z"
	/>
<path style="fill:#83B2B7;" d="M512,353.103v-73.852c-33.739,27.913-69.994,52.639-108.297,73.852H512z"/>
<path style="fill:#FFAC3E;" d="M330.258,388.414H512v-35.31H403.703C379.922,366.283,355.399,378.068,330.258,388.414z"/>
<g>
</g>
<g>
</g>
<g>
</g>
<g>
</g>
<g>
</g>
<g>
</g>
<g>
</g>
<g>
</g>
<g>
</g>
<g>
</g>
<g>
</g>
<g>
</g>
<g>
</g>
<g>
</g>
<g>
</g>
</svg>
