<?xml version="1.0" encoding="iso-8859-1"?>
<!-- Generator: Adobe Illustrator 19.0.0, SVG Export Plug-In . SVG Version: 6.00 Build 0)  -->
<svg version="1.1" id="Capa_1" xmlns="http://www.w3.org/2000/svg" xmlns:xlink="http://www.w3.org/1999/xlink" x="0px" y="0px"
	 viewBox="0 0 512.001 512.001" style="enable-background:new 0 0 512.001 512.001;" xml:space="preserve">
<rect x="4.339" style="fill:#383856;" width="503.322" height="147.525"/>
<path style="fill:#FFD33F;" d="M39.051,147.525L39.051,147.525c0,119.817,97.132,216.949,216.949,216.949l0,0
	c119.817,0,216.949-97.132,216.949-216.949H39.051z"/>
<path style="fill:#FFAC3E;" d="M453.988,147.525C439.643,266.44,331.62,351.223,212.697,336.879
	c-57.578-6.942-109.985-36.664-145.495-82.519c59.028,104.274,191.401,140.948,295.676,81.92
	c68.009-38.495,110.054-110.601,110.071-188.754H453.988z"/>
<g>
	<path style="fill:#383856;" d="M137.555,286.026c-19.092-16.289-34.608-36.361-45.568-58.941l15.62-7.593
		c9.91,20.437,23.951,38.6,41.229,53.343L137.555,286.026z"/>
	<path style="fill:#383856;" d="M82.875,204.592c-2.222-6.76-4.053-13.65-5.467-20.628l17.009-3.471
		c1.276,6.309,2.933,12.531,4.946,18.64L82.875,204.592z"/>
</g>
<g>
	<path style="fill:#EA3836;" d="M256,512c-41.385,0.113-81.096-16.332-110.271-45.681c-3.445-3.332-3.541-8.825-0.217-12.271
		c3.332-3.445,8.826-3.541,12.271-0.217c0.069,0.069,0.148,0.139,0.217,0.217c54.116,54.124,141.867,54.124,195.992,0.009
		l0.009-0.009c3.332-3.445,8.825-3.541,12.271-0.208c3.445,3.332,3.541,8.825,0.208,12.271c-0.069,0.069-0.139,0.139-0.208,0.208
		C337.096,495.668,297.386,512.113,256,512z"/>
	<path style="fill:#EA3836;" d="M256,475.188c-31.614,0.087-61.943-12.488-84.237-34.903c-3.445-3.332-3.541-8.825-0.217-12.271
		c3.332-3.445,8.825-3.541,12.271-0.217c0.069,0.069,0.148,0.139,0.217,0.217c39.771,39.684,104.162,39.684,143.933,0
		c3.332-3.445,8.826-3.541,12.271-0.208s3.541,8.826,0.208,12.271c-0.069,0.069-0.139,0.139-0.208,0.208
		C317.944,462.7,287.614,475.275,256,475.188z"/>
	<path style="fill:#EA3836;" d="M256,438.064c-21.834,0.043-42.774-8.617-58.203-24.064c-3.332-3.445-3.237-8.938,0.217-12.271
		c3.367-3.246,8.695-3.246,12.054,0c25.4,25.296,66.465,25.296,91.865,0c3.445-3.332,8.938-3.237,12.271,0.208
		c3.246,3.367,3.246,8.695,0,12.062C298.783,429.447,277.834,438.107,256,438.064z"/>
</g>
<circle style="fill:#91CECE;" cx="256" cy="251.661" r="60.746"/>
<circle style="fill:#383856;" cx="242.983" cy="238.644" r="13.017"/>
<path style="fill:#83B2B7;" d="M294.383,204.6c21.131,26.06,17.139,64.312-8.921,85.443c-22.302,18.085-54.22,18.085-76.522,0
	c21.131,26.06,59.383,30.052,85.443,8.921c26.06-21.131,30.052-59.383,8.921-85.443C300.648,210.241,297.655,207.256,294.383,204.6z
	"/>
<path style="fill:#202033;" d="M240.501,147.525h267.16V0h-43.607C410.355,75.143,330.709,127.705,240.501,147.525z"/>
<g>
</g>
<g>
</g>
<g>
</g>
<g>
</g>
<g>
</g>
<g>
</g>
<g>
</g>
<g>
</g>
<g>
</g>
<g>
</g>
<g>
</g>
<g>
</g>
<g>
</g>
<g>
</g>
<g>
</g>
</svg>
