<?xml version="1.0" encoding="iso-8859-1"?>
<!-- Generator: Adobe Illustrator 19.0.0, SVG Export Plug-In . SVG Version: 6.00 Build 0)  -->
<svg version="1.1" id="Capa_1" xmlns="http://www.w3.org/2000/svg" xmlns:xlink="http://www.w3.org/1999/xlink" x="0px" y="0px"
	 viewBox="0 0 512 512" style="enable-background:new 0 0 512 512;" xml:space="preserve">
<path style="fill:#FFD33F;" d="M344.276,189.792H167.724l-17.655,35.31H35.31c-19.5,0-35.31,15.81-35.31,35.31v211.862
	c0,19.5,15.81,35.31,35.31,35.31H476.69c19.5,0,35.31-15.81,35.31-35.31V260.412c0-19.5-15.81-35.31-35.31-35.31H361.931
	L344.276,189.792z"/>
<path style="fill:#FFAC3E;" d="M500.021,234.097c-71.857,121.944-180.762,217.759-310.863,273.487H476.69
	c19.5,0,35.31-15.81,35.31-35.31V260.412C511.974,250.322,507.613,240.736,500.021,234.097z"/>
<circle style="fill:#91CECE;" cx="70.621" cy="286.895" r="26.483"/>
<circle style="fill:#383856;" cx="256" cy="366.343" r="105.931"/>
<g>
	<path style="fill:#EA3836;" d="M346.774,60.768c-48.11-50.132-127.753-51.774-177.885-3.663c-1.245,1.192-2.463,2.419-3.663,3.663
		l-12.659-12.314c54.925-57.123,145.752-58.906,202.876-3.99c1.359,1.306,2.684,2.631,3.99,3.99L346.774,60.768z"/>
	<path style="fill:#EA3836;" d="M317.643,90.728c-32.653-34.048-86.722-35.169-120.77-2.516c-0.856,0.821-1.695,1.66-2.516,2.516
		L181.698,78.37c39.468-41.039,104.722-42.311,145.761-2.842c0.962,0.927,1.916,1.88,2.842,2.842L317.643,90.728z"/>
	<path style="fill:#EA3836;" d="M288.521,120.689c-17.196-17.964-45.692-18.582-63.656-1.386c-0.477,0.45-0.936,0.918-1.386,1.386
		l-12.65-12.359c23.993-24.947,63.673-25.715,88.62-1.721c0.583,0.565,1.156,1.139,1.721,1.721L288.521,120.689z"/>
	<path style="fill:#EA3836;" d="M236.579,134.496L256,154.481l19.421-19.986c-10.328-10.726-27.392-11.052-38.118-0.724
		C237.056,134.01,236.818,134.248,236.579,134.496z"/>
	<circle style="fill:#EA3836;" cx="256" cy="366.343" r="70.621"/>
</g>
<path style="fill:#D62327;" d="M278.475,299.439c32.106,22.095,40.21,66.039,18.114,98.136
	c-17.885,25.98-50.838,36.943-80.719,26.845c32.009,22.281,76.023,14.398,98.304-17.611c22.281-32.009,14.398-76.023-17.611-98.304
	C291.001,304.63,284.91,301.575,278.475,299.439z"/>
<path style="fill:#202033;" d="M326.276,287.239c38.903,43.599,35.099,110.477-8.501,149.38c-40.13,35.814-100.749,35.814-140.879,0
	c38.727,43.776,105.604,47.863,149.38,9.137s47.863-105.604,9.137-149.38C332.553,293.145,329.507,290.091,326.276,287.239z"/>
<path style="fill:#83B2B7;" d="M84.339,264.349c2.56,4.122,3.919,8.872,3.937,13.718c0,14.627-11.855,26.483-26.483,26.483
	c-4.846-0.018-9.596-1.377-13.718-3.937c7.539,12.482,23.782,16.49,36.264,8.951s16.49-23.782,8.951-36.264
	C91.074,269.637,88.002,266.565,84.339,264.349z"/>
<g>
</g>
<g>
</g>
<g>
</g>
<g>
</g>
<g>
</g>
<g>
</g>
<g>
</g>
<g>
</g>
<g>
</g>
<g>
</g>
<g>
</g>
<g>
</g>
<g>
</g>
<g>
</g>
<g>
</g>
</svg>
