<?xml version="1.0" encoding="iso-8859-1"?>
<!-- Generator: Adobe Illustrator 19.0.0, SVG Export Plug-In . SVG Version: 6.00 Build 0)  -->
<svg version="1.1" id="Capa_1" xmlns="http://www.w3.org/2000/svg" xmlns:xlink="http://www.w3.org/1999/xlink" x="0px" y="0px"
	 viewBox="0 0 512 512" style="enable-background:new 0 0 512 512;" xml:space="preserve">
<g>
	<rect x="229.517" y="172.138" style="fill:#383856;" width="17.655" height="35.31"/>
	<rect x="264.828" y="172.138" style="fill:#383856;" width="17.655" height="35.31"/>
</g>
<rect y="295.724" style="fill:#91CECE;" width="176.552" height="123.586"/>
<g>
	<rect x="176.552" y="348.69" style="fill:#EA3836;" width="61.793" height="17.655"/>
	<rect x="273.655" y="348.69" style="fill:#EA3836;" width="61.793" height="17.655"/>
	<rect x="247.172" y="207.448" style="fill:#EA3836;" width="17.655" height="132.414"/>
</g>
<rect x="167.724" y="48.552" style="fill:#91CECE;" width="176.552" height="123.586"/>
<g>
	<rect x="211.862" y="198.621" style="fill:#383856;" width="88.276" height="17.655"/>
	<rect x="61.793" y="419.31" style="fill:#383856;" width="17.655" height="35.31"/>
	<rect x="97.103" y="419.31" style="fill:#383856;" width="17.655" height="35.31"/>
	<rect x="44.138" y="445.793" style="fill:#383856;" width="88.276" height="17.655"/>
</g>
<rect x="335.448" y="295.724" style="fill:#91CECE;" width="176.552" height="123.586"/>
<g>
	<rect x="397.241" y="419.31" style="fill:#383856;" width="17.655" height="35.31"/>
	<rect x="432.552" y="419.31" style="fill:#383856;" width="17.655" height="35.31"/>
	<rect x="379.586" y="445.793" style="fill:#383856;" width="88.276" height="17.655"/>
</g>
<path style="fill:#FFD33F;" d="M247.172,339.862h17.655c4.873,0,8.828,3.955,8.828,8.828v17.655c0,4.873-3.955,8.828-8.828,8.828
	h-17.655c-4.873,0-8.828-3.955-8.828-8.828V348.69C238.345,343.817,242.3,339.862,247.172,339.862z"/>
<g>
	<path style="fill:#83B2B7;" d="M0,419.31h176.552V295.724h-1.951C148.462,369.752,78.504,419.266,0,419.31z"/>
	<path style="fill:#83B2B7;" d="M335.448,419.31H512V295.724h-1.951C483.911,369.752,413.952,419.266,335.448,419.31z"/>
	<path style="fill:#83B2B7;" d="M167.724,172.138h176.552V48.552h-1.951C316.186,122.58,246.228,172.094,167.724,172.138z"/>
</g>
<g>
	<path style="fill:#202033;" d="M247.172,172.138h-17.655v8.828c5.906,0.035,11.794,0.406,17.655,1.13V172.138z"/>
	<path style="fill:#202033;" d="M282.483,172.138h-17.655v13.18c5.994,1.448,11.891,3.266,17.655,5.447V172.138z"/>
	<path style="fill:#202033;" d="M414.897,419.31h-17.655v8.828c5.906,0.035,11.794,0.406,17.655,1.13V419.31z"/>
	<path style="fill:#202033;" d="M450.207,419.31h-17.655v13.18c5.994,1.448,11.891,3.266,17.655,5.447V419.31z"/>
	<path style="fill:#202033;" d="M79.448,419.31H61.793v8.828c5.906,0.035,11.794,0.406,17.655,1.13V419.31z"/>
	<path style="fill:#202033;" d="M114.759,419.31H97.103v13.18c5.994,1.448,11.891,3.266,17.655,5.447V419.31z"/>
</g>
<g>
</g>
<g>
</g>
<g>
</g>
<g>
</g>
<g>
</g>
<g>
</g>
<g>
</g>
<g>
</g>
<g>
</g>
<g>
</g>
<g>
</g>
<g>
</g>
<g>
</g>
<g>
</g>
<g>
</g>
</svg>
