<?xml version="1.0" encoding="iso-8859-1"?>
<!-- Generator: Adobe Illustrator 19.0.0, SVG Export Plug-In . SVG Version: 6.00 Build 0)  -->
<svg version="1.1" id="Capa_1" xmlns="http://www.w3.org/2000/svg" xmlns:xlink="http://www.w3.org/1999/xlink" x="0px" y="0px"
	 viewBox="0 0 512 512" style="enable-background:new 0 0 512 512;" xml:space="preserve">
<path style="fill:#91CECE;" d="M141.241,128L141.241,128c-29.255,0-52.966,23.711-52.966,52.966l0,0
	c0,29.255,23.711,52.966,52.966,52.966h211.862c39,0,70.621-31.62,70.621-70.621l0,0c0-39-31.62-70.621-70.621-70.621l0,0
	c0-39-31.62-70.621-70.621-70.621l0,0c-34.127,0-61.793,27.666-61.793,61.793l0,0C186.562,74.108,150.996,93.873,141.241,128
	L141.241,128z"/>
<path style="fill:#83B2B7;" d="M247.172,233.931h105.931c38.956,0.044,70.577-31.506,70.621-70.462
	c0.018-12.403-3.24-24.594-9.445-35.337C383.673,192.706,318.632,233.887,247.172,233.931z"/>
<rect x="176.552" y="375.172" style="fill:#EA3836;" width="61.793" height="17.655"/>
<path style="fill:#FFD33F;" d="M247.172,366.345h17.655c4.873,0,8.828,3.955,8.828,8.828v17.655c0,4.873-3.955,8.828-8.828,8.828
	h-17.655c-4.873,0-8.828-3.955-8.828-8.828v-17.655C238.345,370.3,242.3,366.345,247.172,366.345z"/>
<g>
	<rect x="273.655" y="375.172" style="fill:#EA3836;" width="61.793" height="17.655"/>
	<rect x="247.172" y="233.931" style="fill:#EA3836;" width="17.655" height="132.414"/>
</g>
<g>
	<rect x="273.655" y="198.621" style="fill:#383856;" width="52.966" height="17.655"/>
	<rect x="344.276" y="198.621" style="fill:#383856;" width="17.655" height="17.655"/>
</g>
<rect y="322.207" style="fill:#91CECE;" width="176.552" height="123.586"/>
<g>
	<rect x="61.793" y="445.793" style="fill:#383856;" width="17.655" height="35.31"/>
	<rect x="97.103" y="445.793" style="fill:#383856;" width="17.655" height="35.31"/>
	<rect x="44.138" y="472.276" style="fill:#383856;" width="88.276" height="17.655"/>
</g>
<path style="fill:#83B2B7;" d="M0,445.793h176.552V322.207h-1.951C148.462,396.235,78.504,445.749,0,445.793z"/>
<g>
	<path style="fill:#202033;" d="M79.448,445.793H61.793v8.828c5.906,0.035,11.794,0.406,17.655,1.13V445.793z"/>
	<path style="fill:#202033;" d="M114.759,445.793H97.103v13.18c5.994,1.448,11.891,3.266,17.655,5.447V445.793z"/>
</g>
<rect x="335.448" y="322.207" style="fill:#91CECE;" width="176.552" height="123.586"/>
<g>
	<rect x="397.241" y="445.793" style="fill:#383856;" width="17.655" height="35.31"/>
	<rect x="432.552" y="445.793" style="fill:#383856;" width="17.655" height="35.31"/>
	<rect x="379.586" y="472.276" style="fill:#383856;" width="88.276" height="17.655"/>
</g>
<path style="fill:#83B2B7;" d="M335.448,445.793H512V322.207h-1.951C483.911,396.235,413.952,445.749,335.448,445.793z"/>
<g>
	<path style="fill:#202033;" d="M414.897,445.793h-17.655v8.828c5.906,0.035,11.794,0.406,17.655,1.13V445.793z"/>
	<path style="fill:#202033;" d="M450.207,445.793h-17.655v13.18c5.994,1.448,11.891,3.266,17.655,5.447V445.793z"/>
</g>
<g>
</g>
<g>
</g>
<g>
</g>
<g>
</g>
<g>
</g>
<g>
</g>
<g>
</g>
<g>
</g>
<g>
</g>
<g>
</g>
<g>
</g>
<g>
</g>
<g>
</g>
<g>
</g>
<g>
</g>
</svg>
