<?xml version="1.0" encoding="iso-8859-1"?>
<!-- Generator: Adobe Illustrator 19.0.0, SVG Export Plug-In . SVG Version: 6.00 Build 0)  -->
<svg version="1.1" id="Capa_1" xmlns="http://www.w3.org/2000/svg" xmlns:xlink="http://www.w3.org/1999/xlink" x="0px" y="0px"
	 viewBox="0 0 511.998 511.998" style="enable-background:new 0 0 511.998 511.998;" xml:space="preserve">
<g>
	<circle style="fill:#383856;" cx="106.149" cy="388.685" r="35.383"/>
	<circle style="fill:#383856;" cx="415.75" cy="388.685" r="35.383"/>
</g>
<path style="fill:#FFD33F;" d="M61.92,388.685l-46.732-6.679C6.475,380.759,0,373.302,0,364.492v-69.2
	c-0.009-7.625,4.865-14.401,12.101-16.807l40.973-13.64l48.156-40.124c3.176-2.654,7.183-4.104,11.323-4.104h138.4
	c3.627,0,7.165,1.115,10.137,3.202l83.893,58.718l114.995,8.846l33.251,6.652c6.705,1.345,12.039,6.422,13.693,13.056l4.547,18.169
	c1.026,4.096,0.548,8.43-1.345,12.207l-18.718,37.435c-2.999,5.997-9.12,9.783-15.825,9.783h-15.604
	c0-24.423-19.806-44.229-44.229-44.229l0,0c-24.423,0-44.229,19.806-44.229,44.229H150.378c0-24.423-19.806-44.229-44.229-44.229
	l0,0C81.726,344.456,61.92,364.262,61.92,388.685z"/>
<path style="fill:#FFAC3E;" d="M506.923,311.09c-1.654-6.634-6.988-11.712-13.693-13.056l-33.251-6.652l-58.453-4.494
	c-77.276,47.404-162.532,80.355-251.608,97.232c0.23,1.513,0.389,3.034,0.46,4.564h221.143c0-24.423,19.806-44.229,44.229-44.229
	c24.423,0,44.229,19.806,44.229,44.229h15.604c6.705,0,12.826-3.786,15.825-9.783l18.718-37.435
	c1.893-3.777,2.371-8.112,1.345-12.207L506.923,311.09z"/>
<g>
	<path style="fill:#EA3836;" d="M442.287,202.925h-17.691c-0.062-53.711-43.592-97.241-97.303-97.303V87.93
		C390.769,88.01,442.216,139.448,442.287,202.925z"/>
	<path style="fill:#EA3836;" d="M398.058,202.925h-17.691c-0.027-29.297-23.777-53.048-53.074-53.074v-17.691
		C366.355,132.203,398.014,163.862,398.058,202.925z"/>
	<path style="fill:#EA3836;" d="M327.292,176.387v26.537h26.537C353.829,188.267,341.95,176.387,327.292,176.387z"/>
</g>
<g>
	<rect x="203.452" y="344.456" style="fill:#383856;" width="88.457" height="17.691"/>
	<rect x="168.069" y="344.456" style="fill:#383856;" width="17.691" height="17.691"/>
</g>
<g>
	<path style="fill:#202033;" d="M389.212,397.531c-0.027-19.514,15.781-35.356,35.294-35.383c7.245-0.009,14.321,2.211,20.266,6.36
		c-11.057-16.108-33.083-20.213-49.191-9.155c-16.108,11.057-20.213,33.083-9.155,49.191c2.459,3.583,5.564,6.687,9.146,9.146
		C391.433,411.79,389.212,404.749,389.212,397.531z"/>
	<path style="fill:#202033;" d="M79.612,397.531c-0.027-19.514,15.781-35.356,35.294-35.383c7.245-0.009,14.321,2.211,20.266,6.36
		c-11.057-16.108-33.083-20.213-49.191-9.155c-16.108,11.057-20.213,33.083-9.155,49.191c2.459,3.583,5.564,6.687,9.146,9.146
		C81.832,411.79,79.612,404.749,79.612,397.531z"/>
</g>
<g>
</g>
<g>
</g>
<g>
</g>
<g>
</g>
<g>
</g>
<g>
</g>
<g>
</g>
<g>
</g>
<g>
</g>
<g>
</g>
<g>
</g>
<g>
</g>
<g>
</g>
<g>
</g>
<g>
</g>
</svg>
