<?xml version="1.0" encoding="iso-8859-1"?>
<!-- Generator: Adobe Illustrator 19.0.0, SVG Export Plug-In . SVG Version: 6.00 Build 0)  -->
<svg version="1.1" id="Capa_1" xmlns="http://www.w3.org/2000/svg" xmlns:xlink="http://www.w3.org/1999/xlink" x="0px" y="0px"
	 viewBox="0 0 512 512" style="enable-background:new 0 0 512 512;" xml:space="preserve">
<path style="fill:#383856;" d="M59.733,503.467V296.286c0-3.678,2.347-6.938,5.837-8.098L162.133,256v247.467H59.733z"/>
<path style="fill:#202033;" d="M59.733,494.08v9.387h102.4v-54.434C133.717,474.65,97.818,490.445,59.733,494.08z"/>
<path style="fill:#383856;" d="M452.267,503.467V364.553c0-3.678-2.347-6.938-5.837-8.098l-96.563-32.188v179.2H452.267z"/>
<path style="fill:#202033;" d="M349.867,324.267v179.2h85.641C381.303,459.785,349.807,393.882,349.867,324.267z"/>
<path style="fill:#FFD33F;" d="M162.133,503.467V128c0-4.71,3.823-8.533,8.533-8.533h170.667c4.71,0,8.533,3.823,8.533,8.533
	v375.467H162.133z"/>
<path style="fill:#FFAC3E;" d="M162.133,482.475v20.992h187.733v-122.47C296.917,430.217,232.311,465.135,162.133,482.475z"/>
<g>
	<path style="fill:#EA3836;" d="M8.533,102.4C3.823,102.4,0,98.577,0,93.867C0.06,42.052,42.052,0.06,93.867,0
		c4.71,0,8.533,3.823,8.533,8.533s-3.823,8.533-8.533,8.533c-42.394,0.051-76.749,34.406-76.8,76.8
		C17.067,98.577,13.244,102.4,8.533,102.4z"/>
	<path style="fill:#EA3836;" d="M42.667,102.4c-4.71,0-8.533-3.823-8.533-8.533c0.043-32.973,26.761-59.691,59.733-59.733
		c4.71,0,8.533,3.823,8.533,8.533S98.577,51.2,93.867,51.2C70.315,51.226,51.226,70.315,51.2,93.867
		C51.2,98.577,47.377,102.4,42.667,102.4z"/>
	<circle style="fill:#EA3836;" cx="85.333" cy="85.333" r="17.067"/>
	<path style="fill:#EA3836;" d="M221.867,503.467v-51.2c0-4.71,3.823-8.533,8.533-8.533h51.2c4.71,0,8.533,3.823,8.533,8.533v51.2
		H221.867z"/>
</g>
<path style="fill:#D62327;" d="M290.133,496.154C256,496.154,256,452.267,256,452.267v51.2h34.133V496.154z"/>
<rect y="494.933" style="fill:#874D1B;" width="512" height="17.067"/>
<path style="fill:#91CECE;" d="M204.8,153.6h17.067c4.71,0,8.533,3.823,8.533,8.533V179.2c0,4.71-3.823,8.533-8.533,8.533H204.8
	c-4.71,0-8.533-3.823-8.533-8.533v-17.067C196.267,157.423,200.09,153.6,204.8,153.6z"/>
<path style="fill:#83B2B7;" d="M201.958,187.162c0.905,0.35,1.869,0.546,2.842,0.572h17.067c4.71,0,8.533-3.823,8.533-8.533v-8.764
	C223.565,179.618,213.308,185.651,201.958,187.162z"/>
<path style="fill:#91CECE;" d="M290.133,153.6H307.2c4.71,0,8.533,3.823,8.533,8.533V179.2c0,4.71-3.823,8.533-8.533,8.533h-17.067
	c-4.71,0-8.533-3.823-8.533-8.533v-17.067C281.6,157.423,285.423,153.6,290.133,153.6z"/>
<path style="fill:#83B2B7;" d="M287.292,187.162c0.905,0.35,1.869,0.546,2.842,0.572H307.2c4.71,0,8.533-3.823,8.533-8.533v-8.764
	C308.898,179.618,298.641,185.651,287.292,187.162z"/>
<path style="fill:#91CECE;" d="M204.8,238.933h17.067c4.71,0,8.533,3.823,8.533,8.533v17.067c0,4.71-3.823,8.533-8.533,8.533H204.8
	c-4.71,0-8.533-3.823-8.533-8.533v-17.067C196.267,242.756,200.09,238.933,204.8,238.933z"/>
<path style="fill:#83B2B7;" d="M201.958,272.495c0.905,0.35,1.869,0.546,2.842,0.572h17.067c4.71,0,8.533-3.823,8.533-8.533v-8.764
	C223.565,264.951,213.308,270.985,201.958,272.495z"/>
<path style="fill:#91CECE;" d="M290.133,238.933H307.2c4.71,0,8.533,3.823,8.533,8.533v17.067c0,4.71-3.823,8.533-8.533,8.533
	h-17.067c-4.71,0-8.533-3.823-8.533-8.533v-17.067C281.6,242.756,285.423,238.933,290.133,238.933z"/>
<path style="fill:#83B2B7;" d="M287.292,272.495c0.905,0.35,1.869,0.546,2.842,0.572H307.2c4.71,0,8.533-3.823,8.533-8.533v-8.764
	C308.898,264.951,298.641,270.985,287.292,272.495z"/>
<path style="fill:#91CECE;" d="M204.8,324.267h17.067c4.71,0,8.533,3.823,8.533,8.533v17.067c0,4.71-3.823,8.533-8.533,8.533H204.8
	c-4.71,0-8.533-3.823-8.533-8.533V332.8C196.267,328.09,200.09,324.267,204.8,324.267z"/>
<path style="fill:#83B2B7;" d="M201.958,357.828c0.905,0.35,1.869,0.546,2.842,0.572h17.067c4.71,0,8.533-3.823,8.533-8.533v-8.764
	C223.565,350.285,213.308,356.318,201.958,357.828z"/>
<path style="fill:#91CECE;" d="M290.133,324.267H307.2c4.71,0,8.533,3.823,8.533,8.533v17.067c0,4.71-3.823,8.533-8.533,8.533
	h-17.067c-4.71,0-8.533-3.823-8.533-8.533V332.8C281.6,328.09,285.423,324.267,290.133,324.267z"/>
<path style="fill:#83B2B7;" d="M287.292,357.828c0.905,0.35,1.869,0.546,2.842,0.572H307.2c4.71,0,8.533-3.823,8.533-8.533v-8.764
	C308.898,350.285,298.641,356.318,287.292,357.828z"/>
<path style="fill:#91CECE;" d="M102.4,324.267h17.067c4.71,0,8.533,3.823,8.533,8.533v17.067c0,4.71-3.823,8.533-8.533,8.533H102.4
	c-4.71,0-8.533-3.823-8.533-8.533V332.8C93.867,328.09,97.69,324.267,102.4,324.267z"/>
<path style="fill:#83B2B7;" d="M99.558,357.828c0.905,0.35,1.869,0.546,2.842,0.572h17.067c4.71,0,8.533-3.823,8.533-8.533v-8.764
	C121.165,350.285,110.908,356.318,99.558,357.828z"/>
<path style="fill:#91CECE;" d="M102.4,392.533h17.067c4.71,0,8.533,3.823,8.533,8.533v17.067c0,4.71-3.823,8.533-8.533,8.533H102.4
	c-4.71,0-8.533-3.823-8.533-8.533v-17.067C93.867,396.356,97.69,392.533,102.4,392.533z"/>
<path style="fill:#83B2B7;" d="M99.558,426.095c0.905,0.35,1.869,0.546,2.842,0.572h17.067c4.71,0,8.533-3.823,8.533-8.533v-8.764
	C121.165,418.551,110.908,424.585,99.558,426.095z"/>
<path style="fill:#91CECE;" d="M392.533,392.533H409.6c4.71,0,8.533,3.823,8.533,8.533v17.067c0,4.71-3.823,8.533-8.533,8.533
	h-17.067c-4.71,0-8.533-3.823-8.533-8.533v-17.067C384,396.356,387.823,392.533,392.533,392.533z"/>
<path style="fill:#83B2B7;" d="M389.692,426.095c0.905,0.35,1.869,0.546,2.842,0.572H409.6c4.71,0,8.533-3.823,8.533-8.533v-8.764
	C411.298,418.551,401.041,424.585,389.692,426.095z"/>
<g>
</g>
<g>
</g>
<g>
</g>
<g>
</g>
<g>
</g>
<g>
</g>
<g>
</g>
<g>
</g>
<g>
</g>
<g>
</g>
<g>
</g>
<g>
</g>
<g>
</g>
<g>
</g>
<g>
</g>
</svg>
