<?xml version="1.0" encoding="iso-8859-1"?>
<!-- Generator: Adobe Illustrator 19.0.0, SVG Export Plug-In . SVG Version: 6.00 Build 0)  -->
<svg version="1.1" id="Capa_1" xmlns="http://www.w3.org/2000/svg" xmlns:xlink="http://www.w3.org/1999/xlink" x="0px" y="0px"
	 viewBox="0 0 512 512" style="enable-background:new 0 0 512 512;" xml:space="preserve">
<path style="fill:#6DA1D9;" d="M470.919,116.922H41.08c-22.688,0-41.08,18.392-41.08,41.08v217.999
	c0,22.688,18.392,41.081,41.08,41.081h429.839c22.688,0,41.081-18.392,41.081-41.081V158.003
	C512,135.315,493.608,116.922,470.919,116.922z"/>
<path style="fill:#7EBBE6;" d="M0,269.391v106.611c0,22.688,18.392,41.081,41.08,41.081h429.839
	c22.688,0,41.081-18.392,41.081-41.081V269.391H0z"/>
<g>
	<path style="fill:#F9F1DA;" d="M319.94,156.441H192.06c-8.686,0-15.727,7.041-15.727,15.727v24.486
		c0,8.686,7.041,15.727,15.727,15.727h127.88c8.686,0,15.727-7.041,15.727-15.727v-24.486
		C335.667,163.482,328.626,156.441,319.94,156.441z"/>
	<rect x="241.78" y="252.78" style="fill:#F9F1DA;" width="28.439" height="28.439"/>
</g>
<g>
	<path style="fill:#F5C07E;" d="M241.78,252.783h-24.154c-2.367,0-4.286,1.919-4.286,4.285v19.868c0,2.367,1.919,4.285,4.286,4.285
		h24.154V252.783z"/>
	<path style="fill:#F5C07E;" d="M270.22,252.783h24.154c2.367,0,4.286,1.919,4.286,4.285v19.868c0,2.367-1.919,4.285-4.286,4.285
		H270.22V252.783z"/>
</g>
<g>
	<path style="fill:#F8E686;" d="M287.705,353.02h-63.41c-4.142,0-7.5-3.358-7.5-7.5s3.358-7.5,7.5-7.5h63.41
		c4.143,0,7.5,3.358,7.5,7.5S291.848,353.02,287.705,353.02z"/>
	<path style="fill:#F8E686;" d="M287.705,379.327h-63.41c-4.142,0-7.5-3.358-7.5-7.5s3.358-7.5,7.5-7.5h63.41
		c4.143,0,7.5,3.358,7.5,7.5S291.848,379.327,287.705,379.327z"/>
</g>
<path style="fill:#495059;" d="M294.465,191.911h-76.93c-4.142,0-7.5-3.358-7.5-7.5s3.358-7.5,7.5-7.5h76.93
	c4.143,0,7.5,3.358,7.5,7.5S298.607,191.911,294.465,191.911z"/>
<path style="opacity:0.15;fill:#2E4486;enable-background:new    ;" d="M41.08,116.922c-22.688,0-41.08,18.392-41.08,41.08v217.999
	c0,22.688,18.392,41.081,41.08,41.081h348.01c-145.549-73.299-218.158-200.535-216.588-300.16L41.08,116.922L41.08,116.922z"/>
<circle style="fill:#495059;" cx="404.51" cy="322.23" r="63.6"/>
<g style="opacity:0.1;">
	<path d="M382.706,387.389c-4.143,0-7.5-3.358-7.5-7.5V264.566c0-4.142,3.357-7.5,7.5-7.5s7.5,3.358,7.5,7.5v115.323
		C390.206,384.031,386.849,387.389,382.706,387.389z"/>
	<path d="M426.32,387.389c-4.143,0-7.5-3.358-7.5-7.5V264.566c0-4.142,3.357-7.5,7.5-7.5s7.5,3.358,7.5,7.5v115.323
		C433.82,384.031,430.463,387.389,426.32,387.389z"/>
	<path d="M462.175,307.92H346.852c-4.143,0-7.5-3.358-7.5-7.5s3.357-7.5,7.5-7.5h115.323c4.143,0,7.5,3.358,7.5,7.5
		S466.317,307.92,462.175,307.92z"/>
	<path d="M462.175,351.535H346.852c-4.143,0-7.5-3.358-7.5-7.5s3.357-7.5,7.5-7.5h115.323c4.143,0,7.5,3.358,7.5,7.5
		S466.317,351.535,462.175,351.535z"/>
</g>
<path style="opacity:0.1;enable-background:new    ;" d="M468.118,322.228c0-35.128-28.477-63.605-63.605-63.605
	c-16.175,0-30.93,6.048-42.154,15.993c40.105-4.127,96.205,26.491,86.318,93.363C460.656,356.411,468.118,340.195,468.118,322.228z"
	/>
<path style="fill:#F9F1DA;" d="M404.513,393.333c-39.207,0-71.104-31.898-71.104-71.105c0-39.208,31.897-71.105,71.104-71.105
	c39.208,0,71.105,31.897,71.105,71.105C475.618,361.435,443.721,393.333,404.513,393.333z M404.513,266.122
	c-30.936,0-56.104,25.168-56.104,56.105s25.168,56.105,56.104,56.105s56.105-25.169,56.105-56.105S435.449,266.122,404.513,266.122z
	"/>
<circle style="fill:#495059;" cx="428.19" cy="178.62" r="34.564"/>
<path style="opacity:0.1;enable-background:new    ;" d="M462.752,178.618c0-19.089-15.474-34.564-34.564-34.564
	c-12.668,0-23.739,6.82-29.757,16.984c19.176-4.918,56.674,5.751,54.668,41.526C459.073,196.351,462.752,187.917,462.752,178.618z"
	/>
<g style="opacity:0.1;">
	<path d="M428.189,217.254c-4.143,0-7.5-3.358-7.5-7.5v-62.272c0-4.142,3.357-7.5,7.5-7.5s7.5,3.358,7.5,7.5v62.272
		C435.689,213.896,432.331,217.254,428.189,217.254z"/>
	<path d="M459.324,186.118h-62.271c-4.143,0-7.5-3.358-7.5-7.5s3.357-7.5,7.5-7.5h62.271c4.143,0,7.5,3.358,7.5,7.5
		S463.467,186.118,459.324,186.118z"/>
</g>
<path style="fill:#7EBBE6;" d="M360.21,116.922h-41.424v-40.03c0-2.584-2.104-4.687-4.688-4.687H197.902
	c-2.584,0-4.687,2.103-4.687,4.687v40.031h-41.424V76.892c0-25.426,20.685-46.111,46.111-46.111h116.195
	c25.427,0,46.112,20.685,46.112,46.111L360.21,116.922L360.21,116.922z"/>
<rect x="220.32" y="30.78" style="fill:#6DA1D9;" width="71.36" height="41.42"/>
<g>
	<rect x="151.79" y="99.1" style="opacity:0.15;fill:#2E4486;enable-background:new    ;" width="41.42" height="17.822"/>
	<rect x="318.79" y="99.1" style="opacity:0.15;fill:#2E4486;enable-background:new    ;" width="41.42" height="17.822"/>
</g>
<g>
	<path style="fill:#495059;" d="M97.397,85.823c-2.738,0-5.376-1.504-6.697-4.114L77.12,54.88
		c-1.871-3.696-0.392-8.208,3.304-10.079c3.696-1.872,8.208-0.391,10.079,3.304l13.58,26.829c1.871,3.696,0.392,8.208-3.304,10.079
		C99.693,85.562,98.537,85.823,97.397,85.823z"/>
	<path style="fill:#495059;" d="M32.059,94.728c-2.121,0-4.228-0.894-5.711-2.635L10.675,73.704
		c-2.687-3.152-2.31-7.886,0.843-10.573c3.152-2.687,7.886-2.31,10.573,0.843l15.672,18.389c2.687,3.152,2.31,7.886-0.843,10.573
		C35.508,94.139,33.779,94.728,32.059,94.728z"/>
	<path style="fill:#495059;" d="M36.071,473.774c-1.972,0-3.94-0.772-5.413-2.307c-2.868-2.989-2.77-7.737,0.219-10.604
		L46.5,445.871c2.99-2.868,7.736-2.77,10.605,0.219c2.868,2.989,2.77,7.737-0.219,10.604l-15.624,14.991
		C39.809,473.081,37.938,473.774,36.071,473.774z"/>
	<path style="fill:#495059;" d="M113.537,481.22c-4.142,0-7.5-3.358-7.5-7.5v-18.316c0-4.142,3.358-7.5,7.5-7.5s7.5,3.358,7.5,7.5
		v18.316C121.037,477.862,117.679,481.22,113.537,481.22z"/>
	<path style="fill:#495059;" d="M414.603,85.823c-1.14,0-2.295-0.26-3.381-0.81c-3.696-1.871-5.176-6.383-3.305-10.079l13.58-26.829
		c1.871-3.697,6.385-5.175,10.078-3.304c3.696,1.871,5.176,6.383,3.305,10.079L421.3,81.708
		C419.978,84.318,417.34,85.823,414.603,85.823z"/>
	<path style="fill:#495059;" d="M479.941,94.728c-1.72,0-3.449-0.588-4.861-1.792c-3.152-2.686-3.529-7.42-0.843-10.573
		l15.672-18.389c2.685-3.152,7.419-3.531,10.573-0.843c3.152,2.687,3.529,7.421,0.843,10.573l-15.672,18.389
		C484.17,93.833,482.063,94.728,479.941,94.728z"/>
	<path style="fill:#495059;" d="M475.929,473.774c-1.868,0-3.737-0.693-5.191-2.088l-15.623-14.991
		c-2.989-2.868-3.087-7.616-0.219-10.604c2.866-2.988,7.615-3.086,10.603-0.219l15.623,14.991c2.989,2.868,3.087,7.616,0.219,10.604
		C479.869,473.001,477.9,473.774,475.929,473.774z"/>
	<path style="fill:#495059;" d="M398.463,481.22c-4.143,0-7.5-3.358-7.5-7.5v-18.316c0-4.142,3.357-7.5,7.5-7.5s7.5,3.358,7.5,7.5
		v18.316C405.963,477.862,402.605,481.22,398.463,481.22z"/>
</g>
<path style="fill:#F8E686;" d="M428.189,220.682c-23.194,0-42.064-18.87-42.064-42.063c0-23.194,18.869-42.064,42.064-42.064
	c23.194,0,42.064,18.87,42.064,42.064C470.252,201.812,451.383,220.682,428.189,220.682z M428.189,151.554
	c-14.923,0-27.064,12.141-27.064,27.064c0,14.923,12.141,27.063,27.064,27.063s27.064-12.141,27.064-27.063
	C455.252,163.695,443.111,151.554,428.189,151.554z"/>
<circle style="fill:#495059;" cx="107.49" cy="322.23" r="63.6"/>
<path style="opacity:0.1;enable-background:new    ;" d="M171.092,322.228c0-35.128-28.477-63.605-63.605-63.605
	c-16.175,0-30.93,6.048-42.154,15.993c40.105-4.127,96.205,26.491,86.317,93.363C163.63,356.411,171.092,340.195,171.092,322.228z"
	/>
<g style="opacity:0.1;">
	<path d="M129.295,387.389c-4.142,0-7.5-3.358-7.5-7.5V264.566c0-4.142,3.358-7.5,7.5-7.5s7.5,3.358,7.5,7.5v115.323
		C136.795,384.031,133.437,387.389,129.295,387.389z"/>
	<path d="M85.68,387.389c-4.142,0-7.5-3.358-7.5-7.5V264.566c0-4.142,3.358-7.5,7.5-7.5s7.5,3.358,7.5,7.5v115.323
		C93.18,384.031,89.822,387.389,85.68,387.389z"/>
	<path d="M165.149,307.92H49.826c-4.142,0-7.5-3.358-7.5-7.5s3.358-7.5,7.5-7.5h115.323c4.142,0,7.5,3.358,7.5,7.5
		S169.291,307.92,165.149,307.92z"/>
	<path d="M165.149,351.535H49.826c-4.142,0-7.5-3.358-7.5-7.5s3.358-7.5,7.5-7.5h115.323c4.142,0,7.5,3.358,7.5,7.5
		S169.291,351.535,165.149,351.535z"/>
</g>
<path style="fill:#F9F1DA;" d="M107.487,393.333c-39.207,0-71.105-31.898-71.105-71.105c0-39.208,31.897-71.105,71.105-71.105
	s71.106,31.897,71.106,71.105C178.592,361.435,146.694,393.333,107.487,393.333z M107.487,266.122
	c-30.937,0-56.105,25.168-56.105,56.105s25.168,56.105,56.105,56.105s56.106-25.169,56.106-56.105
	C163.592,291.291,138.423,266.122,107.487,266.122z"/>
<circle style="fill:#495059;" cx="83.81" cy="178.62" r="34.564"/>
<path style="opacity:0.1;enable-background:new    ;" d="M118.375,178.618c0-19.089-15.474-34.564-34.563-34.564
	c-12.668,0-23.739,6.82-29.757,16.984c19.175-4.918,56.674,5.751,54.668,41.526C114.696,196.351,118.375,187.917,118.375,178.618z"
	/>
<g style="opacity:0.1;">
	<path d="M83.812,217.254c-4.142,0-7.5-3.358-7.5-7.5v-62.272c0-4.142,3.358-7.5,7.5-7.5s7.5,3.358,7.5,7.5v62.272
		C91.312,213.896,87.954,217.254,83.812,217.254z"/>
	<path d="M114.948,186.118H52.676c-4.142,0-7.5-3.358-7.5-7.5s3.358-7.5,7.5-7.5h62.272c4.142,0,7.5,3.358,7.5,7.5
		S119.09,186.118,114.948,186.118z"/>
</g>
<path style="fill:#F8E686;" d="M83.811,220.682c-23.194,0-42.063-18.87-42.063-42.063c0-23.194,18.87-42.064,42.063-42.064
	c23.194,0,42.064,18.87,42.064,42.064C125.875,201.812,107.005,220.682,83.811,220.682z M83.811,151.554
	c-14.923,0-27.063,12.141-27.063,27.064c0,14.923,12.141,27.063,27.063,27.063c14.923,0,27.064-12.141,27.064-27.063
	C110.875,163.695,98.734,151.554,83.811,151.554z"/>
<g>
</g>
<g>
</g>
<g>
</g>
<g>
</g>
<g>
</g>
<g>
</g>
<g>
</g>
<g>
</g>
<g>
</g>
<g>
</g>
<g>
</g>
<g>
</g>
<g>
</g>
<g>
</g>
<g>
</g>
</svg>
