<?xml version="1.0" encoding="iso-8859-1"?>
<!-- Generator: Adobe Illustrator 21.0.0, SVG Export Plug-In . SVG Version: 6.00 Build 0)  -->
<svg xmlns="http://www.w3.org/2000/svg" xmlns:xlink="http://www.w3.org/1999/xlink" version="1.1" id="Capa_1" x="0px" y="0px" viewBox="0 0 512 512" style="enable-background:new 0 0 512 512;" xml:space="preserve" width="512" height="512">
<g>
	<rect x="7.5" y="46" style="fill:#B0693C;" width="497" height="410"/>
	<rect x="474.5" y="46" style="fill:#9C5D35;" width="30" height="410"/>
	
		<rect x="81" y="32.5" transform="matrix(-1.836970e-16 1 -1 -1.836970e-16 507 -5)" style="fill:#B5FCFF;" width="350" height="437"/>
	<polygon style="fill:#FF2C5C;" points="113.795,466 37.5,466 37.5,76 137.5,76 90.667,266.615 90.667,290.982  "/>
	<polygon style="fill:#E62753;" points="90.667,266.615 137.5,76 107.5,76 60.667,266.615 60.667,290.982 83.795,466 113.795,466    90.667,290.982  "/>
	<path style="fill:#FFD659;" d="M92.5,292.839h-55v-30h55c8.284,0,15,6.716,15,15v0C107.5,286.123,100.784,292.839,92.5,292.839z"/>
	<path style="fill:#FFBD54;" d="M92.5,262.839h-30c8.284,0,15,6.716,15,15v0c0,8.284-6.716,15-15,15h30c8.284,0,15-6.716,15-15v0   C107.5,269.555,100.784,262.839,92.5,262.839z"/>
	<polygon style="fill:#FF2C5C;" points="398.205,466 474.5,466 474.5,76 374.5,76 421.333,266.615 421.333,290.982  "/>
	<polygon style="fill:#E62753;" points="421.333,266.615 374.5,76 404.5,76 451.333,266.615 451.333,290.982 428.205,466    398.205,466 421.333,290.982  "/>
	<path style="fill:#FFD659;" d="M419.5,292.839h55v-30h-55c-8.284,0-15,6.716-15,15v0C404.5,286.123,411.216,292.839,419.5,292.839z   "/>
	<path style="fill:#FFBD54;" d="M419.5,262.839h30c-8.284,0-15,6.716-15,15v0c0,8.284,6.716,15,15,15h-30c-8.284,0-15-6.716-15-15v0   C404.5,269.555,411.216,262.839,419.5,262.839z"/>
	<g>
		<path d="M504.5,120.5c-4.142,0-7.5,3.357-7.5,7.5v320.5h-15V76c0-4.143-3.358-7.5-7.5-7.5h-437c-4.142,0-7.5,3.357-7.5,7.5v372.5    H15V416c0-4.143-3.358-7.5-7.5-7.5S0,411.857,0,416v40c0,4.143,3.358,7.5,7.5,7.5H30v2.5c0,4.143,3.358,7.5,7.5,7.5h76.29    c2.16,0,4.216-0.932,5.64-2.556c1.424-1.625,2.079-3.784,1.796-5.927l-0.2-1.518H352c4.142,0,7.5-3.357,7.5-7.5    s-3.358-7.5-7.5-7.5H119.044l-1.981-15h277.874l-1.981,15H384c-4.142,0-7.5,3.357-7.5,7.5s3.358,7.5,7.5,7.5h6.975l-0.2,1.518    c-0.283,2.143,0.372,4.302,1.796,5.927c1.424,1.624,3.479,2.556,5.64,2.556h76.29c4.142,0,7.5-3.357,7.5-7.5v-2.5h22.5    c4.142,0,7.5-3.357,7.5-7.5V128C512,123.857,508.642,120.5,504.5,120.5z M419.5,285.339c-4.136,0-7.5-3.364-7.5-7.5    s3.364-7.5,7.5-7.5H467v15H419.5z M398.62,83.5l32.884,133.842c0.84,3.422,3.905,5.713,7.277,5.713    c0.592,0,1.194-0.071,1.795-0.219c4.022-0.988,6.482-5.05,5.494-9.072L414.065,83.5h21.555l6.408,74.146    c0.338,3.907,3.613,6.854,7.463,6.854c0.216,0,0.435-0.009,0.654-0.028c4.127-0.356,7.183-3.99,6.827-8.117L450.676,83.5H467    v171.839h-40.72L384.065,83.5H398.62z M61.324,83.5l-6.296,72.854c-0.356,4.127,2.7,7.761,6.827,8.117    c0.219,0.02,0.438,0.028,0.654,0.028c3.85,0,7.125-2.947,7.463-6.854L76.38,83.5h21.555L65.93,213.764    c-0.988,4.022,1.471,8.084,5.494,9.072c0.602,0.147,1.203,0.219,1.795,0.219c3.372,0,6.437-2.291,7.277-5.713L113.38,83.5h14.555    L85.72,255.339H45V83.5H61.324z M92.5,285.339H45v-15h47.5c4.136,0,7.5,3.364,7.5,7.5S96.636,285.339,92.5,285.339z M45,458.5    V300.339h39.345L105.234,458.5H45z M99.335,299.274c9.075-2.9,15.665-11.411,15.665-21.435c0-9.484-5.902-17.611-14.224-20.916    L143.381,83.5H248.5v335H115.082L99.335,299.274z M263.5,418.5v-335h105.119l42.604,173.423    C402.902,260.228,397,268.354,397,277.839c0,10.024,6.59,18.535,15.665,21.435L396.918,418.5H263.5z M467,458.5h-60.234    l20.889-158.161H467V426V458.5z"/>
		<path d="M504.5,38.5H7.5C3.358,38.5,0,41.857,0,46v338c0,4.143,3.358,7.5,7.5,7.5s7.5-3.357,7.5-7.5V53.5h482V96    c0,4.143,3.358,7.5,7.5,7.5s7.5-3.357,7.5-7.5V46C512,41.857,508.642,38.5,504.5,38.5z"/>
	</g>
</g>















</svg>
